<svg width="800" height="800" viewBox="0 0 24 24" xml:space="preserve" xmlns="http://www.w3.org/2000/svg">
    <path style="fill:#000;stroke:#000;stroke-width:.44562;stroke-dasharray:none" d="M4.03 20.412c-1.154-.344-2.3-.742-2.544-.886-.49-.287-1.008-.984-1.166-1.57-.065-.24-.09-2.525-.073-6.358l.028-5.983.309-.546c.502-.887.88-1.09 3.418-1.838 1.991-.587 2.302-.653 2.932-.624.84.04 1.476.376 1.994 1.054.483.634.542.999.508 3.136l-.03 1.91-.287.375c-.273.358-.77.652-1.105.652-.086 0-.266-.11-.4-.244-.243-.243-.243-.245-.243-2.366 0-1.931-.017-2.138-.182-2.288a.733.733 0 0 0-.422-.164c-.132 0-1.11.249-2.175.554-1.326.38-1.99.618-2.11.756-.16.186-.173.611-.173 5.828 0 4.49.027 5.663.13 5.805.083.113.788.377 1.911.716 2.19.66 2.557.723 2.824.482.18-.163.197-.309.197-1.746 0-3.359.45-4.046 4-6.093 1.135-.655 2.213-1.312 2.394-1.46.617-.506.693-.803.754-2.956.062-2.182.15-2.517.837-3.194.512-.505.985-.71 1.742-.756.565-.035.915.038 2.779.579 2.42.701 2.703.822 3.192 1.363.745.825.727.644.727 7.317v5.955l-.229.496c-.498 1.081-.859 1.292-3.582 2.09-2.491.73-3.016.787-3.831.406-.553-.258-1.177-.89-1.42-1.44-.247-.559-.299-3.742-.07-4.34.215-.564.864-1.132 1.294-1.132.608 0 .642.129.642 2.421 0 2.372.068 2.635.675 2.639.367.002 4.023-1.094 4.213-1.264.162-.144.174-.552.174-5.88 0-5.327-.012-5.737-.174-5.882-.192-.173-3.826-1.264-4.21-1.264a.866.866 0 0 0-.435.14c-.176.13-.198.312-.248 2.11-.062 2.202-.148 2.567-.832 3.498-.466.635-.879.93-3.23 2.3-3.074 1.794-3 1.686-3.075 4.515l-.053 1.993-.3.484c-.35.566-.989 1.086-1.514 1.232-.751.209-1.392.113-3.56-.532z"/>
</svg>
