<?xml version="1.0" encoding="UTF-8"?>
<svg height="128px" viewBox="0 0 128 128" width="128px" xmlns="http://www.w3.org/2000/svg" xmlns:xlink="http://www.w3.org/1999/xlink">
    <linearGradient id="a" gradientUnits="userSpaceOnUse" x1="6" x2="122.000008" y1="81.999992" y2="81.999992">
        <stop offset="0" stop-color="#c061cb"/>
        <stop offset="0.0344828" stop-color="#dc8add"/>
        <stop offset="0.431034" stop-color="#ffa348"/>
        <stop offset="0.5" stop-color="#ffd5a5"/>
        <stop offset="0.568965" stop-color="#ffa348"/>
        <stop offset="0.965517" stop-color="#dc8add"/>
        <stop offset="1" stop-color="#c061cb"/>
    </linearGradient>
    <linearGradient id="b" gradientTransform="matrix(0.707107 -0.707107 -0.707107 -0.707107 -98.66468 -269.336985)" gradientUnits="userSpaceOnUse" x1="-81.088318" x2="-150.438919" y1="-316.567841" y2="-385.918427">
        <stop offset="0" stop-color="#c061cb"/>
        <stop offset="1" stop-color="#ffbe6f"/>
    </linearGradient>
    <path d="m 69.867188 122.164062 l 50.207031 -50.203124 c 1.660156 -1.664063 2.574219 -3.84375 2.453125 -6.007813 l -0.140625 -6.054687 l -52.519531 -49.957032 c -3.351563 -3.191406 -8.394532 -3.121094 -11.8125 0 l -52.550782 49.996094 l -0.042968 6.148438 c -0.011719 2.125 0.761718 4.246093 2.390624 5.875 l 50.203126 50.203124 c 3.273437 3.273438 8.542968 3.273438 11.8125 0 z m 0 0" fill="url(#a)"/>
    <path d="m 70.671875 116.511719 l 50.097656 -50.097657 c 3.253907 -3.253906 3.253907 -8.53125 0 -11.789062 l -50.097656 -50.097656 c -3.257813 -3.253906 -8.535156 -3.253906 -11.789063 0 l -50.097656 50.097656 c -3.257812 3.257812 -3.257812 8.535156 0 11.789062 l 50.097656 50.097657 c 3.253907 3.257812 8.53125 3.257812 11.789063 0 z m 0 0" fill="url(#b)"/>
    <g fill="#ffffff">
        <path d="m 62.835938 33.445312 c -2.132813 0 -3.863282 1.726563 -3.863282 3.863282 v 1.757812 c -1.832031 0.5 -3.605468 1.242188 -5.253906 2.199219 l -1.257812 -1.257813 c -1.515626 -1.515624 -3.957032 -1.515624 -5.472657 0 l -2.726562 2.742188 c -1.515625 1.511719 -1.515625 3.953125 0 5.46875 l 1.242187 1.242188 c -0.953125 1.652343 -1.679687 3.421874 -2.179687 5.257812 h -1.757813 c -2.136718 0 -3.863281 1.726562 -3.863281 3.863281 v 3.878907 c 0 2.132812 1.726563 3.863281 3.863281 3.863281 h 1.742188 c 0.515625 1.832031 1.242187 3.605469 2.195312 5.253906 l -1.242187 1.242187 c -1.515625 1.515626 -1.515625 3.957032 0 5.472657 l 2.726562 2.742187 c 1.515625 1.515625 3.957031 1.515625 5.472657 0 l 1.242187 -1.242187 c 1.664063 0.9375 3.421875 1.679687 5.269531 2.164062 v 1.773438 c 0 2.136719 1.730469 3.863281 3.863282 3.863281 h 3.863281 c 2.152343 0 3.878906 -1.726562 3.878906 -3.863281 v -1.757813 c 1.835937 -0.5 3.605469 -1.242187 5.257813 -2.195312 l 1.242187 1.257812 c 1.515625 1.515625 3.957031 1.515625 5.46875 0 l 2.742187 -2.742187 c 1.515626 -1.515625 1.515626 -3.957031 0 -5.472657 l -1.242187 -1.242187 c 0.941406 -1.648437 1.683594 -3.421875 2.167969 -5.253906 h 1.757812 c 2.152344 0 3.878906 -1.730469 3.878906 -3.863281 v -3.878907 c 0 -2.136719 -1.726562 -3.863281 -3.878906 -3.863281 h -1.742187 c -0.5 -1.835938 -1.242188 -3.605469 -2.199219 -5.257812 l 1.257812 -1.242188 c 1.515626 -1.515625 1.515626 -3.957031 0 -5.46875 l -2.742187 -2.742188 c -1.511719 -1.515624 -3.953125 -1.515624 -5.46875 0 l -1.242187 1.242188 c -1.652344 -0.941406 -3.421876 -1.667969 -5.257813 -2.167969 v -1.773437 c 0 -2.136719 -1.726563 -3.863282 -3.878906 -3.863282 z m 2 15.425782 c 6.441406 0 11.636718 5.210937 11.636718 11.632812 c 0 6.425782 -5.195312 11.636719 -11.636718 11.636719 c -6.421876 0 -11.632813 -5.210937 -11.632813 -11.636719 c 0 -6.421875 5.210937 -11.632812 11.632813 -11.632812 z m 0 0"/>
        <path d="m 65.019531 68.777344 c 2.546875 0 4.71875 -0.765625 6.53125 -2.296875 v -7.4375 h -7.21875 v 3.375 h 3.40625 v 4.296875 l 0.59375 -2.328125 c -0.53125 0.578125 -1.546875 0.921875 -2.8125 0.921875 c -2.890625 0 -4.703125 -1.875 -4.703125 -4.921875 c 0 -2.984375 1.734375 -4.578125 5 -4.578125 c 1.359375 0 2.953125 0.25 4.015625 0.609375 l 1.109375 -3.140625 c -1.359375 -0.640625 -3.1875 -1.015625 -5.015625 -1.015625 c -5.6875 0 -9.3125 3.421875 -9.3125 8.4375 c 0 4.84375 3.375 8.078125 8.40625 8.078125 z m -9.265625 -22.964844"/>
    </g>
</svg>
