<?xml version="1.0" encoding="UTF-8" standalone="no"?>
<svg
   xmlns:dc="http://purl.org/dc/elements/1.1/"
   xmlns:cc="http://creativecommons.org/ns#"
   xmlns:rdf="http://www.w3.org/1999/02/22-rdf-syntax-ns#"
   xmlns:svg="http://www.w3.org/2000/svg"
   xmlns="http://www.w3.org/2000/svg"
   xmlns:xlink="http://www.w3.org/1999/xlink"
   xmlns:sodipodi="http://sodipodi.sourceforge.net/DTD/sodipodi-0.dtd"
   xmlns:inkscape="http://www.inkscape.org/namespaces/inkscape"
   width="16"
   height="16"
   viewBox="0 0 4.2333332 4.2333335"
   version="1.1"
   id="svg8"
   inkscape:version="1.0.2 (e86c870879, 2021-01-15)"
   sodipodi:docname="favicon.svg"
   inkscape:export-filename="/home/dave/Pictures/seadve logo.png"
   inkscape:export-xdpi="96"
   inkscape:export-ydpi="96">
  <defs
     id="defs2">
    <linearGradient
       inkscape:collect="always"
       id="linearGradient941">
      <stop
         style="stop-color:#015eea;stop-opacity:1"
         offset="0"
         id="stop937" />
      <stop
         style="stop-color:#09dcfd;stop-opacity:1"
         offset="1"
         id="stop939" />
    </linearGradient>
    <linearGradient
       inkscape:collect="always"
       id="linearGradient933">
      <stop
         style="stop-color:#0047e6;stop-opacity:1"
         offset="0"
         id="stop929" />
      <stop
         style="stop-color:#0ae1fe;stop-opacity:1"
         offset="1"
         id="stop931" />
    </linearGradient>
    <linearGradient
       inkscape:collect="always"
       id="linearGradient925">
      <stop
         style="stop-color:#0159e7;stop-opacity:1"
         offset="0"
         id="stop921" />
      <stop
         style="stop-color:#09e6fe;stop-opacity:1"
         offset="1"
         id="stop923" />
    </linearGradient>
    <linearGradient
       inkscape:collect="always"
       id="linearGradient917">
      <stop
         style="stop-color:#0156e7;stop-opacity:1"
         offset="0"
         id="stop913" />
      <stop
         style="stop-color:#07c8f9;stop-opacity:1"
         offset="1"
         id="stop915" />
    </linearGradient>
    <linearGradient
       inkscape:collect="always"
       id="linearGradient1714">
      <stop
         style="stop-color:#0048e4;stop-opacity:1"
         offset="0"
         id="stop1710" />
      <stop
         style="stop-color:#09e0fd;stop-opacity:1"
         offset="1"
         id="stop1712" />
    </linearGradient>
    <linearGradient
       inkscape:collect="always"
       id="linearGradient951">
      <stop
         style="stop-color:#1a5fb4;stop-opacity:1"
         offset="0"
         id="stop947" />
      <stop
         style="stop-color:#09e6fe;stop-opacity:1"
         offset="1"
         id="stop949" />
    </linearGradient>
    <linearGradient
       inkscape:collect="always"
       id="linearGradient1138">
      <stop
         style="stop-color:#1a5fb4;stop-opacity:1"
         offset="0"
         id="stop1134" />
      <stop
         style="stop-color:#09dcfd;stop-opacity:1"
         offset="1"
         id="stop1136" />
    </linearGradient>
    <linearGradient
       inkscape:collect="always"
       id="linearGradient1130">
      <stop
         style="stop-color:#1a5fb4;stop-opacity:1"
         offset="0"
         id="stop1126" />
      <stop
         style="stop-color:#0ae1fe;stop-opacity:1"
         offset="1"
         id="stop1128" />
    </linearGradient>
    <linearGradient
       inkscape:collect="always"
       id="linearGradient1037">
      <stop
         style="stop-color:#1a5fb4;stop-opacity:1"
         offset="0"
         id="stop1033" />
      <stop
         style="stop-color:#99c1f1;stop-opacity:1"
         offset="1"
         id="stop1035" />
    </linearGradient>
    <linearGradient
       id="linearGradient1031"
       inkscape:collect="always">
      <stop
         id="stop1027"
         offset="0"
         style="stop-color:#f6d32d;stop-opacity:1" />
      <stop
         id="stop1029"
         offset="1"
         style="stop-color:#ff7900;stop-opacity:1" />
    </linearGradient>
    <linearGradient
       inkscape:collect="always"
       id="linearGradient997">
      <stop
         style="stop-color:#f6d32d;stop-opacity:1"
         offset="0"
         id="stop993" />
      <stop
         style="stop-color:#ff7900;stop-opacity:1"
         offset="1"
         id="stop995" />
    </linearGradient>
    <linearGradient
       inkscape:collect="always"
       xlink:href="#linearGradient1714"
       id="linearGradient1281"
       gradientUnits="userSpaceOnUse"
       gradientTransform="matrix(0.00634084,0,0,0.00634084,-1.8486129,9.0635914)"
       x1="822.12701"
       y1="623.81396"
       x2="605.17688"
       y2="633.74011" />
    <linearGradient
       inkscape:collect="always"
       xlink:href="#linearGradient951"
       id="linearGradient1283"
       gradientUnits="userSpaceOnUse"
       gradientTransform="matrix(0.00634084,0,0,0.00634084,-1.8486123,9.0635965)"
       x1="774.29016"
       y1="812.52429"
       x2="514.67273"
       y2="647.65472" />
    <linearGradient
       inkscape:collect="always"
       xlink:href="#linearGradient1130"
       id="linearGradient1285"
       gradientUnits="userSpaceOnUse"
       gradientTransform="matrix(0.00634084,0,0,0.00634084,-1.8486128,9.0635965)"
       x1="864.29529"
       y1="854.60272"
       x2="395.47473"
       y2="564.8222" />
    <linearGradient
       inkscape:collect="always"
       xlink:href="#linearGradient1138"
       id="linearGradient1287"
       gradientUnits="userSpaceOnUse"
       gradientTransform="matrix(0.00634084,0,0,0.00634084,-1.8486128,9.0635965)"
       x1="794.79785"
       y1="808.47327"
       x2="451.53821"
       y2="841.09894" />
    <linearGradient
       inkscape:collect="always"
       xlink:href="#linearGradient1037"
       id="linearGradient1289"
       gradientUnits="userSpaceOnUse"
       gradientTransform="matrix(0.00634084,0,0,0.00634084,-1.8486128,9.0635965)"
       x1="882.672"
       y1="717.17664"
       x2="682.8631"
       y2="787.05573" />
    <linearGradient
       inkscape:collect="always"
       xlink:href="#linearGradient1031"
       id="linearGradient1291"
       gradientUnits="userSpaceOnUse"
       gradientTransform="matrix(0.00634084,0,0,0.00634084,-1.8486139,9.0635965)"
       x1="779.83783"
       y1="494.11157"
       x2="839.94183"
       y2="575.42883" />
    <linearGradient
       inkscape:collect="always"
       xlink:href="#linearGradient997"
       id="linearGradient1293"
       gradientUnits="userSpaceOnUse"
       gradientTransform="matrix(0.00634084,0,0,0.00634084,-1.8486128,9.0635965)"
       x1="698.01544"
       y1="480.97955"
       x2="814.18292"
       y2="583.51001" />
    <linearGradient
       inkscape:collect="always"
       xlink:href="#linearGradient917"
       id="linearGradient1716"
       gradientUnits="userSpaceOnUse"
       gradientTransform="matrix(0.00634084,0,0,0.00634084,-1.8486128,9.0635965)"
       x1="802.43164"
       y1="727.83984"
       x2="669.34961"
       y2="785.25403" />
    <linearGradient
       inkscape:collect="always"
       xlink:href="#linearGradient925"
       id="linearGradient919"
       gradientUnits="userSpaceOnUse"
       gradientTransform="matrix(0.00634084,0,0,0.00634084,-1.8486123,9.0635965)"
       x1="695.23822"
       y1="783.03906"
       x2="514.67273"
       y2="647.65472" />
    <linearGradient
       inkscape:collect="always"
       xlink:href="#linearGradient933"
       id="linearGradient927"
       gradientUnits="userSpaceOnUse"
       gradientTransform="matrix(0.00634084,0,0,0.00634084,-1.8486128,9.0635965)"
       x1="773.14508"
       y1="832.58899"
       x2="348.21542"
       y2="553.42609" />
    <linearGradient
       inkscape:collect="always"
       xlink:href="#linearGradient941"
       id="linearGradient935"
       gradientUnits="userSpaceOnUse"
       gradientTransform="matrix(0.00634084,0,0,0.00634084,-1.8486128,9.0635965)"
       x1="726.86523"
       y1="819.22852"
       x2="451.53821"
       y2="841.09894" />
    <linearGradient
       inkscape:collect="always"
       xlink:href="#linearGradient1037"
       id="linearGradient943"
       gradientUnits="userSpaceOnUse"
       gradientTransform="matrix(0.00634084,0,0,0.00634084,-1.8486128,9.0635965)"
       x1="882.672"
       y1="717.17664"
       x2="682.8631"
       y2="787.05573" />
    <linearGradient
       inkscape:collect="always"
       xlink:href="#linearGradient997"
       id="linearGradient945"
       gradientUnits="userSpaceOnUse"
       gradientTransform="matrix(0.00634084,0,0,0.00634084,-1.8486128,9.0635965)"
       x1="698.01544"
       y1="480.97955"
       x2="814.18292"
       y2="583.51001" />
    <linearGradient
       inkscape:collect="always"
       xlink:href="#linearGradient1031"
       id="linearGradient947"
       gradientUnits="userSpaceOnUse"
       gradientTransform="matrix(0.00634084,0,0,0.00634084,-1.8486139,9.0635965)"
       x1="779.83783"
       y1="494.11157"
       x2="839.94183"
       y2="575.42883" />
    <linearGradient
       inkscape:collect="always"
       xlink:href="#linearGradient997"
       id="linearGradient949"
       gradientUnits="userSpaceOnUse"
       gradientTransform="matrix(0.00634084,0,0,0.00634084,-1.8486128,9.0635965)"
       x1="698.01544"
       y1="480.97955"
       x2="814.18292"
       y2="583.51001" />
    <linearGradient
       inkscape:collect="always"
       xlink:href="#linearGradient1031"
       id="linearGradient952"
       gradientUnits="userSpaceOnUse"
       gradientTransform="matrix(0.00634084,0,0,0.00634084,-1.8486139,9.0635965)"
       x1="779.83783"
       y1="494.11157"
       x2="839.94183"
       y2="575.42883" />
  </defs>
  <sodipodi:namedview
     id="base"
     pagecolor="#ffffff"
     bordercolor="#666666"
     borderopacity="1.0"
     inkscape:pageopacity="0.0"
     inkscape:pageshadow="2"
     inkscape:zoom="31.678383"
     inkscape:cx="7.4994876"
     inkscape:cy="8.2272992"
     inkscape:document-units="px"
     inkscape:current-layer="layer1"
     showgrid="false"
     units="px"
     inkscape:window-width="1680"
     inkscape:window-height="981"
     inkscape:window-x="0"
     inkscape:window-y="0"
     inkscape:window-maximized="1"
     inkscape:snap-intersection-paths="true"
     inkscape:object-nodes="true"
     inkscape:snap-smooth-nodes="true"
     inkscape:snap-global="false"
     borderlayer="true"
     inkscape:document-rotation="0"
     inkscape:snap-bbox="true"
     inkscape:bbox-paths="true"
     inkscape:bbox-nodes="true"
     inkscape:snap-bbox-edge-midpoints="true"
     inkscape:snap-bbox-midpoints="true"
     inkscape:object-paths="true"
     inkscape:snap-midpoints="true"
     inkscape:snap-center="true"
     inkscape:snap-object-midpoints="true"
     inkscape:snap-text-baseline="true"
     inkscape:snap-page="true" />
  <metadata
     id="metadata5">
    <rdf:RDF>
      <cc:Work
         rdf:about="">
        <dc:format>image/svg+xml</dc:format>
        <dc:type
           rdf:resource="http://purl.org/dc/dcmitype/StillImage" />
        <dc:title />
      </cc:Work>
    </rdf:RDF>
  </metadata>
  <g
     inkscape:groupmode="layer"
     id="layer2"
     inkscape:label="background" />
  <g
     inkscape:label="circles"
     inkscape:groupmode="layer"
     id="layer1"
     transform="translate(0,-11.249992)"
     style="display:inline;opacity:1">
    <circle
       style="fill:#000000;stroke:none;stroke-width:0.710811;stroke-linecap:round;stroke-linejoin:round;paint-order:stroke markers fill"
       id="path905"
       cx="2.1166666"
       cy="13.366658"
       r="2.1166666" />
    <path
       style="fill:#ffffff;fill-opacity:1;stroke:none;stroke-width:0.00958605;stroke-linecap:butt;stroke-linejoin:bevel;stroke-miterlimit:4;stroke-dasharray:none;stroke-dashoffset:0;stroke-opacity:1;paint-order:normal"
       d="m 2.5604952,12.342286 a 0.1931682,0.19316829 0 0 0 -0.013661,4.83e-4 0.1931682,0.19316829 0 0 0 -0.019171,0.0024 0.1931682,0.19316829 0 0 0 -0.018837,0.0043 0.1931682,0.19316829 0 0 0 -0.018328,0.0061 0.1931682,0.19316829 0 0 0 -0.017622,0.0078 0.1931682,0.19316829 0 0 0 -0.016742,0.0097 0.1931682,0.19316829 0 0 0 -0.015717,0.01121 0.1931682,0.19316829 0 0 0 -0.014503,0.01275 0.1931682,0.19316829 0 0 0 -0.013164,0.01413 0.1931682,0.19316829 0 0 0 -0.011683,0.01536 0.1931682,0.19316829 0 0 0 -0.010099,0.01648 0.1931682,0.19316829 0 0 0 -0.00839,0.01738 0.1931682,0.19316829 0 0 0 -0.00662,0.01814 0.1931682,0.19316829 0 0 0 -0.00478,0.01871 0.1931682,0.19316829 0 0 0 -0.00289,0.01909 0.1931682,0.19316829 0 0 0 -9.534e-4,0.0193 0.1931682,0.19316829 0 0 0 4.831e-4,0.01367 0.1931682,0.19316829 0 0 0 0.00232,0.01915 0.1931682,0.19316829 0 0 0 0.00424,0.01883 0.1931682,0.19316829 0 0 0 0.0061,0.01831 0.1931682,0.19316829 0 0 0 0.00788,0.01763 0.1931682,0.19316829 0 0 0 0.00961,0.01675 0.1931682,0.19316829 0 0 0 0.011231,0.0157 0.1931682,0.19316829 0 0 0 0.012739,0.0145 0.1931682,0.19316829 0 0 0 0.014131,0.01316 0.1931682,0.19316829 0 0 0 0.01537,0.01171 0.1931682,0.19316829 0 0 0 0.016459,0.01005 0.1931682,0.19316829 0 0 0 0.017388,0.0084 0.1931682,0.19316829 0 0 0 0.018144,0.0066 0.1931682,0.19316829 0 0 0 0.018701,0.0048 0.1931682,0.19316829 0 0 0 0.019096,0.0028 0.1931682,0.19316829 0 0 0 0.019283,10e-4 0.1931682,0.19316829 0 0 0 0.01366,-4.82e-4 0.1931682,0.19316829 0 0 0 0.019171,-0.0024 0.1931682,0.19316829 0 0 0 0.018837,-0.0043 0.1931682,0.19316829 0 0 0 0.018328,-0.0061 0.1931682,0.19316829 0 0 0 0.017623,-0.0078 0.1931682,0.19316829 0 0 0 0.016756,-0.0097 0.1931682,0.19316829 0 0 0 0.015704,-0.01121 0.1931682,0.19316829 0 0 0 0.014502,-0.01274 0.1931682,0.19316829 0 0 0 0.013164,-0.01413 0.1931682,0.19316829 0 0 0 0.011683,-0.01536 0.1931682,0.19316829 0 0 0 0.010099,-0.01648 0.1931682,0.19316829 0 0 0 0.00839,-0.01738 0.1931682,0.19316829 0 0 0 0.00662,-0.01815 0.1931682,0.19316829 0 0 0 0.00478,-0.01871 0.1931682,0.19316829 0 0 0 0.00289,-0.01909 0.1931682,0.19316829 0 0 0 9.705e-4,-0.01928 0.1931682,0.19316829 0 0 0 -4.831e-4,-0.01367 0.1931682,0.19316829 0 0 0 -0.00232,-0.01915 0.1931682,0.19316829 0 0 0 -0.00424,-0.01883 0.1931682,0.19316829 0 0 0 -0.00608,-0.01832 0.1931682,0.19316829 0 0 0 -0.0079,-0.01762 0.1931682,0.19316829 0 0 0 -0.00961,-0.01675 0.1931682,0.19316829 0 0 0 -0.011231,-0.0157 0.1931682,0.19316829 0 0 0 -0.012739,-0.01451 0.1931682,0.19316829 0 0 0 -0.014131,-0.01316 0.1931682,0.19316829 0 0 0 -0.015368,-0.01171 0.1931682,0.19316829 0 0 0 -0.016459,-0.01004 0.1931682,0.19316829 0 0 0 -0.017388,-0.0084 0.1931682,0.19316829 0 0 0 -0.018132,-0.0066 0.1931682,0.19316829 0 0 0 -0.018712,-0.0048 0.1931682,0.19316829 0 0 0 -0.019098,-0.0028 0.1931682,0.19316829 0 0 0 -0.019282,-10e-4 z"
       id="path986"
       inkscape:connector-curvature="0" />
    <path
       style="fill:#ff00ff;fill-opacity:0.695;stroke:none;stroke-width:0.00958605;stroke-linecap:butt;stroke-linejoin:bevel;stroke-miterlimit:4;stroke-dasharray:none;stroke-dashoffset:0;stroke-opacity:1;paint-order:normal"
       d="m 3.3614737,13.076932 a 0.9658413,0.9658413 0 0 0 -0.00242,-0.06832 0.9658413,0.9658413 0 0 0 -1.22e-5,-1.19e-4 1.5453462,1.5453459 0 0 1 0.00242,0.0684 z"
       id="path970"
       inkscape:connector-curvature="0" />
    <path
       inkscape:connector-curvature="0"
       id="path860"
       d="m 3.3614737,13.076932 a 0.9658413,0.9658413 0 0 0 -0.00242,-0.06832 0.9658413,0.9658413 0 0 0 -1.22e-5,-1.19e-4 1.5453462,1.5453459 0 0 1 0.00242,0.0684 z"
       style="fill:#ff00ff;fill-opacity:0.695;stroke:none;stroke-width:0.00958605;stroke-linecap:butt;stroke-linejoin:bevel;stroke-miterlimit:4;stroke-dasharray:none;stroke-dashoffset:0;stroke-opacity:1;paint-order:normal" />
    <path
       inkscape:connector-curvature="0"
       id="path862"
       d="m 2.5630462,14.027998 a 0.9658413,0.9658413 0 0 0 0.065887,0.0099 0.9658413,0.9658413 0 0 0 0.096426,0.0048 0.9658413,0.9658413 0 0 0 0.068325,-0.0025 0.9658413,0.9658413 0 0 0 0.095842,-0.01159 0.9658413,0.9658413 0 0 0 0.094196,-0.02116 0.9658413,0.9658413 0 0 0 0.085206,-0.02831 1.5453462,1.5453459 0 0 0 0.022627,-0.02977 1.5453462,1.5453459 0 0 0 0.080747,-0.131697 1.5453462,1.5453459 0 0 0 0.067186,-0.139089 1.5453462,1.5453459 0 0 0 0.052967,-0.145111 1.5453462,1.5453459 0 0 0 0.038219,-0.149664 1.5453462,1.5453459 0 0 0 0.023084,-0.152739 1.5453462,1.5453459 0 0 0 0.00772,-0.154272 0.9658413,0.9658413 0 0 1 -0.00483,0.09642 0.9658413,0.9658413 0 0 1 -0.014427,0.09546 0.9658413,0.9658413 0 0 1 -0.023877,0.09354 0.9658413,0.9658413 0 0 1 -0.033104,0.09069 0.9658413,0.9658413 0 0 1 -0.041995,0.08695 0.9658413,0.9658413 0 0 1 -0.050466,0.0823 0.9658413,0.9658413 0 0 1 -0.058429,0.07685 0.9658413,0.9658413 0 0 1 -0.0658,0.07063 0.9658413,0.9658413 0 0 1 -0.072536,0.06372 0.9658413,0.9658413 0 0 1 -0.078531,0.05615 0.9658413,0.9658413 0 0 1 -0.083744,0.04804 0.9658413,0.9658413 0 0 1 -0.088129,0.03943 0.9658413,0.9658413 0 0 1 -0.091609,0.03043 0.9658413,0.9658413 0 0 1 -0.090952,0.02042 z"
       style="fill:url(#linearGradient943);fill-opacity:1;stroke:none;stroke-width:0.00958571;stroke-linecap:butt;stroke-linejoin:bevel;stroke-miterlimit:4;stroke-dasharray:none;stroke-dashoffset:0;stroke-opacity:1;paint-order:normal" />
    <path
       inkscape:connector-curvature="0"
       id="path864"
       d="m 0.66824644,12.627153 a 1.5453462,1.5453459 0 0 0 -0.005512,0.03645 1.5453462,1.5453459 0 0 0 -0.007715,0.154274 1.5453462,1.5453459 0 0 0 0.003877,0.109315 1.5453462,1.5453459 0 0 0 0.0186146,0.153344 1.5453462,1.5453459 0 0 0 0.0338211,0.150718 1.5453462,1.5453459 0 0 0 0.0487082,0.146584 1.5453462,1.5453459 0 0 0 0.0630994,0.140997 1.5453462,1.5453459 0 0 0 0.0768582,0.134 1.5453462,1.5453459 0 0 0 0.0898621,0.125648 1.5453462,1.5453459 0 0 0 0.10194896,0.116052 1.5453462,1.5453459 0 0 0 0.1130209,0.105297 1.5453462,1.5453459 0 0 0 0.1229657,0.09347 1.5453462,1.5453459 0 0 0 0.029227,0.01791 1.5453462,1.5453459 0 0 0 0.1024693,0.06283 1.5453462,1.5453459 0 0 0 0.13909,0.06718 1.5453462,1.5453459 0 0 0 0.145109,0.05297 1.5453462,1.5453459 0 0 0 0.1496663,0.03821 1.5453462,1.5453459 0 0 0 0.1527375,0.02309 1.5453462,1.5453459 0 0 0 0.1542736,0.0077 1.5453462,1.5453459 0 0 0 0.1093179,-0.0039 1.5453462,1.5453459 0 0 0 0.153345,-0.01861 1.5453462,1.5453459 0 0 0 0.1507186,-0.03382 1.5453462,1.5453459 0 0 0 0.1465828,-0.0487 1.5453462,1.5453459 0 0 0 0.1012921,-0.04532 1.5453462,1.5453459 0 0 0 0.031159,-0.02737 1.5453462,1.5453459 0 0 0 0.1052927,-0.113039 1.5453462,1.5453459 0 0 0 0.070851,-0.0932 0.9658413,0.9658413 0 0 1 -0.085205,0.02831 0.9658413,0.9658413 0 0 1 -0.094196,0.02115 0.9658413,0.9658413 0 0 1 -0.095842,0.01159 0.9658413,0.9658413 0 0 1 -0.068325,0.0025 0.9658413,0.9658413 0 0 1 -0.096426,-0.0048 0.9658413,0.9658413 0 0 1 -0.065887,-0.0099 0.9658413,0.9658413 0 0 1 -0.00326,7e-4 0.9658413,0.9658413 0 0 1 -0.095831,0.01159 0.9658413,0.9658413 0 0 1 -0.068325,0.0025 0.9658413,0.9658413 0 0 1 -0.096425,-0.0048 0.9658413,0.9658413 0 0 1 -0.09546,-0.01444 0.9658413,0.9658413 0 0 1 -0.09354,-0.0239 0.9658413,0.9658413 0 0 1 -0.090692,-0.0331 0.9658413,0.9658413 0 0 1 -0.086938,-0.04199 0.9658413,0.9658413 0 0 1 -0.082294,-0.05044 0.9658413,0.9658413 0 0 1 -0.076859,-0.05843 0.9658413,0.9658413 0 0 1 -0.070642,-0.06581 0.9658413,0.9658413 0 0 1 -0.063718,-0.07254 0.9658413,0.9658413 0 0 1 -0.00267,-0.0037 0.9658413,0.9658413 0 0 1 -0.0535,-0.07481 0.9658413,0.9658413 0 0 1 -0.04804,-0.08375 0.9658413,0.9658413 0 0 1 -0.039433,-0.08811 0.9658413,0.9658413 0 0 1 -0.030441,-0.09162 0.9658413,0.9658413 0 0 1 -0.02114,-0.09419 0.9658413,0.9658413 0 0 1 -0.011644,-0.09584 0.9658413,0.9658413 0 0 1 -0.00242,-0.06833 0.9658413,0.9658413 0 0 1 0.00176,-0.03539 1.5453462,1.5453459 0 0 1 -0.1317326,-0.03352 1.5453462,1.5453459 0 0 1 -0.1451091,-0.05297 1.5453462,1.5453459 0 0 1 -0.13909,-0.06719 1.5453462,1.5453459 0 0 1 -0.13169643,-0.08075 1.5453462,1.5453459 0 0 1 -0.12296579,-0.09347 1.5453462,1.5453459 0 0 1 -0.0927228,-0.08639 z"
       style="fill:url(#linearGradient1285);fill-opacity:1;stroke:none;stroke-width:0.00958571;stroke-linecap:butt;stroke-linejoin:bevel;stroke-miterlimit:4;stroke-dasharray:none;stroke-dashoffset:0;stroke-opacity:1;paint-order:normal" />
    <path
       inkscape:connector-curvature="0"
       id="path866"
       d="m 1.0141449,14.395644 a 1.5453462,1.5453459 0 0 0 0.061105,0.03746 1.5453462,1.5453459 0 0 0 0.13909,0.06718 1.5453462,1.5453459 0 0 0 0.1451091,0.05297 1.5453462,1.5453459 0 0 0 0.1496662,0.03822 1.5453462,1.5453459 0 0 0 0.1527376,0.02309 1.5453462,1.5453459 0 0 0 0.1542735,0.0077 1.5453462,1.5453459 0 0 0 0.1093178,-0.0039 1.5453462,1.5453459 0 0 0 0.1533446,-0.01864 1.5453462,1.5453459 0 0 0 0.150719,-0.03382 1.5453462,1.5453459 0 0 0 0.1465828,-0.0487 1.5453462,1.5453459 0 0 0 0.1409969,-0.06311 1.5453462,1.5453459 0 0 0 0.1339883,-0.07686 1.5453462,1.5453459 0 0 0 0.1256525,-0.08986 1.5453462,1.5453459 0 0 0 0.084895,-0.07457 1.5453462,1.5453459 0 0 1 -0.1012921,0.04532 1.5453462,1.5453459 0 0 1 -0.1465829,0.0487 1.5453462,1.5453459 0 0 1 -0.1507184,0.03382 1.5453462,1.5453459 0 0 1 -0.1533451,0.01861 1.5453462,1.5453459 0 0 1 -0.1093178,0.0039 1.5453462,1.5453459 0 0 1 -0.1542735,-0.0077 1.5453462,1.5453459 0 0 1 -0.1527376,-0.02309 1.5453462,1.5453459 0 0 1 -0.1496663,-0.03821 1.5453462,1.5453459 0 0 1 -0.1451089,-0.05297 1.5453462,1.5453459 0 0 1 -0.1390904,-0.06718 1.5453462,1.5453459 0 0 1 -0.1024693,-0.06282 1.5453462,1.5453459 0 0 1 -0.069204,0.07427 1.5453462,1.5453459 0 0 1 -0.1160555,0.101935 1.5453462,1.5453459 0 0 1 -0.1256525,0.08986 1.5453462,1.5453459 0 0 1 -0.031965,0.01834 z"
       style="fill:url(#linearGradient1287);fill-opacity:1;stroke:none;stroke-width:0.00958571;stroke-linecap:butt;stroke-linejoin:bevel;stroke-miterlimit:4;stroke-dasharray:none;stroke-dashoffset:0;stroke-opacity:1;paint-order:normal" />
    <path
       inkscape:connector-curvature="0"
       id="path868"
       d="m 1.4315635,13.041551 a 0.9658413,0.9658413 0 0 0 -0.00176,0.03539 0.9658413,0.9658413 0 0 0 0.00242,0.06833 0.9658413,0.9658413 0 0 0 0.011644,0.09584 0.9658413,0.9658413 0 0 0 0.02114,0.09419 0.9658413,0.9658413 0 0 0 0.03044,0.09162 0.9658413,0.9658413 0 0 0 0.039433,0.08811 0.9658413,0.9658413 0 0 0 0.04804,0.08375 0.9658413,0.9658413 0 0 0 0.0535,0.07479 0.9658413,0.9658413 0 0 0 0.00267,0.0037 0.9658413,0.9658413 0 0 0 0.063717,0.07254 0.9658413,0.9658413 0 0 0 0.070642,0.06581 0.9658413,0.9658413 0 0 0 0.076859,0.05843 0.9658413,0.9658413 0 0 0 0.082294,0.05046 0.9658413,0.9658413 0 0 0 0.086938,0.04199 0.9658413,0.9658413 0 0 0 0.090692,0.03311 0.9658413,0.9658413 0 0 0 0.093541,0.0239 0.9658413,0.9658413 0 0 0 0.09546,0.01444 0.9658413,0.9658413 0 0 0 0.096426,0.0048 0.9658413,0.9658413 0 0 0 0.068325,-0.0025 0.9658413,0.9658413 0 0 0 0.095831,-0.0116 0.9658413,0.9658413 0 0 0 0.00326,-7e-4 0.9658413,0.9658413 0 0 1 -0.029574,-0.0045 0.9658413,0.9658413 0 0 1 -0.093541,-0.0239 0.9658413,0.9658413 0 0 1 -0.090692,-0.03311 0.9658413,0.9658413 0 0 1 -0.086927,-0.04199 0.9658413,0.9658413 0 0 1 -0.082307,-0.05045 0.9658413,0.9658413 0 0 1 -0.076859,-0.05843 0.9658413,0.9658413 0 0 1 -0.070641,-0.06581 0.9658413,0.9658413 0 0 1 -0.063718,-0.07255 0.9658413,0.9658413 0 0 1 -0.056152,-0.07853 0.9658413,0.9658413 0 0 1 -0.04804,-0.08375 0.9658413,0.9658413 0 0 1 -0.039445,-0.08811 0.9658413,0.9658413 0 0 1 -0.030441,-0.09162 0.9658413,0.9658413 0 0 1 -0.02114,-0.09419 0.9658413,0.9658413 0 0 1 -0.011631,-0.09584 0.9658413,0.9658413 0 0 1 -0.00242,-0.06832 0.9658413,0.9658413 0 0 1 0,-1.21e-4 1.5453462,1.5453459 0 0 1 -0.003,1.21e-4 1.5453462,1.5453459 0 0 1 -0.1542735,-0.0077 1.5453462,1.5453459 0 0 1 -0.1527376,-0.02309 1.5453462,1.5453459 0 0 1 -0.017933,-0.0046 z"
       style="fill:url(#linearGradient1283);fill-opacity:1;stroke:none;stroke-width:0.00958571;stroke-linecap:butt;stroke-linejoin:bevel;stroke-miterlimit:4;stroke-dasharray:none;stroke-dashoffset:0;stroke-opacity:1;paint-order:normal" />
    <path
       inkscape:connector-curvature="0"
       id="path872"
       d="m 2.7253577,12.111093 a 0.9658413,0.9658413 0 0 0 -0.068313,0.0025 0.9658413,0.9658413 0 0 0 -0.095842,0.01159 0.9658413,0.9658413 0 0 0 -0.00326,7.01e-4 0.9658413,0.9658413 0 0 1 0.029575,0.0045 0.9658413,0.9658413 0 0 1 0.093539,0.02388 0.9658413,0.9658413 0 0 1 0.090692,0.03311 0.9658413,0.9658413 0 0 1 0.086927,0.04199 0.9658413,0.9658413 0 0 1 0.082307,0.05047 0.9658413,0.9658413 0 0 1 0.076859,0.05843 0.9658413,0.9658413 0 0 1 0.034701,0.03232 0.9658413,0.9658413 0 0 1 0.035941,0.03347 0.9658413,0.9658413 0 0 1 0.063718,0.07254 0.9658413,0.9658413 0 0 1 0.056164,0.07853 0.9658413,0.9658413 0 0 1 0.048026,0.08375 0.9658413,0.9658413 0 0 1 0.039445,0.08813 0.9658413,0.9658413 0 0 1 0.030441,0.09162 0.9658413,0.9658413 0 0 1 0.02114,0.09419 0.9658413,0.9658413 0 0 1 0.011631,0.09575 1.5453462,1.5453459 0 0 0 -0.00146,-0.04091 1.5453462,1.5453459 0 0 0 -0.018613,-0.153345 1.5453462,1.5453459 0 0 0 -0.033822,-0.150731 1.5453462,1.5453459 0 0 0 -0.048708,-0.146583 1.5453462,1.5453459 0 0 0 -0.063098,-0.140997 1.5453462,1.5453459 0 0 0 -0.070937,-0.123677 1.5453462,1.5453459 0 0 0 -0.00592,-0.01031 1.5453462,1.5453459 0 0 0 -0.047581,-0.06654 0.9658413,0.9658413 0 0 0 -0.058132,-0.02121 0.9658413,0.9658413 0 0 0 -0.093541,-0.02388 0.9658413,0.9658413 0 0 0 -0.09546,-0.01444 0.9658413,0.9658413 0 0 0 -0.096425,-0.0049 z"
       style="fill:url(#linearGradient945);fill-opacity:1;stroke:none;stroke-width:0.00958605;stroke-linecap:butt;stroke-linejoin:bevel;stroke-miterlimit:4;stroke-dasharray:none;stroke-dashoffset:0;stroke-opacity:1;paint-order:normal" />
    <path
       inkscape:connector-curvature="0"
       id="path874"
       d="m 3.0689141,12.175443 a 1.5453462,1.5453459 0 0 1 0.047581,0.06654 1.5453462,1.5453459 0 0 1 0.00592,0.0103 1.5453462,1.5453459 0 0 1 0.070939,0.123676 1.5453462,1.5453459 0 0 1 0.063099,0.140997 1.5453462,1.5453459 0 0 1 0.048708,0.146584 1.5453462,1.5453459 0 0 1 0.033823,0.15073 1.5453462,1.5453459 0 0 1 0.018615,0.153345 1.5453462,1.5453459 0 0 1 0.00146,0.04092 0.9658413,0.9658413 0 0 1 1.21e-5,1.21e-4 0.9658413,0.9658413 0 0 1 0.00242,0.06832 0.57950476,0.57950466 0 0 1 0.00289,-0.05785 0.57950476,0.57950466 0 0 1 0.00866,-0.05727 0.57950476,0.57950466 0 0 1 0.014329,-0.05613 0.57950476,0.57950466 0 0 1 0.019864,-0.05442 0.57950476,0.57950466 0 0 1 0.02519,-0.05215 0.57950476,0.57950466 0 0 1 0.03028,-0.04938 0.57950476,0.57950466 0 0 1 0.035061,-0.04613 0.57950476,0.57950466 0 0 1 0.039482,-0.04238 0.57950476,0.57950466 0 0 1 0.041054,-0.03606 0.9658413,0.9658413 0 0 0 -0.0402,-0.07007 0.9658413,0.9658413 0 0 0 -0.056164,-0.07853 0.9658413,0.9658413 0 0 0 -0.063706,-0.07253 0.9658413,0.9658413 0 0 0 -0.070642,-0.06581 0.9658413,0.9658413 0 0 0 -0.076859,-0.05843 0.9658413,0.9658413 0 0 0 -0.082306,-0.05047 0.9658413,0.9658413 0 0 0 -0.044511,-0.02149 0.9658413,0.9658413 0 0 0 -0.042429,-0.02049 0.9658413,0.9658413 0 0 0 -0.032559,-0.01185 z"
       style="fill:url(#linearGradient947);fill-opacity:1;stroke:none;stroke-width:0.00958605;stroke-linecap:butt;stroke-linejoin:bevel;stroke-miterlimit:4;stroke-dasharray:none;stroke-dashoffset:0;stroke-opacity:1;paint-order:normal" />
    <path
       style="fill:#ffffff;fill-opacity:1;stroke:none;stroke-width:0.00958605;stroke-linecap:butt;stroke-linejoin:bevel;stroke-miterlimit:4;stroke-dasharray:none;stroke-dashoffset:0;stroke-opacity:1;paint-order:normal"
       d="m 2.5604952,12.342286 a 0.1931682,0.19316829 0 0 0 -0.013661,4.83e-4 0.1931682,0.19316829 0 0 0 -0.019171,0.0024 0.1931682,0.19316829 0 0 0 -0.018837,0.0043 0.1931682,0.19316829 0 0 0 -0.018328,0.0061 0.1931682,0.19316829 0 0 0 -0.017622,0.0078 0.1931682,0.19316829 0 0 0 -0.016742,0.0097 0.1931682,0.19316829 0 0 0 -0.015717,0.01121 0.1931682,0.19316829 0 0 0 -0.014503,0.01275 0.1931682,0.19316829 0 0 0 -0.013164,0.01413 0.1931682,0.19316829 0 0 0 -0.011683,0.01536 0.1931682,0.19316829 0 0 0 -0.010099,0.01648 0.1931682,0.19316829 0 0 0 -0.00839,0.01738 0.1931682,0.19316829 0 0 0 -0.00662,0.01814 0.1931682,0.19316829 0 0 0 -0.00478,0.01871 0.1931682,0.19316829 0 0 0 -0.00289,0.01909 0.1931682,0.19316829 0 0 0 -9.534e-4,0.0193 0.1931682,0.19316829 0 0 0 4.831e-4,0.01367 0.1931682,0.19316829 0 0 0 0.00232,0.01915 0.1931682,0.19316829 0 0 0 0.00424,0.01883 0.1931682,0.19316829 0 0 0 0.0061,0.01831 0.1931682,0.19316829 0 0 0 0.00788,0.01763 0.1931682,0.19316829 0 0 0 0.00961,0.01675 0.1931682,0.19316829 0 0 0 0.011231,0.0157 0.1931682,0.19316829 0 0 0 0.012739,0.0145 0.1931682,0.19316829 0 0 0 0.014131,0.01316 0.1931682,0.19316829 0 0 0 0.01537,0.01171 0.1931682,0.19316829 0 0 0 0.016459,0.01005 0.1931682,0.19316829 0 0 0 0.017388,0.0084 0.1931682,0.19316829 0 0 0 0.018144,0.0066 0.1931682,0.19316829 0 0 0 0.018701,0.0048 0.1931682,0.19316829 0 0 0 0.019096,0.0028 0.1931682,0.19316829 0 0 0 0.019283,10e-4 0.1931682,0.19316829 0 0 0 0.01366,-4.82e-4 0.1931682,0.19316829 0 0 0 0.019171,-0.0024 0.1931682,0.19316829 0 0 0 0.018837,-0.0043 0.1931682,0.19316829 0 0 0 0.018328,-0.0061 0.1931682,0.19316829 0 0 0 0.017623,-0.0078 0.1931682,0.19316829 0 0 0 0.016756,-0.0097 0.1931682,0.19316829 0 0 0 0.015704,-0.01121 0.1931682,0.19316829 0 0 0 0.014502,-0.01274 0.1931682,0.19316829 0 0 0 0.013164,-0.01413 0.1931682,0.19316829 0 0 0 0.011683,-0.01536 0.1931682,0.19316829 0 0 0 0.010099,-0.01648 0.1931682,0.19316829 0 0 0 0.00839,-0.01738 0.1931682,0.19316829 0 0 0 0.00662,-0.01815 0.1931682,0.19316829 0 0 0 0.00478,-0.01871 0.1931682,0.19316829 0 0 0 0.00289,-0.01909 0.1931682,0.19316829 0 0 0 9.705e-4,-0.01928 0.1931682,0.19316829 0 0 0 -4.831e-4,-0.01367 0.1931682,0.19316829 0 0 0 -0.00232,-0.01915 0.1931682,0.19316829 0 0 0 -0.00424,-0.01883 0.1931682,0.19316829 0 0 0 -0.00608,-0.01832 0.1931682,0.19316829 0 0 0 -0.0079,-0.01762 0.1931682,0.19316829 0 0 0 -0.00961,-0.01675 0.1931682,0.19316829 0 0 0 -0.011231,-0.0157 0.1931682,0.19316829 0 0 0 -0.012739,-0.01451 0.1931682,0.19316829 0 0 0 -0.014131,-0.01316 0.1931682,0.19316829 0 0 0 -0.015368,-0.01171 0.1931682,0.19316829 0 0 0 -0.016459,-0.01004 0.1931682,0.19316829 0 0 0 -0.017388,-0.0084 0.1931682,0.19316829 0 0 0 -0.018132,-0.0066 0.1931682,0.19316829 0 0 0 -0.018712,-0.0048 0.1931682,0.19316829 0 0 0 -0.019098,-0.0028 0.1931682,0.19316829 0 0 0 -0.019282,-10e-4 z"
       id="path1476"
       inkscape:connector-curvature="0" />
    <path
       style="fill:#ff00ff;fill-opacity:0.695;stroke:none;stroke-width:0.00958605;stroke-linecap:butt;stroke-linejoin:bevel;stroke-miterlimit:4;stroke-dasharray:none;stroke-dashoffset:0;stroke-opacity:1;paint-order:normal"
       d="m 3.3614737,13.076932 a 0.9658413,0.9658413 0 0 0 -0.00242,-0.06832 0.9658413,0.9658413 0 0 0 -1.22e-5,-1.19e-4 1.5453462,1.5453459 0 0 1 0.00242,0.0684 z"
       id="path1478"
       inkscape:connector-curvature="0" />
    <path
       inkscape:connector-curvature="0"
       id="path1480"
       d="m 3.3614737,13.076932 a 0.9658413,0.9658413 0 0 0 -0.00242,-0.06832 0.9658413,0.9658413 0 0 0 -1.22e-5,-1.19e-4 1.5453462,1.5453459 0 0 1 0.00242,0.0684 z"
       style="fill:#ff00ff;fill-opacity:0.695;stroke:none;stroke-width:0.00958605;stroke-linecap:butt;stroke-linejoin:bevel;stroke-miterlimit:4;stroke-dasharray:none;stroke-dashoffset:0;stroke-opacity:1;paint-order:normal" />
    <path
       inkscape:connector-curvature="0"
       id="path1482"
       d="m 2.5630462,14.027998 a 0.9658413,0.9658413 0 0 0 0.065887,0.0099 0.9658413,0.9658413 0 0 0 0.096426,0.0048 0.9658413,0.9658413 0 0 0 0.068325,-0.0025 0.9658413,0.9658413 0 0 0 0.095842,-0.01159 0.9658413,0.9658413 0 0 0 0.094196,-0.02116 0.9658413,0.9658413 0 0 0 0.085206,-0.02831 1.5453462,1.5453459 0 0 0 0.022627,-0.02977 1.5453462,1.5453459 0 0 0 0.080747,-0.131697 1.5453462,1.5453459 0 0 0 0.067186,-0.139089 1.5453462,1.5453459 0 0 0 0.052967,-0.145111 1.5453462,1.5453459 0 0 0 0.038219,-0.149664 1.5453462,1.5453459 0 0 0 0.023084,-0.152739 1.5453462,1.5453459 0 0 0 0.00772,-0.154272 0.9658413,0.9658413 0 0 1 -0.00483,0.09642 0.9658413,0.9658413 0 0 1 -0.014427,0.09546 0.9658413,0.9658413 0 0 1 -0.023877,0.09354 0.9658413,0.9658413 0 0 1 -0.033104,0.09069 0.9658413,0.9658413 0 0 1 -0.041995,0.08695 0.9658413,0.9658413 0 0 1 -0.050466,0.0823 0.9658413,0.9658413 0 0 1 -0.058429,0.07685 0.9658413,0.9658413 0 0 1 -0.0658,0.07063 0.9658413,0.9658413 0 0 1 -0.072536,0.06372 0.9658413,0.9658413 0 0 1 -0.078531,0.05615 0.9658413,0.9658413 0 0 1 -0.083744,0.04804 0.9658413,0.9658413 0 0 1 -0.088129,0.03943 0.9658413,0.9658413 0 0 1 -0.091609,0.03043 0.9658413,0.9658413 0 0 1 -0.090952,0.02042 z"
       style="fill:url(#linearGradient1289);fill-opacity:1;stroke:none;stroke-width:0.00958571;stroke-linecap:butt;stroke-linejoin:bevel;stroke-miterlimit:4;stroke-dasharray:none;stroke-dashoffset:0;stroke-opacity:1;paint-order:normal" />
    <path
       inkscape:connector-curvature="0"
       id="path1484"
       d="m 0.66824644,12.627153 a 1.5453462,1.5453459 0 0 0 -0.005512,0.03645 1.5453462,1.5453459 0 0 0 -0.007715,0.154274 1.5453462,1.5453459 0 0 0 0.003877,0.109315 1.5453462,1.5453459 0 0 0 0.0186146,0.153344 1.5453462,1.5453459 0 0 0 0.0338211,0.150718 1.5453462,1.5453459 0 0 0 0.0487082,0.146584 1.5453462,1.5453459 0 0 0 0.0630994,0.140997 1.5453462,1.5453459 0 0 0 0.0768582,0.134 1.5453462,1.5453459 0 0 0 0.0898621,0.125648 1.5453462,1.5453459 0 0 0 0.10194896,0.116052 1.5453462,1.5453459 0 0 0 0.1130209,0.105297 1.5453462,1.5453459 0 0 0 0.1229657,0.09347 1.5453462,1.5453459 0 0 0 0.029227,0.01791 1.5453462,1.5453459 0 0 0 0.1024693,0.06283 1.5453462,1.5453459 0 0 0 0.13909,0.06718 1.5453462,1.5453459 0 0 0 0.145109,0.05297 1.5453462,1.5453459 0 0 0 0.1496663,0.03821 1.5453462,1.5453459 0 0 0 0.1527375,0.02309 1.5453462,1.5453459 0 0 0 0.1542736,0.0077 1.5453462,1.5453459 0 0 0 0.1093179,-0.0039 1.5453462,1.5453459 0 0 0 0.153345,-0.01861 1.5453462,1.5453459 0 0 0 0.1507186,-0.03382 1.5453462,1.5453459 0 0 0 0.1465828,-0.0487 1.5453462,1.5453459 0 0 0 0.1012921,-0.04532 1.5453462,1.5453459 0 0 0 0.031159,-0.02737 1.5453462,1.5453459 0 0 0 0.1052927,-0.113039 1.5453462,1.5453459 0 0 0 0.070851,-0.0932 0.9658413,0.9658413 0 0 1 -0.085205,0.02831 0.9658413,0.9658413 0 0 1 -0.094196,0.02115 0.9658413,0.9658413 0 0 1 -0.095842,0.01159 0.9658413,0.9658413 0 0 1 -0.068325,0.0025 0.9658413,0.9658413 0 0 1 -0.096426,-0.0048 0.9658413,0.9658413 0 0 1 -0.065887,-0.0099 0.9658413,0.9658413 0 0 1 -0.00326,7e-4 0.9658413,0.9658413 0 0 1 -0.095831,0.01159 0.9658413,0.9658413 0 0 1 -0.068325,0.0025 0.9658413,0.9658413 0 0 1 -0.096425,-0.0048 0.9658413,0.9658413 0 0 1 -0.09546,-0.01444 0.9658413,0.9658413 0 0 1 -0.09354,-0.0239 0.9658413,0.9658413 0 0 1 -0.090692,-0.0331 0.9658413,0.9658413 0 0 1 -0.086938,-0.04199 0.9658413,0.9658413 0 0 1 -0.082294,-0.05044 0.9658413,0.9658413 0 0 1 -0.076859,-0.05843 0.9658413,0.9658413 0 0 1 -0.070642,-0.06581 0.9658413,0.9658413 0 0 1 -0.063718,-0.07254 0.9658413,0.9658413 0 0 1 -0.00267,-0.0037 0.9658413,0.9658413 0 0 1 -0.0535,-0.07481 0.9658413,0.9658413 0 0 1 -0.04804,-0.08375 0.9658413,0.9658413 0 0 1 -0.039433,-0.08811 0.9658413,0.9658413 0 0 1 -0.030441,-0.09162 0.9658413,0.9658413 0 0 1 -0.02114,-0.09419 0.9658413,0.9658413 0 0 1 -0.011644,-0.09584 0.9658413,0.9658413 0 0 1 -0.00242,-0.06833 0.9658413,0.9658413 0 0 1 0.00176,-0.03539 1.5453462,1.5453459 0 0 1 -0.1317326,-0.03352 1.5453462,1.5453459 0 0 1 -0.1451091,-0.05297 1.5453462,1.5453459 0 0 1 -0.13909,-0.06719 1.5453462,1.5453459 0 0 1 -0.13169643,-0.08075 1.5453462,1.5453459 0 0 1 -0.12296579,-0.09347 1.5453462,1.5453459 0 0 1 -0.0927228,-0.08639 z"
       style="fill:url(#linearGradient927);fill-opacity:1;stroke:none;stroke-width:0.00958571;stroke-linecap:butt;stroke-linejoin:bevel;stroke-miterlimit:4;stroke-dasharray:none;stroke-dashoffset:0;stroke-opacity:1;paint-order:normal" />
    <path
       inkscape:connector-curvature="0"
       id="path1486"
       d="m 1.0141449,14.395644 a 1.5453462,1.5453459 0 0 0 0.061105,0.03746 1.5453462,1.5453459 0 0 0 0.13909,0.06718 1.5453462,1.5453459 0 0 0 0.1451091,0.05297 1.5453462,1.5453459 0 0 0 0.1496662,0.03822 1.5453462,1.5453459 0 0 0 0.1527376,0.02309 1.5453462,1.5453459 0 0 0 0.1542735,0.0077 1.5453462,1.5453459 0 0 0 0.1093178,-0.0039 1.5453462,1.5453459 0 0 0 0.1533446,-0.01864 1.5453462,1.5453459 0 0 0 0.150719,-0.03382 1.5453462,1.5453459 0 0 0 0.1465828,-0.0487 1.5453462,1.5453459 0 0 0 0.1409969,-0.06311 1.5453462,1.5453459 0 0 0 0.1339883,-0.07686 1.5453462,1.5453459 0 0 0 0.1256525,-0.08986 1.5453462,1.5453459 0 0 0 0.084895,-0.07457 1.5453462,1.5453459 0 0 1 -0.1012921,0.04532 1.5453462,1.5453459 0 0 1 -0.1465829,0.0487 1.5453462,1.5453459 0 0 1 -0.1507184,0.03382 1.5453462,1.5453459 0 0 1 -0.1533451,0.01861 1.5453462,1.5453459 0 0 1 -0.1093178,0.0039 1.5453462,1.5453459 0 0 1 -0.1542735,-0.0077 1.5453462,1.5453459 0 0 1 -0.1527376,-0.02309 1.5453462,1.5453459 0 0 1 -0.1496663,-0.03821 1.5453462,1.5453459 0 0 1 -0.1451089,-0.05297 1.5453462,1.5453459 0 0 1 -0.1390904,-0.06718 1.5453462,1.5453459 0 0 1 -0.1024693,-0.06282 1.5453462,1.5453459 0 0 1 -0.069204,0.07427 1.5453462,1.5453459 0 0 1 -0.1160555,0.101935 1.5453462,1.5453459 0 0 1 -0.1256525,0.08986 1.5453462,1.5453459 0 0 1 -0.031965,0.01834 z"
       style="fill:url(#linearGradient935);fill-opacity:1;stroke:none;stroke-width:0.00958571;stroke-linecap:butt;stroke-linejoin:bevel;stroke-miterlimit:4;stroke-dasharray:none;stroke-dashoffset:0;stroke-opacity:1;paint-order:normal" />
    <path
       inkscape:connector-curvature="0"
       id="path1488"
       d="m 1.4315635,13.041551 a 0.9658413,0.9658413 0 0 0 -0.00176,0.03539 0.9658413,0.9658413 0 0 0 0.00242,0.06833 0.9658413,0.9658413 0 0 0 0.011644,0.09584 0.9658413,0.9658413 0 0 0 0.02114,0.09419 0.9658413,0.9658413 0 0 0 0.03044,0.09162 0.9658413,0.9658413 0 0 0 0.039433,0.08811 0.9658413,0.9658413 0 0 0 0.04804,0.08375 0.9658413,0.9658413 0 0 0 0.0535,0.07479 0.9658413,0.9658413 0 0 0 0.00267,0.0037 0.9658413,0.9658413 0 0 0 0.063717,0.07254 0.9658413,0.9658413 0 0 0 0.070642,0.06581 0.9658413,0.9658413 0 0 0 0.076859,0.05843 0.9658413,0.9658413 0 0 0 0.082294,0.05046 0.9658413,0.9658413 0 0 0 0.086938,0.04199 0.9658413,0.9658413 0 0 0 0.090692,0.03311 0.9658413,0.9658413 0 0 0 0.093541,0.0239 0.9658413,0.9658413 0 0 0 0.09546,0.01444 0.9658413,0.9658413 0 0 0 0.096426,0.0048 0.9658413,0.9658413 0 0 0 0.068325,-0.0025 0.9658413,0.9658413 0 0 0 0.095831,-0.0116 0.9658413,0.9658413 0 0 0 0.00326,-7e-4 0.9658413,0.9658413 0 0 1 -0.029574,-0.0045 0.9658413,0.9658413 0 0 1 -0.093541,-0.0239 0.9658413,0.9658413 0 0 1 -0.090692,-0.03311 0.9658413,0.9658413 0 0 1 -0.086927,-0.04199 0.9658413,0.9658413 0 0 1 -0.082307,-0.05045 0.9658413,0.9658413 0 0 1 -0.076859,-0.05843 0.9658413,0.9658413 0 0 1 -0.070641,-0.06581 0.9658413,0.9658413 0 0 1 -0.063718,-0.07255 0.9658413,0.9658413 0 0 1 -0.056152,-0.07853 0.9658413,0.9658413 0 0 1 -0.04804,-0.08375 0.9658413,0.9658413 0 0 1 -0.039445,-0.08811 0.9658413,0.9658413 0 0 1 -0.030441,-0.09162 0.9658413,0.9658413 0 0 1 -0.02114,-0.09419 0.9658413,0.9658413 0 0 1 -0.011631,-0.09584 0.9658413,0.9658413 0 0 1 -0.00242,-0.06832 0.9658413,0.9658413 0 0 1 0,-1.21e-4 1.5453462,1.5453459 0 0 1 -0.003,1.21e-4 1.5453462,1.5453459 0 0 1 -0.1542735,-0.0077 1.5453462,1.5453459 0 0 1 -0.1527376,-0.02309 1.5453462,1.5453459 0 0 1 -0.017933,-0.0046 z"
       style="fill:url(#linearGradient919);fill-opacity:1;stroke:none;stroke-width:0.00958571;stroke-linecap:butt;stroke-linejoin:bevel;stroke-miterlimit:4;stroke-dasharray:none;stroke-dashoffset:0;stroke-opacity:1;paint-order:normal" />
    <path
       inkscape:connector-curvature="0"
       id="path1490"
       d="m 2.5579444,12.125873 a 0.9658413,0.9658413 0 0 0 -0.090939,0.02042 0.9658413,0.9658413 0 0 0 -0.09162,0.03043 0.9658413,0.9658413 0 0 0 -0.088128,0.03944 0.9658413,0.9658413 0 0 0 -0.083744,0.04804 0.9658413,0.9658413 0 0 0 -0.078531,0.05614 0.9658413,0.9658413 0 0 0 -0.072523,0.06373 0.9658413,0.9658413 0 0 0 -0.065812,0.07065 0.9658413,0.9658413 0 0 0 -0.058429,0.07686 0.9658413,0.9658413 0 0 0 -0.050466,0.0823 0.9658413,0.9658413 0 0 0 -0.041983,0.08693 0.9658413,0.9658413 0 0 0 -0.033117,0.09069 0.9658413,0.9658413 0 0 0 -0.023878,0.09354 0.9658413,0.9658413 0 0 0 -0.014426,0.09545 0.9658413,0.9658413 0 0 0 -0.00483,0.09632 0.9658413,0.9658413 0 0 0 0,1.21e-4 0.9658413,0.9658413 0 0 0 0.00242,0.06833 0.9658413,0.9658413 0 0 0 0.011631,0.09585 0.9658413,0.9658413 0 0 0 0.02114,0.09419 0.9658413,0.9658413 0 0 0 0.030441,0.09162 0.9658413,0.9658413 0 0 0 0.039445,0.08811 0.9658413,0.9658413 0 0 0 0.04804,0.08375 0.9658413,0.9658413 0 0 0 0.056152,0.07853 0.9658413,0.9658413 0 0 0 0.063718,0.07254 0.9658413,0.9658413 0 0 0 0.070642,0.06582 0.9658413,0.9658413 0 0 0 0.076859,0.05843 0.9658413,0.9658413 0 0 0 0.082307,0.05044 0.9658413,0.9658413 0 0 0 0.086927,0.04199 0.9658413,0.9658413 0 0 0 0.090692,0.03311 0.9658413,0.9658413 0 0 0 0.093541,0.02389 0.9658413,0.9658413 0 0 0 0.029574,0.0045 0.9658413,0.9658413 0 0 0 0.090951,-0.02042 0.9658413,0.9658413 0 0 0 0.091609,-0.03043 0.9658413,0.9658413 0 0 0 0.088129,-0.03943 0.9658413,0.9658413 0 0 0 0.083744,-0.04804 0.9658413,0.9658413 0 0 0 0.078531,-0.05615 0.9658413,0.9658413 0 0 0 0.072536,-0.06373 0.9658413,0.9658413 0 0 0 0.0658,-0.07063 0.9658413,0.9658413 0 0 0 0.058429,-0.07685 0.9658413,0.9658413 0 0 0 0.050466,-0.0823 0.9658413,0.9658413 0 0 0 0.041995,-0.08695 0.9658413,0.9658413 0 0 0 0.033104,-0.09069 0.9658413,0.9658413 0 0 0 0.023877,-0.09354 0.9658413,0.9658413 0 0 0 0.014428,-0.09545 0.9658413,0.9658413 0 0 0 0.00483,-0.09642 1.5453462,1.5453459 0 0 0 -0.00242,-0.0684 0.9658413,0.9658413 0 0 0 -0.011631,-0.09575 0.9658413,0.9658413 0 0 0 -0.02114,-0.09419 0.9658413,0.9658413 0 0 0 -0.030442,-0.09162 0.9658413,0.9658413 0 0 0 -0.039445,-0.08813 0.9658413,0.9658413 0 0 0 -0.048027,-0.08375 0.9658413,0.9658413 0 0 0 -0.056164,-0.07853 0.9658413,0.9658413 0 0 0 -0.063718,-0.07254 0.9658413,0.9658413 0 0 0 -0.035941,-0.03347 0.9658413,0.9658413 0 0 0 -0.034701,-0.03232 0.9658413,0.9658413 0 0 0 -0.076859,-0.05843 0.9658413,0.9658413 0 0 0 -0.082307,-0.05047 0.9658413,0.9658413 0 0 0 -0.086927,-0.04201 0.9658413,0.9658413 0 0 0 -0.090692,-0.03311 0.9658413,0.9658413 0 0 0 -0.093539,-0.02389 0.9658413,0.9658413 0 0 0 -0.029575,-0.0045 z m 0.00255,0.216407 a 0.1931682,0.19316829 0 0 1 0.019283,10e-4 0.1931682,0.19316829 0 0 1 0.019098,0.0028 0.1931682,0.19316829 0 0 1 0.018712,0.0048 0.1931682,0.19316829 0 0 1 0.018131,0.0066 0.1931682,0.19316829 0 0 1 0.017388,0.0084 0.1931682,0.19316829 0 0 1 0.016459,0.01004 0.1931682,0.19316829 0 0 1 0.015368,0.01171 0.1931682,0.19316829 0 0 1 0.014131,0.01316 0.1931682,0.19316829 0 0 1 0.012739,0.0145 0.1931682,0.19316829 0 0 1 0.011231,0.01571 0.1931682,0.19316829 0 0 1 0.00961,0.01675 0.1931682,0.19316829 0 0 1 0.0079,0.01762 0.1931682,0.19316829 0 0 1 0.00608,0.01831 0.1931682,0.19316829 0 0 1 0.00424,0.01883 0.1931682,0.19316829 0 0 1 0.00232,0.01915 0.1931682,0.19316829 0 0 1 4.831e-4,0.01367 0.1931682,0.19316829 0 0 1 -9.705e-4,0.01927 0.1931682,0.19316829 0 0 1 -0.00289,0.01909 0.1931682,0.19316829 0 0 1 -0.00478,0.01871 0.1931682,0.19316829 0 0 1 -0.00662,0.01815 0.1931682,0.19316829 0 0 1 -0.00839,0.01738 0.1931682,0.19316829 0 0 1 -0.010099,0.01648 0.1931682,0.19316829 0 0 1 -0.011683,0.01536 0.1931682,0.19316829 0 0 1 -0.013164,0.01413 0.1931682,0.19316829 0 0 1 -0.014502,0.01275 0.1931682,0.19316829 0 0 1 -0.015704,0.01121 0.1931682,0.19316829 0 0 1 -0.016757,0.0097 0.1931682,0.19316829 0 0 1 -0.017623,0.0078 0.1931682,0.19316829 0 0 1 -0.018328,0.0061 0.1931682,0.19316829 0 0 1 -0.018837,0.0043 0.1931682,0.19316829 0 0 1 -0.019171,0.0024 0.1931682,0.19316829 0 0 1 -0.013659,4.83e-4 0.1931682,0.19316829 0 0 1 -0.019283,-10e-4 0.1931682,0.19316829 0 0 1 -0.019096,-0.0028 0.1931682,0.19316829 0 0 1 -0.018701,-0.0048 0.1931682,0.19316829 0 0 1 -0.018144,-0.0066 0.1931682,0.19316829 0 0 1 -0.017388,-0.0084 0.1931682,0.19316829 0 0 1 -0.016459,-0.01004 0.1931682,0.19316829 0 0 1 -0.015371,-0.01171 0.1931682,0.19316829 0 0 1 -0.014131,-0.01316 0.1931682,0.19316829 0 0 1 -0.012739,-0.0145 0.1931682,0.19316829 0 0 1 -0.011231,-0.01571 0.1931682,0.19316829 0 0 1 -0.00961,-0.01675 0.1931682,0.19316829 0 0 1 -0.00787,-0.01763 0.1931682,0.19316829 0 0 1 -0.0061,-0.01832 0.1931682,0.19316829 0 0 1 -0.00424,-0.01883 0.1931682,0.19316829 0 0 1 -0.00232,-0.01915 0.1931682,0.19316829 0 0 1 -4.83e-4,-0.01366 0.1931682,0.19316829 0 0 1 9.534e-4,-0.0193 0.1931682,0.19316829 0 0 1 0.00289,-0.01909 0.1931682,0.19316829 0 0 1 0.00478,-0.01871 0.1931682,0.19316829 0 0 1 0.00662,-0.01813 0.1931682,0.19316829 0 0 1 0.00839,-0.01738 0.1931682,0.19316829 0 0 1 0.010099,-0.01648 0.1931682,0.19316829 0 0 1 0.011683,-0.01536 0.1931682,0.19316829 0 0 1 0.013165,-0.01413 0.1931682,0.19316829 0 0 1 0.014502,-0.01274 0.1931682,0.19316829 0 0 1 0.015717,-0.01121 0.1931682,0.19316829 0 0 1 0.016742,-0.0097 0.1931682,0.19316829 0 0 1 0.017623,-0.0078 0.1931682,0.19316829 0 0 1 0.01833,-0.0061 0.1931682,0.19316829 0 0 1 0.018837,-0.0043 0.1931682,0.19316829 0 0 1 0.019171,-0.0024 0.1931682,0.19316829 0 0 1 0.01366,-4.84e-4 z"
       style="fill:url(#linearGradient1281);fill-opacity:1;stroke:none;stroke-width:0.00958571;stroke-linecap:butt;stroke-linejoin:bevel;stroke-miterlimit:4;stroke-dasharray:none;stroke-dashoffset:0;stroke-opacity:1;paint-order:normal" />
    <path
       inkscape:connector-curvature="0"
       id="path1492"
       d="m 2.7253577,12.111093 a 0.9658413,0.9658413 0 0 0 -0.068313,0.0025 0.9658413,0.9658413 0 0 0 -0.095842,0.01159 0.9658413,0.9658413 0 0 0 -0.00326,7.01e-4 0.9658413,0.9658413 0 0 1 0.029575,0.0045 0.9658413,0.9658413 0 0 1 0.093539,0.02388 0.9658413,0.9658413 0 0 1 0.090692,0.03311 0.9658413,0.9658413 0 0 1 0.086927,0.04199 0.9658413,0.9658413 0 0 1 0.082307,0.05047 0.9658413,0.9658413 0 0 1 0.076859,0.05843 0.9658413,0.9658413 0 0 1 0.034701,0.03232 0.9658413,0.9658413 0 0 1 0.035941,0.03347 0.9658413,0.9658413 0 0 1 0.063718,0.07254 0.9658413,0.9658413 0 0 1 0.056164,0.07853 0.9658413,0.9658413 0 0 1 0.048026,0.08375 0.9658413,0.9658413 0 0 1 0.039445,0.08813 0.9658413,0.9658413 0 0 1 0.030441,0.09162 0.9658413,0.9658413 0 0 1 0.02114,0.09419 0.9658413,0.9658413 0 0 1 0.011631,0.09575 1.5453462,1.5453459 0 0 0 -0.00146,-0.04091 1.5453462,1.5453459 0 0 0 -0.018613,-0.153345 1.5453462,1.5453459 0 0 0 -0.033822,-0.150731 1.5453462,1.5453459 0 0 0 -0.048708,-0.146583 1.5453462,1.5453459 0 0 0 -0.063098,-0.140997 1.5453462,1.5453459 0 0 0 -0.070937,-0.123677 1.5453462,1.5453459 0 0 0 -0.00592,-0.01031 1.5453462,1.5453459 0 0 0 -0.047581,-0.06654 0.9658413,0.9658413 0 0 0 -0.058132,-0.02121 0.9658413,0.9658413 0 0 0 -0.093541,-0.02388 0.9658413,0.9658413 0 0 0 -0.09546,-0.01444 0.9658413,0.9658413 0 0 0 -0.096425,-0.0049 z"
       style="fill:url(#linearGradient949);fill-opacity:1;stroke:none;stroke-width:0.00958605;stroke-linecap:butt;stroke-linejoin:bevel;stroke-miterlimit:4;stroke-dasharray:none;stroke-dashoffset:0;stroke-opacity:1;paint-order:normal" />
    <path
       inkscape:connector-curvature="0"
       id="path1494"
       d="m 3.0689141,12.175443 a 1.5453462,1.5453459 0 0 1 0.047581,0.06654 1.5453462,1.5453459 0 0 1 0.00592,0.0103 1.5453462,1.5453459 0 0 1 0.070939,0.123676 1.5453462,1.5453459 0 0 1 0.063099,0.140997 1.5453462,1.5453459 0 0 1 0.048708,0.146584 1.5453462,1.5453459 0 0 1 0.033823,0.15073 1.5453462,1.5453459 0 0 1 0.018615,0.153345 1.5453462,1.5453459 0 0 1 0.00146,0.04092 0.9658413,0.9658413 0 0 1 1.21e-5,1.21e-4 0.9658413,0.9658413 0 0 1 0.00242,0.06832 0.57950476,0.57950466 0 0 1 0.00289,-0.05785 0.57950476,0.57950466 0 0 1 0.00866,-0.05727 0.57950476,0.57950466 0 0 1 0.014329,-0.05613 0.57950476,0.57950466 0 0 1 0.019864,-0.05442 0.57950476,0.57950466 0 0 1 0.02519,-0.05215 0.57950476,0.57950466 0 0 1 0.03028,-0.04938 0.57950476,0.57950466 0 0 1 0.035061,-0.04613 0.57950476,0.57950466 0 0 1 0.039482,-0.04238 0.57950476,0.57950466 0 0 1 0.041054,-0.03606 0.9658413,0.9658413 0 0 0 -0.0402,-0.07007 0.9658413,0.9658413 0 0 0 -0.056164,-0.07853 0.9658413,0.9658413 0 0 0 -0.063706,-0.07253 0.9658413,0.9658413 0 0 0 -0.070642,-0.06581 0.9658413,0.9658413 0 0 0 -0.076859,-0.05843 0.9658413,0.9658413 0 0 0 -0.082306,-0.05047 0.9658413,0.9658413 0 0 0 -0.044511,-0.02149 0.9658413,0.9658413 0 0 0 -0.042429,-0.02049 0.9658413,0.9658413 0 0 0 -0.032559,-0.01185 z"
       style="fill:url(#linearGradient952);fill-opacity:1;stroke:none;stroke-width:0.00958605;stroke-linecap:butt;stroke-linejoin:bevel;stroke-miterlimit:4;stroke-dasharray:none;stroke-dashoffset:0;stroke-opacity:1;paint-order:normal" />
    <path
       style="fill:#ffffff;fill-opacity:1;stroke:none;stroke-width:0.00958605;stroke-linecap:butt;stroke-linejoin:bevel;stroke-miterlimit:4;stroke-dasharray:none;stroke-dashoffset:0;stroke-opacity:1;paint-order:normal"
       d="m 2.5604952,12.342286 a 0.1931682,0.19316829 0 0 0 -0.013661,4.83e-4 0.1931682,0.19316829 0 0 0 -0.019171,0.0024 0.1931682,0.19316829 0 0 0 -0.018837,0.0043 0.1931682,0.19316829 0 0 0 -0.018328,0.0061 0.1931682,0.19316829 0 0 0 -0.017622,0.0078 0.1931682,0.19316829 0 0 0 -0.016742,0.0097 0.1931682,0.19316829 0 0 0 -0.015717,0.01121 0.1931682,0.19316829 0 0 0 -0.014503,0.01275 0.1931682,0.19316829 0 0 0 -0.013164,0.01413 0.1931682,0.19316829 0 0 0 -0.011683,0.01536 0.1931682,0.19316829 0 0 0 -0.010099,0.01648 0.1931682,0.19316829 0 0 0 -0.00839,0.01738 0.1931682,0.19316829 0 0 0 -0.00662,0.01814 0.1931682,0.19316829 0 0 0 -0.00478,0.01871 0.1931682,0.19316829 0 0 0 -0.00289,0.01909 0.1931682,0.19316829 0 0 0 -9.534e-4,0.0193 0.1931682,0.19316829 0 0 0 4.831e-4,0.01367 0.1931682,0.19316829 0 0 0 0.00232,0.01915 0.1931682,0.19316829 0 0 0 0.00424,0.01883 0.1931682,0.19316829 0 0 0 0.0061,0.01831 0.1931682,0.19316829 0 0 0 0.00788,0.01763 0.1931682,0.19316829 0 0 0 0.00961,0.01675 0.1931682,0.19316829 0 0 0 0.011231,0.0157 0.1931682,0.19316829 0 0 0 0.012739,0.0145 0.1931682,0.19316829 0 0 0 0.014131,0.01316 0.1931682,0.19316829 0 0 0 0.01537,0.01171 0.1931682,0.19316829 0 0 0 0.016459,0.01005 0.1931682,0.19316829 0 0 0 0.017388,0.0084 0.1931682,0.19316829 0 0 0 0.018144,0.0066 0.1931682,0.19316829 0 0 0 0.018701,0.0048 0.1931682,0.19316829 0 0 0 0.019096,0.0028 0.1931682,0.19316829 0 0 0 0.019283,10e-4 0.1931682,0.19316829 0 0 0 0.01366,-4.82e-4 0.1931682,0.19316829 0 0 0 0.019171,-0.0024 0.1931682,0.19316829 0 0 0 0.018837,-0.0043 0.1931682,0.19316829 0 0 0 0.018328,-0.0061 0.1931682,0.19316829 0 0 0 0.017623,-0.0078 0.1931682,0.19316829 0 0 0 0.016756,-0.0097 0.1931682,0.19316829 0 0 0 0.015704,-0.01121 0.1931682,0.19316829 0 0 0 0.014502,-0.01274 0.1931682,0.19316829 0 0 0 0.013164,-0.01413 0.1931682,0.19316829 0 0 0 0.011683,-0.01536 0.1931682,0.19316829 0 0 0 0.010099,-0.01648 0.1931682,0.19316829 0 0 0 0.00839,-0.01738 0.1931682,0.19316829 0 0 0 0.00662,-0.01815 0.1931682,0.19316829 0 0 0 0.00478,-0.01871 0.1931682,0.19316829 0 0 0 0.00289,-0.01909 0.1931682,0.19316829 0 0 0 9.705e-4,-0.01928 0.1931682,0.19316829 0 0 0 -4.831e-4,-0.01367 0.1931682,0.19316829 0 0 0 -0.00232,-0.01915 0.1931682,0.19316829 0 0 0 -0.00424,-0.01883 0.1931682,0.19316829 0 0 0 -0.00608,-0.01832 0.1931682,0.19316829 0 0 0 -0.0079,-0.01762 0.1931682,0.19316829 0 0 0 -0.00961,-0.01675 0.1931682,0.19316829 0 0 0 -0.011231,-0.0157 0.1931682,0.19316829 0 0 0 -0.012739,-0.01451 0.1931682,0.19316829 0 0 0 -0.014131,-0.01316 0.1931682,0.19316829 0 0 0 -0.015368,-0.01171 0.1931682,0.19316829 0 0 0 -0.016459,-0.01004 0.1931682,0.19316829 0 0 0 -0.017388,-0.0084 0.1931682,0.19316829 0 0 0 -0.018132,-0.0066 0.1931682,0.19316829 0 0 0 -0.018712,-0.0048 0.1931682,0.19316829 0 0 0 -0.019098,-0.0028 0.1931682,0.19316829 0 0 0 -0.019282,-10e-4 z"
       id="path1496"
       inkscape:connector-curvature="0" />
    <path
       style="fill:#ff00ff;fill-opacity:0.695;stroke:none;stroke-width:0.00958605;stroke-linecap:butt;stroke-linejoin:bevel;stroke-miterlimit:4;stroke-dasharray:none;stroke-dashoffset:0;stroke-opacity:1;paint-order:normal"
       d="m 3.3614737,13.076932 a 0.9658413,0.9658413 0 0 0 -0.00242,-0.06832 0.9658413,0.9658413 0 0 0 -1.22e-5,-1.19e-4 1.5453462,1.5453459 0 0 1 0.00242,0.0684 z"
       id="path1498"
       inkscape:connector-curvature="0" />
    <path
       inkscape:connector-curvature="0"
       id="path1500"
       d="m 3.3614737,13.076932 a 0.9658413,0.9658413 0 0 0 -0.00242,-0.06832 0.9658413,0.9658413 0 0 0 -1.22e-5,-1.19e-4 1.5453462,1.5453459 0 0 1 0.00242,0.0684 z"
       style="fill:#ff00ff;fill-opacity:0.695;stroke:none;stroke-width:0.00958605;stroke-linecap:butt;stroke-linejoin:bevel;stroke-miterlimit:4;stroke-dasharray:none;stroke-dashoffset:0;stroke-opacity:1;paint-order:normal" />
    <path
       inkscape:connector-curvature="0"
       id="path1502"
       d="m 2.5630462,14.027998 a 0.9658413,0.9658413 0 0 0 0.065887,0.0099 0.9658413,0.9658413 0 0 0 0.096426,0.0048 0.9658413,0.9658413 0 0 0 0.068325,-0.0025 0.9658413,0.9658413 0 0 0 0.095842,-0.01159 0.9658413,0.9658413 0 0 0 0.094196,-0.02116 0.9658413,0.9658413 0 0 0 0.085206,-0.02831 1.5453462,1.5453459 0 0 0 0.022627,-0.02977 1.5453462,1.5453459 0 0 0 0.080747,-0.131697 1.5453462,1.5453459 0 0 0 0.067186,-0.139089 1.5453462,1.5453459 0 0 0 0.052967,-0.145111 1.5453462,1.5453459 0 0 0 0.038219,-0.149664 1.5453462,1.5453459 0 0 0 0.023084,-0.152739 1.5453462,1.5453459 0 0 0 0.00772,-0.154272 0.9658413,0.9658413 0 0 1 -0.00483,0.09642 0.9658413,0.9658413 0 0 1 -0.014427,0.09546 0.9658413,0.9658413 0 0 1 -0.023877,0.09354 0.9658413,0.9658413 0 0 1 -0.033104,0.09069 0.9658413,0.9658413 0 0 1 -0.041995,0.08695 0.9658413,0.9658413 0 0 1 -0.050466,0.0823 0.9658413,0.9658413 0 0 1 -0.058429,0.07685 0.9658413,0.9658413 0 0 1 -0.0658,0.07063 0.9658413,0.9658413 0 0 1 -0.072536,0.06372 0.9658413,0.9658413 0 0 1 -0.078531,0.05615 0.9658413,0.9658413 0 0 1 -0.083744,0.04804 0.9658413,0.9658413 0 0 1 -0.088129,0.03943 0.9658413,0.9658413 0 0 1 -0.091609,0.03043 0.9658413,0.9658413 0 0 1 -0.090952,0.02042 z"
       style="fill:url(#linearGradient1716);fill-opacity:1;stroke:none;stroke-width:0.00958571;stroke-linecap:butt;stroke-linejoin:bevel;stroke-miterlimit:4;stroke-dasharray:none;stroke-dashoffset:0;stroke-opacity:1;paint-order:normal" />
    <path
       inkscape:connector-curvature="0"
       id="path1512"
       d="m 2.7253577,12.111093 a 0.9658413,0.9658413 0 0 0 -0.068313,0.0025 0.9658413,0.9658413 0 0 0 -0.095842,0.01159 0.9658413,0.9658413 0 0 0 -0.00326,7.01e-4 0.9658413,0.9658413 0 0 1 0.029575,0.0045 0.9658413,0.9658413 0 0 1 0.093539,0.02388 0.9658413,0.9658413 0 0 1 0.090692,0.03311 0.9658413,0.9658413 0 0 1 0.086927,0.04199 0.9658413,0.9658413 0 0 1 0.082307,0.05047 0.9658413,0.9658413 0 0 1 0.076859,0.05843 0.9658413,0.9658413 0 0 1 0.034701,0.03232 0.9658413,0.9658413 0 0 1 0.035941,0.03347 0.9658413,0.9658413 0 0 1 0.063718,0.07254 0.9658413,0.9658413 0 0 1 0.056164,0.07853 0.9658413,0.9658413 0 0 1 0.048026,0.08375 0.9658413,0.9658413 0 0 1 0.039445,0.08813 0.9658413,0.9658413 0 0 1 0.030441,0.09162 0.9658413,0.9658413 0 0 1 0.02114,0.09419 0.9658413,0.9658413 0 0 1 0.011631,0.09575 1.5453462,1.5453459 0 0 0 -0.00146,-0.04091 1.5453462,1.5453459 0 0 0 -0.018613,-0.153345 1.5453462,1.5453459 0 0 0 -0.033822,-0.150731 1.5453462,1.5453459 0 0 0 -0.048708,-0.146583 1.5453462,1.5453459 0 0 0 -0.063098,-0.140997 1.5453462,1.5453459 0 0 0 -0.070937,-0.123677 1.5453462,1.5453459 0 0 0 -0.00592,-0.01031 1.5453462,1.5453459 0 0 0 -0.047581,-0.06654 0.9658413,0.9658413 0 0 0 -0.058132,-0.02121 0.9658413,0.9658413 0 0 0 -0.093541,-0.02388 0.9658413,0.9658413 0 0 0 -0.09546,-0.01444 0.9658413,0.9658413 0 0 0 -0.096425,-0.0049 z"
       style="fill:url(#linearGradient1293);fill-opacity:1;stroke:none;stroke-width:0.00958605;stroke-linecap:butt;stroke-linejoin:bevel;stroke-miterlimit:4;stroke-dasharray:none;stroke-dashoffset:0;stroke-opacity:1;paint-order:normal" />
    <path
       inkscape:connector-curvature="0"
       id="path1514"
       d="m 3.0689141,12.175443 a 1.5453462,1.5453459 0 0 1 0.047581,0.06654 1.5453462,1.5453459 0 0 1 0.00592,0.0103 1.5453462,1.5453459 0 0 1 0.070939,0.123676 1.5453462,1.5453459 0 0 1 0.063099,0.140997 1.5453462,1.5453459 0 0 1 0.048708,0.146584 1.5453462,1.5453459 0 0 1 0.033823,0.15073 1.5453462,1.5453459 0 0 1 0.018615,0.153345 1.5453462,1.5453459 0 0 1 0.00146,0.04092 0.9658413,0.9658413 0 0 1 1.21e-5,1.21e-4 0.9658413,0.9658413 0 0 1 0.00242,0.06832 0.57950476,0.57950466 0 0 1 0.00289,-0.05785 0.57950476,0.57950466 0 0 1 0.00866,-0.05727 0.57950476,0.57950466 0 0 1 0.014329,-0.05613 0.57950476,0.57950466 0 0 1 0.019864,-0.05442 0.57950476,0.57950466 0 0 1 0.02519,-0.05215 0.57950476,0.57950466 0 0 1 0.03028,-0.04938 0.57950476,0.57950466 0 0 1 0.035061,-0.04613 0.57950476,0.57950466 0 0 1 0.039482,-0.04238 0.57950476,0.57950466 0 0 1 0.041054,-0.03606 0.9658413,0.9658413 0 0 0 -0.0402,-0.07007 0.9658413,0.9658413 0 0 0 -0.056164,-0.07853 0.9658413,0.9658413 0 0 0 -0.063706,-0.07253 0.9658413,0.9658413 0 0 0 -0.070642,-0.06581 0.9658413,0.9658413 0 0 0 -0.076859,-0.05843 0.9658413,0.9658413 0 0 0 -0.082306,-0.05047 0.9658413,0.9658413 0 0 0 -0.044511,-0.02149 0.9658413,0.9658413 0 0 0 -0.042429,-0.02049 0.9658413,0.9658413 0 0 0 -0.032559,-0.01185 z"
       style="fill:url(#linearGradient1291);fill-opacity:1;stroke:none;stroke-width:0.00958605;stroke-linecap:butt;stroke-linejoin:bevel;stroke-miterlimit:4;stroke-dasharray:none;stroke-dashoffset:0;stroke-opacity:1;paint-order:normal" />
  </g>
</svg>
