<?xml version="1.0" encoding="UTF-8" standalone="no"?>
<svg
   xmlns:dc="http://purl.org/dc/elements/1.1/"
   xmlns:cc="http://creativecommons.org/ns#"
   xmlns:rdf="http://www.w3.org/1999/02/22-rdf-syntax-ns#"
   xmlns:svg="http://www.w3.org/2000/svg"
   xmlns="http://www.w3.org/2000/svg"
   xmlns:xlink="http://www.w3.org/1999/xlink"
   xmlns:sodipodi="http://sodipodi.sourceforge.net/DTD/sodipodi-0.dtd"
   xmlns:inkscape="http://www.inkscape.org/namespaces/inkscape"
   width="16"
   height="16"
   viewBox="0 0 4.2333332 4.2333335"
   version="1.1"
   id="svg8"
   inkscape:version="1.0.2 (e86c870879, 2021-01-15)"
   sodipodi:docname="favicon.svg"
   inkscape:export-filename="/home/dave/Pictures/seadve logo.png"
   inkscape:export-xdpi="96"
   inkscape:export-ydpi="96">
  <defs
     id="defs2">
    <linearGradient
       inkscape:collect="always"
       id="linearGradient941">
      <stop
         style="stop-color:#015eea;stop-opacity:1"
         offset="0"
         id="stop937" />
      <stop
         style="stop-color:#09dcfd;stop-opacity:1"
         offset="1"
         id="stop939" />
    </linearGradient>
    <linearGradient
       inkscape:collect="always"
       id="linearGradient933">
      <stop
         style="stop-color:#0047e6;stop-opacity:1"
         offset="0"
         id="stop929" />
      <stop
         style="stop-color:#0ae1fe;stop-opacity:1"
         offset="1"
         id="stop931" />
    </linearGradient>
    <linearGradient
       inkscape:collect="always"
       id="linearGradient925">
      <stop
         style="stop-color:#0159e7;stop-opacity:1"
         offset="0"
         id="stop921" />
      <stop
         style="stop-color:#09e6fe;stop-opacity:1"
         offset="1"
         id="stop923" />
    </linearGradient>
    <linearGradient
       inkscape:collect="always"
       id="linearGradient917">
      <stop
         style="stop-color:#0156e7;stop-opacity:1"
         offset="0"
         id="stop913" />
      <stop
         style="stop-color:#07c8f9;stop-opacity:1"
         offset="1"
         id="stop915" />
    </linearGradient>
    <linearGradient
       inkscape:collect="always"
       id="linearGradient1714">
      <stop
         style="stop-color:#0048e4;stop-opacity:1"
         offset="0"
         id="stop1710" />
      <stop
         style="stop-color:#09e0fd;stop-opacity:1"
         offset="1"
         id="stop1712" />
    </linearGradient>
    <linearGradient
       inkscape:collect="always"
       id="linearGradient951">
      <stop
         style="stop-color:#1a5fb4;stop-opacity:1"
         offset="0"
         id="stop947" />
      <stop
         style="stop-color:#09e6fe;stop-opacity:1"
         offset="1"
         id="stop949" />
    </linearGradient>
    <linearGradient
       inkscape:collect="always"
       id="linearGradient1138">
      <stop
         style="stop-color:#1a5fb4;stop-opacity:1"
         offset="0"
         id="stop1134" />
      <stop
         style="stop-color:#09dcfd;stop-opacity:1"
         offset="1"
         id="stop1136" />
    </linearGradient>
    <linearGradient
       inkscape:collect="always"
       id="linearGradient1130">
      <stop
         style="stop-color:#1a5fb4;stop-opacity:1"
         offset="0"
         id="stop1126" />
      <stop
         style="stop-color:#0ae1fe;stop-opacity:1"
         offset="1"
         id="stop1128" />
    </linearGradient>
    <linearGradient
       inkscape:collect="always"
       id="linearGradient1037">
      <stop
         style="stop-color:#1a5fb4;stop-opacity:1"
         offset="0"
         id="stop1033" />
      <stop
         style="stop-color:#99c1f1;stop-opacity:1"
         offset="1"
         id="stop1035" />
    </linearGradient>
    <linearGradient
       id="linearGradient1031"
       inkscape:collect="always">
      <stop
         id="stop1027"
         offset="0"
         style="stop-color:#f6d32d;stop-opacity:1" />
      <stop
         id="stop1029"
         offset="1"
         style="stop-color:#ff7900;stop-opacity:1" />
    </linearGradient>
    <linearGradient
       inkscape:collect="always"
       id="linearGradient997">
      <stop
         style="stop-color:#f6d32d;stop-opacity:1"
         offset="0"
         id="stop993" />
      <stop
         style="stop-color:#ff7900;stop-opacity:1"
         offset="1"
         id="stop995" />
    </linearGradient>
    <linearGradient
       inkscape:collect="always"
       xlink:href="#linearGradient1714"
       id="linearGradient1281"
       gradientUnits="userSpaceOnUse"
       gradientTransform="matrix(0.00905509,0,0,0.00905509,-3.5459753,7.2216493)"
       x1="822.12701"
       y1="623.81396"
       x2="605.17688"
       y2="633.74011" />
    <linearGradient
       inkscape:collect="always"
       xlink:href="#linearGradient951"
       id="linearGradient1283"
       gradientUnits="userSpaceOnUse"
       gradientTransform="matrix(0.00905509,0,0,0.00905509,-3.5459744,7.2216566)"
       x1="774.29016"
       y1="812.52429"
       x2="514.67273"
       y2="647.65472" />
    <linearGradient
       inkscape:collect="always"
       xlink:href="#linearGradient1130"
       id="linearGradient1285"
       gradientUnits="userSpaceOnUse"
       gradientTransform="matrix(0.00905509,0,0,0.00905509,-3.545975,7.2216566)"
       x1="864.29529"
       y1="854.60272"
       x2="395.47473"
       y2="564.8222" />
    <linearGradient
       inkscape:collect="always"
       xlink:href="#linearGradient1138"
       id="linearGradient1287"
       gradientUnits="userSpaceOnUse"
       gradientTransform="matrix(0.00905509,0,0,0.00905509,-3.545975,7.2216566)"
       x1="794.79785"
       y1="808.47327"
       x2="451.53821"
       y2="841.09894" />
    <linearGradient
       inkscape:collect="always"
       xlink:href="#linearGradient1037"
       id="linearGradient1289"
       gradientUnits="userSpaceOnUse"
       gradientTransform="matrix(0.00905509,0,0,0.00905509,-3.545975,7.2216566)"
       x1="882.672"
       y1="717.17664"
       x2="682.8631"
       y2="787.05573" />
    <linearGradient
       inkscape:collect="always"
       xlink:href="#linearGradient1031"
       id="linearGradient1291"
       gradientUnits="userSpaceOnUse"
       gradientTransform="matrix(0.00905509,0,0,0.00905509,-3.5459768,7.2216566)"
       x1="779.83783"
       y1="494.11157"
       x2="839.94183"
       y2="575.42883" />
    <linearGradient
       inkscape:collect="always"
       xlink:href="#linearGradient997"
       id="linearGradient1293"
       gradientUnits="userSpaceOnUse"
       gradientTransform="matrix(0.00905509,0,0,0.00905509,-3.5459751,7.2216566)"
       x1="698.01544"
       y1="480.97955"
       x2="814.18292"
       y2="583.51001" />
    <linearGradient
       inkscape:collect="always"
       xlink:href="#linearGradient917"
       id="linearGradient1716"
       gradientUnits="userSpaceOnUse"
       gradientTransform="matrix(0.00905509,0,0,0.00905509,-3.545975,7.2216566)"
       x1="802.43164"
       y1="727.83984"
       x2="669.34961"
       y2="785.25403" />
    <linearGradient
       inkscape:collect="always"
       xlink:href="#linearGradient925"
       id="linearGradient919"
       gradientUnits="userSpaceOnUse"
       gradientTransform="matrix(0.00905509,0,0,0.00905509,-3.5459744,7.2216566)"
       x1="695.23822"
       y1="783.03906"
       x2="514.67273"
       y2="647.65472" />
    <linearGradient
       inkscape:collect="always"
       xlink:href="#linearGradient933"
       id="linearGradient927"
       gradientUnits="userSpaceOnUse"
       gradientTransform="matrix(0.00905509,0,0,0.00905509,-3.545975,7.2216566)"
       x1="773.14508"
       y1="832.58899"
       x2="348.21542"
       y2="553.42609" />
    <linearGradient
       inkscape:collect="always"
       xlink:href="#linearGradient941"
       id="linearGradient935"
       gradientUnits="userSpaceOnUse"
       gradientTransform="matrix(0.00905509,0,0,0.00905509,-3.545975,7.2216566)"
       x1="726.86523"
       y1="819.22852"
       x2="451.53821"
       y2="841.09894" />
    <linearGradient
       inkscape:collect="always"
       xlink:href="#linearGradient1037"
       id="linearGradient943"
       gradientUnits="userSpaceOnUse"
       gradientTransform="matrix(0.00905509,0,0,0.00905509,-3.545975,7.2216566)"
       x1="882.672"
       y1="717.17664"
       x2="682.8631"
       y2="787.05573" />
    <linearGradient
       inkscape:collect="always"
       xlink:href="#linearGradient997"
       id="linearGradient945"
       gradientUnits="userSpaceOnUse"
       gradientTransform="matrix(0.00905509,0,0,0.00905509,-3.5459751,7.2216566)"
       x1="698.01544"
       y1="480.97955"
       x2="814.18292"
       y2="583.51001" />
    <linearGradient
       inkscape:collect="always"
       xlink:href="#linearGradient1031"
       id="linearGradient947"
       gradientUnits="userSpaceOnUse"
       gradientTransform="matrix(0.00905509,0,0,0.00905509,-3.5459768,7.2216566)"
       x1="779.83783"
       y1="494.11157"
       x2="839.94183"
       y2="575.42883" />
    <linearGradient
       inkscape:collect="always"
       xlink:href="#linearGradient997"
       id="linearGradient949"
       gradientUnits="userSpaceOnUse"
       gradientTransform="matrix(0.00905509,0,0,0.00905509,-3.5459751,7.2216566)"
       x1="698.01544"
       y1="480.97955"
       x2="814.18292"
       y2="583.51001" />
    <linearGradient
       inkscape:collect="always"
       xlink:href="#linearGradient1031"
       id="linearGradient952"
       gradientUnits="userSpaceOnUse"
       gradientTransform="matrix(0.00905509,0,0,0.00905509,-3.5459768,7.2216566)"
       x1="779.83783"
       y1="494.11157"
       x2="839.94183"
       y2="575.42883" />
  </defs>
  <sodipodi:namedview
     id="base"
     pagecolor="#ffffff"
     bordercolor="#666666"
     borderopacity="1.0"
     inkscape:pageopacity="0.0"
     inkscape:pageshadow="2"
     inkscape:zoom="31.678383"
     inkscape:cx="10.809604"
     inkscape:cy="9.7353435"
     inkscape:document-units="px"
     inkscape:current-layer="layer1"
     showgrid="false"
     units="px"
     inkscape:window-width="1680"
     inkscape:window-height="981"
     inkscape:window-x="0"
     inkscape:window-y="0"
     inkscape:window-maximized="1"
     inkscape:snap-intersection-paths="false"
     inkscape:object-nodes="true"
     inkscape:snap-smooth-nodes="true"
     inkscape:snap-global="true"
     borderlayer="true"
     inkscape:document-rotation="0"
     inkscape:snap-bbox="true" />
  <metadata
     id="metadata5">
    <rdf:RDF>
      <cc:Work
         rdf:about="">
        <dc:format>image/svg+xml</dc:format>
        <dc:type
           rdf:resource="http://purl.org/dc/dcmitype/StillImage" />
        <dc:title></dc:title>
      </cc:Work>
    </rdf:RDF>
  </metadata>
  <g
     inkscape:groupmode="layer"
     id="layer2"
     inkscape:label="background" />
  <g
     inkscape:label="circles"
     inkscape:groupmode="layer"
     id="layer1"
     transform="translate(0,-11.249992)"
     style="display:inline;opacity:1">
    <path
       style="fill:#ffffff;fill-opacity:1;stroke:none;stroke-width:0.0136895;stroke-linecap:butt;stroke-linejoin:bevel;stroke-miterlimit:4;stroke-dasharray:none;stroke-dashoffset:0;stroke-opacity:1;paint-order:normal"
       d="m 2.7504813,11.903811 a 0.27585515,0.27585528 0 0 0 -0.019508,6.9e-4 0.27585515,0.27585528 0 0 0 -0.027378,0.0034 0.27585515,0.27585528 0 0 0 -0.026901,0.0061 0.27585515,0.27585528 0 0 0 -0.026175,0.0087 0.27585515,0.27585528 0 0 0 -0.025167,0.01124 0.27585515,0.27585528 0 0 0 -0.02391,0.0138 0.27585515,0.27585528 0 0 0 -0.022445,0.01601 0.27585515,0.27585528 0 0 0 -0.02071,0.01821 0.27585515,0.27585528 0 0 0 -0.0188,0.02018 0.27585515,0.27585528 0 0 0 -0.016684,0.02194 0.27585515,0.27585528 0 0 0 -0.014421,0.02353 0.27585515,0.27585528 0 0 0 -0.01199,0.02483 0.27585515,0.27585528 0 0 0 -0.00946,0.0259 0.27585515,0.27585528 0 0 0 -0.00682,0.02673 0.27585515,0.27585528 0 0 0 -0.00412,0.02726 0.27585515,0.27585528 0 0 0 -0.00136,0.02756 0.27585515,0.27585528 0 0 0 6.898e-4,0.01952 0.27585515,0.27585528 0 0 0 0.00331,0.02736 0.27585515,0.27585528 0 0 0 0.00605,0.02689 0.27585515,0.27585528 0 0 0 0.0087,0.02615 0.27585515,0.27585528 0 0 0 0.011253,0.02518 0.27585515,0.27585528 0 0 0 0.013721,0.02392 0.27585515,0.27585528 0 0 0 0.016039,0.02242 0.27585515,0.27585528 0 0 0 0.018191,0.02071 0.27585515,0.27585528 0 0 0 0.02018,0.0188 0.27585515,0.27585528 0 0 0 0.02195,0.01673 0.27585515,0.27585528 0 0 0 0.023504,0.01435 0.27585515,0.27585528 0 0 0 0.02483,0.01201 0.27585515,0.27585528 0 0 0 0.02591,0.0094 0.27585515,0.27585528 0 0 0 0.026706,0.0068 0.27585515,0.27585528 0 0 0 0.02727,0.004 0.27585515,0.27585528 0 0 0 0.027538,0.0014 0.27585515,0.27585528 0 0 0 0.019507,-6.9e-4 0.27585515,0.27585528 0 0 0 0.027378,-0.0034 0.27585515,0.27585528 0 0 0 0.026901,-0.0061 0.27585515,0.27585528 0 0 0 0.026175,-0.0087 0.27585515,0.27585528 0 0 0 0.025167,-0.01124 0.27585515,0.27585528 0 0 0 0.023928,-0.0138 0.27585515,0.27585528 0 0 0 0.022425,-0.01601 0.27585515,0.27585528 0 0 0 0.02071,-0.0182 0.27585515,0.27585528 0 0 0 0.0188,-0.02018 0.27585515,0.27585528 0 0 0 0.016684,-0.02194 0.27585515,0.27585528 0 0 0 0.014421,-0.02353 0.27585515,0.27585528 0 0 0 0.01199,-0.02481 0.27585515,0.27585528 0 0 0 0.00946,-0.02592 0.27585515,0.27585528 0 0 0 0.00682,-0.02673 0.27585515,0.27585528 0 0 0 0.00412,-0.02726 0.27585515,0.27585528 0 0 0 0.00138,-0.02753 0.27585515,0.27585528 0 0 0 -6.898e-4,-0.01952 0.27585515,0.27585528 0 0 0 -0.00333,-0.02736 0.27585515,0.27585528 0 0 0 -0.00605,-0.02689 0.27585515,0.27585528 0 0 0 -0.00868,-0.02616 0.27585515,0.27585528 0 0 0 -0.011279,-0.02517 0.27585515,0.27585528 0 0 0 -0.013722,-0.02393 0.27585515,0.27585528 0 0 0 -0.016039,-0.02242 0.27585515,0.27585528 0 0 0 -0.018191,-0.02071 0.27585515,0.27585528 0 0 0 -0.02018,-0.0188 0.27585515,0.27585528 0 0 0 -0.021947,-0.01673 0.27585515,0.27585528 0 0 0 -0.023505,-0.01434 0.27585515,0.27585528 0 0 0 -0.02483,-0.01202 0.27585515,0.27585528 0 0 0 -0.025893,-0.0094 0.27585515,0.27585528 0 0 0 -0.026722,-0.0068 0.27585515,0.27585528 0 0 0 -0.027273,-0.004 0.27585515,0.27585528 0 0 0 -0.027535,-0.0014 z"
       id="path986"
       inkscape:connector-curvature="0" />
    <path
       style="fill:#ff00ff;fill-opacity:0.695;stroke:none;stroke-width:0.0136895;stroke-linecap:butt;stroke-linejoin:bevel;stroke-miterlimit:4;stroke-dasharray:none;stroke-dashoffset:0;stroke-opacity:1;paint-order:normal"
       d="m 3.8943239,12.952928 a 1.3792761,1.3792761 0 0 0 -0.00346,-0.09756 1.3792761,1.3792761 0 0 0 -1.74e-5,-1.71e-4 2.2068421,2.2068416 0 0 1 0.00346,0.09768 z"
       id="path970"
       inkscape:connector-curvature="0" />
    <path
       inkscape:connector-curvature="0"
       id="path860"
       d="m 3.8943239,12.952928 a 1.3792761,1.3792761 0 0 0 -0.00346,-0.09756 1.3792761,1.3792761 0 0 0 -1.74e-5,-1.71e-4 2.2068421,2.2068416 0 0 1 0.00346,0.09768 z"
       style="fill:#ff00ff;fill-opacity:0.695;stroke:none;stroke-width:0.0136895;stroke-linecap:butt;stroke-linejoin:bevel;stroke-miterlimit:4;stroke-dasharray:none;stroke-dashoffset:0;stroke-opacity:1;paint-order:normal" />
    <path
       inkscape:connector-curvature="0"
       id="path862"
       d="m 2.7541243,14.311104 a 1.3792761,1.3792761 0 0 0 0.094089,0.01416 1.3792761,1.3792761 0 0 0 0.1377016,0.0068 1.3792761,1.3792761 0 0 0 0.097572,-0.0035 1.3792761,1.3792761 0 0 0 0.1368684,-0.01655 1.3792761,1.3792761 0 0 0 0.1345177,-0.03021 1.3792761,1.3792761 0 0 0 0.1216794,-0.04043 2.2068421,2.2068416 0 0 0 0.032313,-0.04251 2.2068421,2.2068416 0 0 0 0.115311,-0.18807 2.2068421,2.2068416 0 0 0 0.095945,-0.198627 2.2068421,2.2068416 0 0 0 0.07564,-0.207226 2.2068421,2.2068416 0 0 0 0.054578,-0.21373 2.2068421,2.2068416 0 0 0 0.032965,-0.21812 2.2068421,2.2068416 0 0 0 0.011021,-0.220309 1.3792761,1.3792761 0 0 1 -0.0069,0.137696 1.3792761,1.3792761 0 0 1 -0.020603,0.136317 1.3792761,1.3792761 0 0 1 -0.034098,0.133576 1.3792761,1.3792761 0 0 1 -0.047274,0.12951 1.3792761,1.3792761 0 0 1 -0.059971,0.124161 1.3792761,1.3792761 0 0 1 -0.072069,0.117534 1.3792761,1.3792761 0 0 1 -0.083441,0.109742 1.3792761,1.3792761 0 0 1 -0.093965,0.100867 1.3792761,1.3792761 0 0 1 -0.1035849,0.09099 1.3792761,1.3792761 0 0 1 -0.1121457,0.08019 1.3792761,1.3792761 0 0 1 -0.1195915,0.0686 1.3792761,1.3792761 0 0 1 -0.1258525,0.05631 1.3792761,1.3792761 0 0 1 -0.1308223,0.04346 1.3792761,1.3792761 0 0 1 -0.1298844,0.02917 z"
       style="fill:url(#linearGradient943);fill-opacity:1;stroke:none;stroke-width:0.0136889;stroke-linecap:butt;stroke-linejoin:bevel;stroke-miterlimit:4;stroke-dasharray:none;stroke-dashoffset:0;stroke-opacity:1;paint-order:normal" />
    <path
       inkscape:connector-curvature="0"
       id="path864"
       d="m 0.04824268,12.310618 a 2.2068421,2.2068416 0 0 0 -0.0078722,0.05205 2.2068421,2.2068416 0 0 0 -0.01101819,0.220312 2.2068421,2.2068416 0 0 0 0.0055362,0.156108 2.2068421,2.2068416 0 0 0 0.02658279,0.218984 2.2068421,2.2068416 0 0 0 0.04829849,0.215234 2.2068421,2.2068416 0 0 0 0.0695581,0.20933 2.2068421,2.2068416 0 0 0 0.0901095,0.201352 2.2068421,2.2068416 0 0 0 0.10975781,0.19136 2.2068421,2.2068416 0 0 0 0.12832826,0.179432 2.2068421,2.2068416 0 0 0 0.14558887,0.165729 2.2068421,2.2068416 0 0 0 0.16140033,0.150369 2.2068421,2.2068416 0 0 0 0.17560206,0.133483 2.2068421,2.2068416 0 0 0 0.0417368,0.02558 2.2068421,2.2068416 0 0 0 0.1463321,0.08973 2.2068421,2.2068416 0 0 0 0.1986284,0.09594 2.2068421,2.2068416 0 0 0 0.2072239,0.07563 2.2068421,2.2068416 0 0 0 0.2137319,0.05457 2.2068421,2.2068416 0 0 0 0.2181179,0.03296 2.2068421,2.2068416 0 0 0 0.2203115,0.01098 2.2068421,2.2068416 0 0 0 0.1561121,-0.0056 2.2068421,2.2068416 0 0 0 0.2189853,-0.02658 2.2068421,2.2068416 0 0 0 0.2152347,-0.04831 2.2068421,2.2068416 0 0 0 0.2093286,-0.06956 2.2068421,2.2068416 0 0 0 0.1446508,-0.06473 2.2068421,2.2068416 0 0 0 0.044497,-0.03908 2.2068421,2.2068416 0 0 0 0.1503639,-0.161425 2.2068421,2.2068416 0 0 0 0.1011792,-0.133096 1.3792761,1.3792761 0 0 1 -0.121678,0.04043 1.3792761,1.3792761 0 0 1 -0.1345178,0.03021 1.3792761,1.3792761 0 0 1 -0.1368685,0.01655 1.3792761,1.3792761 0 0 1 -0.097572,0.0035 1.3792761,1.3792761 0 0 1 -0.1377017,-0.0068 1.3792761,1.3792761 0 0 1 -0.094089,-0.01416 1.3792761,1.3792761 0 0 1 -0.00465,10e-4 1.3792761,1.3792761 0 0 1 -0.136852,0.01655 1.3792761,1.3792761 0 0 1 -0.097573,0.0035 A 1.3792761,1.3792761 0 0 1 2.377347,14.32535 1.3792761,1.3792761 0 0 1 2.2410249,14.30474 1.3792761,1.3792761 0 0 1 2.1074453,14.27062 1.3792761,1.3792761 0 0 1 1.9779325,14.22335 1.3792761,1.3792761 0 0 1 1.8537803,14.16339 1.3792761,1.3792761 0 0 1 1.7362586,14.09135 1.3792761,1.3792761 0 0 1 1.6265005,14.00791 1.3792761,1.3792761 0 0 1 1.5256211,13.91393 a 1.3792761,1.3792761 0 0 1 -0.090992,-0.103579 1.3792761,1.3792761 0 0 1 -0.00381,-0.0053 1.3792761,1.3792761 0 0 1 -0.076402,-0.106835 1.3792761,1.3792761 0 0 1 -0.068604,-0.119601 1.3792761,1.3792761 0 0 1 -0.056313,-0.125828 1.3792761,1.3792761 0 0 1 -0.043472,-0.130835 1.3792761,1.3792761 0 0 1 -0.03019,-0.134514 1.3792761,1.3792761 0 0 1 -0.016628,-0.136869 1.3792761,1.3792761 0 0 1 -0.00346,-0.09758 1.3792761,1.3792761 0 0 1 0.00252,-0.05053 A 2.2068421,2.2068416 0 0 1 0.95014848,12.854592 2.2068421,2.2068416 0 0 1 0.74292456,12.778958 2.2068421,2.2068416 0 0 1 0.544296,12.683014 2.2068421,2.2068416 0 0 1 0.35622609,12.567703 2.2068421,2.2068416 0 0 1 0.18062395,12.434218 2.2068421,2.2068416 0 0 1 0.04821048,12.310845 Z"
       style="fill:url(#linearGradient1285);fill-opacity:1;stroke:none;stroke-width:0.0136889;stroke-linecap:butt;stroke-linejoin:bevel;stroke-miterlimit:4;stroke-dasharray:none;stroke-dashoffset:0;stroke-opacity:1;paint-order:normal" />
    <path
       inkscape:connector-curvature="0"
       id="path866"
       d="m 0.54220528,14.836123 a 2.2068421,2.2068416 0 0 0 0.0872618,0.0535 2.2068421,2.2068416 0 0 0 0.19862844,0.09594 2.2068421,2.2068416 0 0 0 0.20722408,0.07563 2.2068421,2.2068416 0 0 0 0.2137318,0.05457 2.2068421,2.2068416 0 0 0 0.2181179,0.03296 2.2068421,2.2068416 0 0 0 0.2203114,0.01098 2.2068421,2.2068416 0 0 0 0.1561119,-0.0056 2.2068421,2.2068416 0 0 0 0.2189847,-0.0266 2.2068421,2.2068416 0 0 0 0.2152354,-0.04831 2.2068421,2.2068416 0 0 0 0.2093285,-0.06956 2.2068421,2.2068416 0 0 0 0.2013515,-0.09012 2.2068421,2.2068416 0 0 0 0.1913429,-0.109756 2.2068421,2.2068416 0 0 0 0.179439,-0.128334 2.2068421,2.2068416 0 0 0 0.1212349,-0.106487 2.2068421,2.2068416 0 0 1 -0.1446509,0.06473 2.2068421,2.2068416 0 0 1 -0.2093287,0.06956 2.2068421,2.2068416 0 0 1 -0.2152344,0.04831 2.2068421,2.2068416 0 0 1 -0.2189855,0.02658 2.2068421,2.2068416 0 0 1 -0.1561121,0.0056 2.2068421,2.2068416 0 0 1 -0.2203113,-0.01098 2.2068421,2.2068416 0 0 1 -0.218118,-0.03296 2.2068421,2.2068416 0 0 1 -0.2137319,-0.05457 2.2068421,2.2068416 0 0 1 -0.2072238,-0.07563 2.2068421,2.2068416 0 0 1 -0.1986287,-0.09594 2.2068421,2.2068416 0 0 1 -0.146332,-0.08973 2.2068421,2.2068416 0 0 1 -0.0988278,0.106073 2.2068421,2.2068416 0 0 1 -0.16573388,0.145569 2.2068421,2.2068416 0 0 1 -0.17943899,0.128334 2.2068421,2.2068416 0 0 1 -0.0456477,0.02619 z"
       style="fill:url(#linearGradient1287);fill-opacity:1;stroke:none;stroke-width:0.0136889;stroke-linecap:butt;stroke-linejoin:bevel;stroke-miterlimit:4;stroke-dasharray:none;stroke-dashoffset:0;stroke-opacity:1;paint-order:normal" />
    <path
       inkscape:connector-curvature="0"
       id="path868"
       d="m 1.1383028,12.902402 a 1.3792761,1.3792761 0 0 0 -0.00252,0.05053 1.3792761,1.3792761 0 0 0 0.00346,0.09758 1.3792761,1.3792761 0 0 0 0.016628,0.136868 1.3792761,1.3792761 0 0 0 0.03019,0.134514 1.3792761,1.3792761 0 0 0 0.043472,0.130836 1.3792761,1.3792761 0 0 0 0.056313,0.125828 1.3792761,1.3792761 0 0 0 0.068604,0.119601 1.3792761,1.3792761 0 0 0 0.076402,0.106809 1.3792761,1.3792761 0 0 0 0.00381,0.0053 1.3792761,1.3792761 0 0 0 0.090992,0.103592 1.3792761,1.3792761 0 0 0 0.1008794,0.09397 1.3792761,1.3792761 0 0 0 0.1097581,0.08344 1.3792761,1.3792761 0 0 0 0.1175217,0.07206 1.3792761,1.3792761 0 0 0 0.1241522,0.05996 1.3792761,1.3792761 0 0 0 0.1295126,0.04728 1.3792761,1.3792761 0 0 0 0.1335816,0.03412 1.3792761,1.3792761 0 0 0 0.1363221,0.02061 1.3792761,1.3792761 0 0 0 0.1377017,0.0068 1.3792761,1.3792761 0 0 0 0.097572,-0.0035 1.3792761,1.3792761 0 0 0 0.136852,-0.01655 1.3792761,1.3792761 0 0 0 0.00465,-10e-4 1.3792761,1.3792761 0 0 1 -0.042232,-0.0065 A 1.3792761,1.3792761 0 0 1 2.5783438,14.27043 1.3792761,1.3792761 0 0 1 2.448831,14.22316 1.3792761,1.3792761 0 0 1 2.3246943,14.1632 1.3792761,1.3792761 0 0 1 2.2071545,14.09115 1.3792761,1.3792761 0 0 1 2.0973964,14.00771 1.3792761,1.3792761 0 0 1 1.996517,13.91373 1.3792761,1.3792761 0 0 1 1.905523,13.810137 1.3792761,1.3792761 0 0 1 1.825335,13.697992 1.3792761,1.3792761 0 0 1 1.756731,13.578391 1.3792761,1.3792761 0 0 1 1.700402,13.452563 1.3792761,1.3792761 0 0 1 1.656931,13.321727 a 1.3792761,1.3792761 0 0 1 -0.03019,-0.134514 1.3792761,1.3792761 0 0 1 -0.01661,-0.136868 1.3792761,1.3792761 0 0 1 -0.00346,-0.09757 1.3792761,1.3792761 0 0 1 0,-1.73e-4 2.2068421,2.2068416 0 0 1 -0.00429,1.73e-4 2.2068421,2.2068416 0 0 1 -0.2203113,-0.01098 2.2068421,2.2068416 0 0 1 -0.2181179,-0.03296 2.2068421,2.2068416 0 0 1 -0.02561,-0.0066 z"
       style="fill:url(#linearGradient1283);fill-opacity:1;stroke:none;stroke-width:0.0136889;stroke-linecap:butt;stroke-linejoin:bevel;stroke-miterlimit:4;stroke-dasharray:none;stroke-dashoffset:0;stroke-opacity:1;paint-order:normal" />
    <path
       inkscape:connector-curvature="0"
       id="path872"
       d="m 2.9859143,11.573653 a 1.3792761,1.3792761 0 0 0 -0.097555,0.0035 1.3792761,1.3792761 0 0 0 -0.1368684,0.01655 1.3792761,1.3792761 0 0 0 -0.00465,0.001 1.3792761,1.3792761 0 0 1 0.042234,0.0065 1.3792761,1.3792761 0 0 1 0.1335796,0.0341 1.3792761,1.3792761 0 0 1 0.1295127,0.04728 1.3792761,1.3792761 0 0 1 0.1241368,0.05996 1.3792761,1.3792761 0 0 1 0.1175398,0.07207 1.3792761,1.3792761 0 0 1 0.1097581,0.08344 1.3792761,1.3792761 0 0 1 0.049555,0.04616 1.3792761,1.3792761 0 0 1 0.051325,0.0478 1.3792761,1.3792761 0 0 1 0.090993,0.103592 1.3792761,1.3792761 0 0 1 0.080205,0.112146 1.3792761,1.3792761 0 0 1 0.068585,0.119601 1.3792761,1.3792761 0 0 1 0.056329,0.125853 1.3792761,1.3792761 0 0 1 0.043471,0.130835 1.3792761,1.3792761 0 0 1 0.03019,0.134514 1.3792761,1.3792761 0 0 1 0.01661,0.13674 2.2068421,2.2068416 0 0 0 -0.00208,-0.05842 2.2068421,2.2068416 0 0 0 -0.02658,-0.218985 2.2068421,2.2068416 0 0 0 -0.048299,-0.215253 2.2068421,2.2068416 0 0 0 -0.069558,-0.209328 2.2068421,2.2068416 0 0 0 -0.090109,-0.201352 2.2068421,2.2068416 0 0 0 -0.1013019,-0.176618 2.2068421,2.2068416 0 0 0 -0.00846,-0.01472 2.2068421,2.2068416 0 0 0 -0.067949,-0.09503 1.3792761,1.3792761 0 0 0 -0.083016,-0.0303 1.3792761,1.3792761 0 0 0 -0.1335815,-0.0341 1.3792761,1.3792761 0 0 0 -0.1363221,-0.02061 1.3792761,1.3792761 0 0 0 -0.1376998,-0.007 z"
       style="fill:url(#linearGradient945);fill-opacity:1;stroke:none;stroke-width:0.0136895;stroke-linecap:butt;stroke-linejoin:bevel;stroke-miterlimit:4;stroke-dasharray:none;stroke-dashoffset:0;stroke-opacity:1;paint-order:normal" />
    <path
       inkscape:connector-curvature="0"
       id="path874"
       d="m 3.4765323,11.665549 a 2.2068421,2.2068416 0 0 1 0.067949,0.09503 2.2068421,2.2068416 0 0 1 0.00846,0.01471 2.2068421,2.2068416 0 0 1 0.1013045,0.176617 2.2068421,2.2068416 0 0 1 0.090109,0.201352 2.2068421,2.2068416 0 0 1 0.069558,0.209329 2.2068421,2.2068416 0 0 1 0.0483,0.215252 2.2068421,2.2068416 0 0 1 0.026583,0.218985 2.2068421,2.2068416 0 0 1 0.00208,0.05843 1.3792761,1.3792761 0 0 1 1.73e-5,1.73e-4 1.3792761,1.3792761 0 0 1 0.00346,0.09756 0.82756568,0.82756554 0 0 1 0.00413,-0.08261 0.82756568,0.82756554 0 0 1 0.012364,-0.0818 0.82756568,0.82756554 0 0 1 0.020463,-0.08016 0.82756568,0.82756554 0 0 1 0.028367,-0.07771 0.82756568,0.82756554 0 0 1 0.035973,-0.07447 0.82756568,0.82756554 0 0 1 0.043242,-0.07052 0.82756568,0.82756554 0 0 1 0.050068,-0.06587 0.82756568,0.82756554 0 0 1 0.056383,-0.06052 0.82756568,0.82756554 0 0 1 0.058628,-0.0515 1.3792761,1.3792761 0 0 0 -0.057408,-0.100066 1.3792761,1.3792761 0 0 0 -0.080205,-0.112145 1.3792761,1.3792761 0 0 0 -0.090976,-0.10358 1.3792761,1.3792761 0 0 0 -0.1008795,-0.09398 1.3792761,1.3792761 0 0 0 -0.109758,-0.08344 1.3792761,1.3792761 0 0 0 -0.1175385,-0.07207 1.3792761,1.3792761 0 0 0 -0.063564,-0.0307 1.3792761,1.3792761 0 0 0 -0.060591,-0.02926 1.3792761,1.3792761 0 0 0 -0.046496,-0.01692 z"
       style="fill:url(#linearGradient947);fill-opacity:1;stroke:none;stroke-width:0.0136895;stroke-linecap:butt;stroke-linejoin:bevel;stroke-miterlimit:4;stroke-dasharray:none;stroke-dashoffset:0;stroke-opacity:1;paint-order:normal" />
    <path
       style="fill:#ffffff;fill-opacity:1;stroke:none;stroke-width:0.0136895;stroke-linecap:butt;stroke-linejoin:bevel;stroke-miterlimit:4;stroke-dasharray:none;stroke-dashoffset:0;stroke-opacity:1;paint-order:normal"
       d="m 2.7504813,11.903811 a 0.27585515,0.27585528 0 0 0 -0.019508,6.9e-4 0.27585515,0.27585528 0 0 0 -0.027378,0.0034 0.27585515,0.27585528 0 0 0 -0.026901,0.0061 0.27585515,0.27585528 0 0 0 -0.026175,0.0087 0.27585515,0.27585528 0 0 0 -0.025167,0.01124 0.27585515,0.27585528 0 0 0 -0.02391,0.0138 0.27585515,0.27585528 0 0 0 -0.022445,0.01601 0.27585515,0.27585528 0 0 0 -0.02071,0.01821 0.27585515,0.27585528 0 0 0 -0.0188,0.02018 0.27585515,0.27585528 0 0 0 -0.016684,0.02194 0.27585515,0.27585528 0 0 0 -0.014421,0.02353 0.27585515,0.27585528 0 0 0 -0.01199,0.02483 0.27585515,0.27585528 0 0 0 -0.00946,0.0259 0.27585515,0.27585528 0 0 0 -0.00682,0.02673 0.27585515,0.27585528 0 0 0 -0.00412,0.02726 0.27585515,0.27585528 0 0 0 -0.00136,0.02756 0.27585515,0.27585528 0 0 0 6.898e-4,0.01952 0.27585515,0.27585528 0 0 0 0.00331,0.02736 0.27585515,0.27585528 0 0 0 0.00605,0.02689 0.27585515,0.27585528 0 0 0 0.0087,0.02615 0.27585515,0.27585528 0 0 0 0.011253,0.02518 0.27585515,0.27585528 0 0 0 0.013721,0.02392 0.27585515,0.27585528 0 0 0 0.016039,0.02242 0.27585515,0.27585528 0 0 0 0.018191,0.02071 0.27585515,0.27585528 0 0 0 0.02018,0.0188 0.27585515,0.27585528 0 0 0 0.02195,0.01673 0.27585515,0.27585528 0 0 0 0.023504,0.01435 0.27585515,0.27585528 0 0 0 0.02483,0.01201 0.27585515,0.27585528 0 0 0 0.02591,0.0094 0.27585515,0.27585528 0 0 0 0.026706,0.0068 0.27585515,0.27585528 0 0 0 0.02727,0.004 0.27585515,0.27585528 0 0 0 0.027538,0.0014 0.27585515,0.27585528 0 0 0 0.019507,-6.9e-4 0.27585515,0.27585528 0 0 0 0.027378,-0.0034 0.27585515,0.27585528 0 0 0 0.026901,-0.0061 0.27585515,0.27585528 0 0 0 0.026175,-0.0087 0.27585515,0.27585528 0 0 0 0.025167,-0.01124 0.27585515,0.27585528 0 0 0 0.023928,-0.0138 0.27585515,0.27585528 0 0 0 0.022425,-0.01601 0.27585515,0.27585528 0 0 0 0.02071,-0.0182 0.27585515,0.27585528 0 0 0 0.0188,-0.02018 0.27585515,0.27585528 0 0 0 0.016684,-0.02194 0.27585515,0.27585528 0 0 0 0.014421,-0.02353 0.27585515,0.27585528 0 0 0 0.01199,-0.02481 0.27585515,0.27585528 0 0 0 0.00946,-0.02592 0.27585515,0.27585528 0 0 0 0.00682,-0.02673 0.27585515,0.27585528 0 0 0 0.00412,-0.02726 0.27585515,0.27585528 0 0 0 0.00138,-0.02753 0.27585515,0.27585528 0 0 0 -6.898e-4,-0.01952 0.27585515,0.27585528 0 0 0 -0.00333,-0.02736 0.27585515,0.27585528 0 0 0 -0.00605,-0.02689 0.27585515,0.27585528 0 0 0 -0.00868,-0.02616 0.27585515,0.27585528 0 0 0 -0.011279,-0.02517 0.27585515,0.27585528 0 0 0 -0.013722,-0.02393 0.27585515,0.27585528 0 0 0 -0.016039,-0.02242 0.27585515,0.27585528 0 0 0 -0.018191,-0.02071 0.27585515,0.27585528 0 0 0 -0.02018,-0.0188 0.27585515,0.27585528 0 0 0 -0.021947,-0.01673 0.27585515,0.27585528 0 0 0 -0.023505,-0.01434 0.27585515,0.27585528 0 0 0 -0.02483,-0.01202 0.27585515,0.27585528 0 0 0 -0.025893,-0.0094 0.27585515,0.27585528 0 0 0 -0.026722,-0.0068 0.27585515,0.27585528 0 0 0 -0.027273,-0.004 0.27585515,0.27585528 0 0 0 -0.027535,-0.0014 z"
       id="path1476"
       inkscape:connector-curvature="0" />
    <path
       style="fill:#ff00ff;fill-opacity:0.695;stroke:none;stroke-width:0.0136895;stroke-linecap:butt;stroke-linejoin:bevel;stroke-miterlimit:4;stroke-dasharray:none;stroke-dashoffset:0;stroke-opacity:1;paint-order:normal"
       d="m 3.8943239,12.952928 a 1.3792761,1.3792761 0 0 0 -0.00346,-0.09756 1.3792761,1.3792761 0 0 0 -1.74e-5,-1.71e-4 2.2068421,2.2068416 0 0 1 0.00346,0.09768 z"
       id="path1478"
       inkscape:connector-curvature="0" />
    <path
       inkscape:connector-curvature="0"
       id="path1480"
       d="m 3.8943239,12.952928 a 1.3792761,1.3792761 0 0 0 -0.00346,-0.09756 1.3792761,1.3792761 0 0 0 -1.74e-5,-1.71e-4 2.2068421,2.2068416 0 0 1 0.00346,0.09768 z"
       style="fill:#ff00ff;fill-opacity:0.695;stroke:none;stroke-width:0.0136895;stroke-linecap:butt;stroke-linejoin:bevel;stroke-miterlimit:4;stroke-dasharray:none;stroke-dashoffset:0;stroke-opacity:1;paint-order:normal" />
    <path
       inkscape:connector-curvature="0"
       id="path1482"
       d="m 2.7541243,14.311104 a 1.3792761,1.3792761 0 0 0 0.094089,0.01416 1.3792761,1.3792761 0 0 0 0.1377016,0.0068 1.3792761,1.3792761 0 0 0 0.097572,-0.0035 1.3792761,1.3792761 0 0 0 0.1368684,-0.01655 1.3792761,1.3792761 0 0 0 0.1345177,-0.03021 1.3792761,1.3792761 0 0 0 0.1216794,-0.04043 2.2068421,2.2068416 0 0 0 0.032313,-0.04251 2.2068421,2.2068416 0 0 0 0.115311,-0.18807 2.2068421,2.2068416 0 0 0 0.095945,-0.198627 2.2068421,2.2068416 0 0 0 0.07564,-0.207226 2.2068421,2.2068416 0 0 0 0.054578,-0.21373 2.2068421,2.2068416 0 0 0 0.032965,-0.21812 2.2068421,2.2068416 0 0 0 0.011021,-0.220309 1.3792761,1.3792761 0 0 1 -0.0069,0.137696 1.3792761,1.3792761 0 0 1 -0.020603,0.136317 1.3792761,1.3792761 0 0 1 -0.034098,0.133576 1.3792761,1.3792761 0 0 1 -0.047274,0.12951 1.3792761,1.3792761 0 0 1 -0.059971,0.124161 1.3792761,1.3792761 0 0 1 -0.072069,0.117534 1.3792761,1.3792761 0 0 1 -0.083441,0.109742 1.3792761,1.3792761 0 0 1 -0.093965,0.100867 1.3792761,1.3792761 0 0 1 -0.1035849,0.09099 1.3792761,1.3792761 0 0 1 -0.1121457,0.08019 1.3792761,1.3792761 0 0 1 -0.1195915,0.0686 1.3792761,1.3792761 0 0 1 -0.1258525,0.05631 1.3792761,1.3792761 0 0 1 -0.1308223,0.04346 1.3792761,1.3792761 0 0 1 -0.1298844,0.02917 z"
       style="fill:url(#linearGradient1289);fill-opacity:1;stroke:none;stroke-width:0.0136889;stroke-linecap:butt;stroke-linejoin:bevel;stroke-miterlimit:4;stroke-dasharray:none;stroke-dashoffset:0;stroke-opacity:1;paint-order:normal" />
    <path
       inkscape:connector-curvature="0"
       id="path1484"
       d="m 0.04824268,12.310618 a 2.2068421,2.2068416 0 0 0 -0.0078722,0.05205 2.2068421,2.2068416 0 0 0 -0.01101819,0.220312 2.2068421,2.2068416 0 0 0 0.0055362,0.156108 2.2068421,2.2068416 0 0 0 0.02658279,0.218984 2.2068421,2.2068416 0 0 0 0.04829849,0.215234 2.2068421,2.2068416 0 0 0 0.0695581,0.20933 2.2068421,2.2068416 0 0 0 0.0901095,0.201352 2.2068421,2.2068416 0 0 0 0.10975781,0.19136 2.2068421,2.2068416 0 0 0 0.12832826,0.179432 2.2068421,2.2068416 0 0 0 0.14558887,0.165729 2.2068421,2.2068416 0 0 0 0.16140033,0.150369 2.2068421,2.2068416 0 0 0 0.17560206,0.133483 2.2068421,2.2068416 0 0 0 0.0417368,0.02558 2.2068421,2.2068416 0 0 0 0.1463321,0.08973 2.2068421,2.2068416 0 0 0 0.1986284,0.09594 2.2068421,2.2068416 0 0 0 0.2072239,0.07563 2.2068421,2.2068416 0 0 0 0.2137319,0.05457 2.2068421,2.2068416 0 0 0 0.2181179,0.03296 2.2068421,2.2068416 0 0 0 0.2203115,0.01098 2.2068421,2.2068416 0 0 0 0.1561121,-0.0056 2.2068421,2.2068416 0 0 0 0.2189853,-0.02658 2.2068421,2.2068416 0 0 0 0.2152347,-0.04831 2.2068421,2.2068416 0 0 0 0.2093286,-0.06956 2.2068421,2.2068416 0 0 0 0.1446508,-0.06473 2.2068421,2.2068416 0 0 0 0.044497,-0.03908 2.2068421,2.2068416 0 0 0 0.1503639,-0.161425 2.2068421,2.2068416 0 0 0 0.1011792,-0.133096 1.3792761,1.3792761 0 0 1 -0.121678,0.04043 1.3792761,1.3792761 0 0 1 -0.1345178,0.03021 1.3792761,1.3792761 0 0 1 -0.1368685,0.01655 1.3792761,1.3792761 0 0 1 -0.097572,0.0035 1.3792761,1.3792761 0 0 1 -0.1377017,-0.0068 1.3792761,1.3792761 0 0 1 -0.094089,-0.01416 1.3792761,1.3792761 0 0 1 -0.00465,10e-4 1.3792761,1.3792761 0 0 1 -0.136852,0.01655 1.3792761,1.3792761 0 0 1 -0.097573,0.0035 A 1.3792761,1.3792761 0 0 1 2.377347,14.32535 1.3792761,1.3792761 0 0 1 2.2410249,14.30474 1.3792761,1.3792761 0 0 1 2.1074453,14.27062 1.3792761,1.3792761 0 0 1 1.9779325,14.22335 1.3792761,1.3792761 0 0 1 1.8537803,14.16339 1.3792761,1.3792761 0 0 1 1.7362586,14.09135 1.3792761,1.3792761 0 0 1 1.6265005,14.00791 1.3792761,1.3792761 0 0 1 1.5256211,13.91393 a 1.3792761,1.3792761 0 0 1 -0.090992,-0.103579 1.3792761,1.3792761 0 0 1 -0.00381,-0.0053 1.3792761,1.3792761 0 0 1 -0.076402,-0.106835 1.3792761,1.3792761 0 0 1 -0.068604,-0.119601 1.3792761,1.3792761 0 0 1 -0.056313,-0.125828 1.3792761,1.3792761 0 0 1 -0.043472,-0.130835 1.3792761,1.3792761 0 0 1 -0.03019,-0.134514 1.3792761,1.3792761 0 0 1 -0.016628,-0.136869 1.3792761,1.3792761 0 0 1 -0.00346,-0.09758 1.3792761,1.3792761 0 0 1 0.00252,-0.05053 A 2.2068421,2.2068416 0 0 1 0.95014848,12.854592 2.2068421,2.2068416 0 0 1 0.74292456,12.778958 2.2068421,2.2068416 0 0 1 0.544296,12.683014 2.2068421,2.2068416 0 0 1 0.35622609,12.567703 2.2068421,2.2068416 0 0 1 0.18062395,12.434218 2.2068421,2.2068416 0 0 1 0.04821048,12.310845 Z"
       style="fill:url(#linearGradient927);fill-opacity:1;stroke:none;stroke-width:0.0136889;stroke-linecap:butt;stroke-linejoin:bevel;stroke-miterlimit:4;stroke-dasharray:none;stroke-dashoffset:0;stroke-opacity:1;paint-order:normal" />
    <path
       inkscape:connector-curvature="0"
       id="path1486"
       d="m 0.54220528,14.836123 a 2.2068421,2.2068416 0 0 0 0.0872618,0.0535 2.2068421,2.2068416 0 0 0 0.19862844,0.09594 2.2068421,2.2068416 0 0 0 0.20722408,0.07563 2.2068421,2.2068416 0 0 0 0.2137318,0.05457 2.2068421,2.2068416 0 0 0 0.2181179,0.03296 2.2068421,2.2068416 0 0 0 0.2203114,0.01098 2.2068421,2.2068416 0 0 0 0.1561119,-0.0056 2.2068421,2.2068416 0 0 0 0.2189847,-0.0266 2.2068421,2.2068416 0 0 0 0.2152354,-0.04831 2.2068421,2.2068416 0 0 0 0.2093285,-0.06956 2.2068421,2.2068416 0 0 0 0.2013515,-0.09012 2.2068421,2.2068416 0 0 0 0.1913429,-0.109756 2.2068421,2.2068416 0 0 0 0.179439,-0.128334 2.2068421,2.2068416 0 0 0 0.1212349,-0.106487 2.2068421,2.2068416 0 0 1 -0.1446509,0.06473 2.2068421,2.2068416 0 0 1 -0.2093287,0.06956 2.2068421,2.2068416 0 0 1 -0.2152344,0.04831 2.2068421,2.2068416 0 0 1 -0.2189855,0.02658 2.2068421,2.2068416 0 0 1 -0.1561121,0.0056 2.2068421,2.2068416 0 0 1 -0.2203113,-0.01098 2.2068421,2.2068416 0 0 1 -0.218118,-0.03296 2.2068421,2.2068416 0 0 1 -0.2137319,-0.05457 2.2068421,2.2068416 0 0 1 -0.2072238,-0.07563 2.2068421,2.2068416 0 0 1 -0.1986287,-0.09594 2.2068421,2.2068416 0 0 1 -0.146332,-0.08973 2.2068421,2.2068416 0 0 1 -0.0988278,0.106073 2.2068421,2.2068416 0 0 1 -0.16573388,0.145569 2.2068421,2.2068416 0 0 1 -0.17943899,0.128334 2.2068421,2.2068416 0 0 1 -0.0456477,0.02619 z"
       style="fill:url(#linearGradient935);fill-opacity:1;stroke:none;stroke-width:0.0136889;stroke-linecap:butt;stroke-linejoin:bevel;stroke-miterlimit:4;stroke-dasharray:none;stroke-dashoffset:0;stroke-opacity:1;paint-order:normal" />
    <path
       inkscape:connector-curvature="0"
       id="path1488"
       d="m 1.1383028,12.902402 a 1.3792761,1.3792761 0 0 0 -0.00252,0.05053 1.3792761,1.3792761 0 0 0 0.00346,0.09758 1.3792761,1.3792761 0 0 0 0.016628,0.136868 1.3792761,1.3792761 0 0 0 0.03019,0.134514 1.3792761,1.3792761 0 0 0 0.043472,0.130836 1.3792761,1.3792761 0 0 0 0.056313,0.125828 1.3792761,1.3792761 0 0 0 0.068604,0.119601 1.3792761,1.3792761 0 0 0 0.076402,0.106809 1.3792761,1.3792761 0 0 0 0.00381,0.0053 1.3792761,1.3792761 0 0 0 0.090992,0.103592 1.3792761,1.3792761 0 0 0 0.1008794,0.09397 1.3792761,1.3792761 0 0 0 0.1097581,0.08344 1.3792761,1.3792761 0 0 0 0.1175217,0.07206 1.3792761,1.3792761 0 0 0 0.1241522,0.05996 1.3792761,1.3792761 0 0 0 0.1295126,0.04728 1.3792761,1.3792761 0 0 0 0.1335816,0.03412 1.3792761,1.3792761 0 0 0 0.1363221,0.02061 1.3792761,1.3792761 0 0 0 0.1377017,0.0068 1.3792761,1.3792761 0 0 0 0.097572,-0.0035 1.3792761,1.3792761 0 0 0 0.136852,-0.01655 1.3792761,1.3792761 0 0 0 0.00465,-10e-4 1.3792761,1.3792761 0 0 1 -0.042232,-0.0065 A 1.3792761,1.3792761 0 0 1 2.5783438,14.27043 1.3792761,1.3792761 0 0 1 2.448831,14.22316 1.3792761,1.3792761 0 0 1 2.3246943,14.1632 1.3792761,1.3792761 0 0 1 2.2071545,14.09115 1.3792761,1.3792761 0 0 1 2.0973964,14.00771 1.3792761,1.3792761 0 0 1 1.996517,13.91373 1.3792761,1.3792761 0 0 1 1.905523,13.810137 1.3792761,1.3792761 0 0 1 1.825335,13.697992 1.3792761,1.3792761 0 0 1 1.756731,13.578391 1.3792761,1.3792761 0 0 1 1.700402,13.452563 1.3792761,1.3792761 0 0 1 1.656931,13.321727 a 1.3792761,1.3792761 0 0 1 -0.03019,-0.134514 1.3792761,1.3792761 0 0 1 -0.01661,-0.136868 1.3792761,1.3792761 0 0 1 -0.00346,-0.09757 1.3792761,1.3792761 0 0 1 0,-1.73e-4 2.2068421,2.2068416 0 0 1 -0.00429,1.73e-4 2.2068421,2.2068416 0 0 1 -0.2203113,-0.01098 2.2068421,2.2068416 0 0 1 -0.2181179,-0.03296 2.2068421,2.2068416 0 0 1 -0.02561,-0.0066 z"
       style="fill:url(#linearGradient919);fill-opacity:1;stroke:none;stroke-width:0.0136889;stroke-linecap:butt;stroke-linejoin:bevel;stroke-miterlimit:4;stroke-dasharray:none;stroke-dashoffset:0;stroke-opacity:1;paint-order:normal" />
    <path
       inkscape:connector-curvature="0"
       id="path1490"
       d="m 2.7468385,11.594761 a 1.3792761,1.3792761 0 0 0 -0.129866,0.02916 1.3792761,1.3792761 0 0 0 -0.1308388,0.04346 1.3792761,1.3792761 0 0 0 -0.1258513,0.05632 1.3792761,1.3792761 0 0 0 -0.1195915,0.0686 1.3792761,1.3792761 0 0 0 -0.1121457,0.08018 1.3792761,1.3792761 0 0 0 -0.1035668,0.091 1.3792761,1.3792761 0 0 0 -0.093983,0.100892 1.3792761,1.3792761 0 0 0 -0.08344,0.109755 1.3792761,1.3792761 0 0 0 -0.072069,0.117534 1.3792761,1.3792761 0 0 0 -0.059954,0.124135 1.3792761,1.3792761 0 0 0 -0.047292,0.129512 1.3792761,1.3792761 0 0 0 -0.034099,0.133576 1.3792761,1.3792761 0 0 0 -0.020602,0.136316 1.3792761,1.3792761 0 0 0 -0.0069,0.137549 1.3792761,1.3792761 0 0 0 0,1.73e-4 1.3792761,1.3792761 0 0 0 0.00346,0.09759 1.3792761,1.3792761 0 0 0 0.01661,0.13687 1.3792761,1.3792761 0 0 0 0.03019,0.134514 1.3792761,1.3792761 0 0 0 0.043471,0.130834 1.3792761,1.3792761 0 0 0 0.056329,0.125828 1.3792761,1.3792761 0 0 0 0.068604,0.119601 1.3792761,1.3792761 0 0 0 0.080188,0.112145 1.3792761,1.3792761 0 0 0 0.090993,0.103593 1.3792761,1.3792761 0 0 0 0.1008795,0.09399 1.3792761,1.3792761 0 0 0 0.1097581,0.08344 1.3792761,1.3792761 0 0 0 0.1175397,0.07204 1.3792761,1.3792761 0 0 0 0.1241368,0.05996 1.3792761,1.3792761 0 0 0 0.1295128,0.04728 1.3792761,1.3792761 0 0 0 0.1335814,0.03412 1.3792761,1.3792761 0 0 0 0.042233,0.0065 1.3792761,1.3792761 0 0 0 0.1298843,-0.02917 1.3792761,1.3792761 0 0 0 0.1308224,-0.04346 1.3792761,1.3792761 0 0 0 0.1258525,-0.05631 1.3792761,1.3792761 0 0 0 0.1195915,-0.06861 1.3792761,1.3792761 0 0 0 0.1121457,-0.08019 1.3792761,1.3792761 0 0 0 0.1035849,-0.091 1.3792761,1.3792761 0 0 0 0.093965,-0.100866 1.3792761,1.3792761 0 0 0 0.083441,-0.109743 1.3792761,1.3792761 0 0 0 0.072069,-0.117533 1.3792761,1.3792761 0 0 0 0.059971,-0.124161 1.3792761,1.3792761 0 0 0 0.047274,-0.129511 1.3792761,1.3792761 0 0 0 0.034098,-0.133576 1.3792761,1.3792761 0 0 0 0.020604,-0.136316 1.3792761,1.3792761 0 0 0 0.0069,-0.137696 2.2068421,2.2068416 0 0 0 -0.00346,-0.09768 1.3792761,1.3792761 0 0 0 -0.01661,-0.13674 A 1.3792761,1.3792761 0 0 0 3.844069,12.584153 1.3792761,1.3792761 0 0 0 3.800597,12.453317 1.3792761,1.3792761 0 0 0 3.744268,12.327464 1.3792761,1.3792761 0 0 0 3.675683,12.207863 1.3792761,1.3792761 0 0 0 3.595478,12.095717 1.3792761,1.3792761 0 0 0 3.504484,11.992125 a 1.3792761,1.3792761 0 0 0 -0.051325,-0.0478 1.3792761,1.3792761 0 0 0 -0.049555,-0.04616 1.3792761,1.3792761 0 0 0 -0.109758,-0.08344 1.3792761,1.3792761 0 0 0 -0.1175398,-0.07207 1.3792761,1.3792761 0 0 0 -0.1241368,-0.05999 1.3792761,1.3792761 0 0 0 -0.1295127,-0.04727 1.3792761,1.3792761 0 0 0 -0.1335796,-0.03411 1.3792761,1.3792761 0 0 0 -0.042234,-0.0065 z m 0.00364,0.309042 a 0.27585515,0.27585528 0 0 1 0.027538,0.0014 0.27585515,0.27585528 0 0 1 0.027273,0.004 0.27585515,0.27585528 0 0 1 0.026722,0.0068 0.27585515,0.27585528 0 0 1 0.025892,0.0094 0.27585515,0.27585528 0 0 1 0.02483,0.01202 0.27585515,0.27585528 0 0 1 0.023505,0.01435 0.27585515,0.27585528 0 0 1 0.021947,0.01673 0.27585515,0.27585528 0 0 1 0.02018,0.0188 0.27585515,0.27585528 0 0 1 0.018191,0.02071 0.27585515,0.27585528 0 0 1 0.016039,0.02242 0.27585515,0.27585528 0 0 1 0.013722,0.02393 0.27585515,0.27585528 0 0 1 0.011279,0.02517 0.27585515,0.27585528 0 0 1 0.00868,0.02615 0.27585515,0.27585528 0 0 1 0.00605,0.02689 0.27585515,0.27585528 0 0 1 0.00333,0.02736 0.27585515,0.27585528 0 0 1 6.898e-4,0.01952 0.27585515,0.27585528 0 0 1 -0.00138,0.02753 0.27585515,0.27585528 0 0 1 -0.00412,0.02726 0.27585515,0.27585528 0 0 1 -0.00682,0.02673 0.27585515,0.27585528 0 0 1 -0.00946,0.02592 0.27585515,0.27585528 0 0 1 -0.01199,0.02482 0.27585515,0.27585528 0 0 1 -0.014421,0.02353 0.27585515,0.27585528 0 0 1 -0.016684,0.02194 0.27585515,0.27585528 0 0 1 -0.0188,0.02018 0.27585515,0.27585528 0 0 1 -0.020709,0.01821 0.27585515,0.27585528 0 0 1 -0.022425,0.01601 0.27585515,0.27585528 0 0 1 -0.023929,0.0138 0.27585515,0.27585528 0 0 1 -0.025167,0.01124 0.27585515,0.27585528 0 0 1 -0.026175,0.0087 0.27585515,0.27585528 0 0 1 -0.026901,0.0061 0.27585515,0.27585528 0 0 1 -0.027378,0.0034 0.27585515,0.27585528 0 0 1 -0.019507,6.89e-4 0.27585515,0.27585528 0 0 1 -0.027538,-0.0014 0.27585515,0.27585528 0 0 1 -0.02727,-0.004 0.27585515,0.27585528 0 0 1 -0.026706,-0.0068 0.27585515,0.27585528 0 0 1 -0.02591,-0.0094 0.27585515,0.27585528 0 0 1 -0.02483,-0.01202 0.27585515,0.27585528 0 0 1 -0.023505,-0.01434 0.27585515,0.27585528 0 0 1 -0.02195,-0.01673 0.27585515,0.27585528 0 0 1 -0.02018,-0.0188 0.27585515,0.27585528 0 0 1 -0.018191,-0.02071 0.27585515,0.27585528 0 0 1 -0.016039,-0.02242 0.27585515,0.27585528 0 0 1 -0.013722,-0.02392 0.27585515,0.27585528 0 0 1 -0.01124,-0.02518 0.27585515,0.27585528 0 0 1 -0.0087,-0.02616 0.27585515,0.27585528 0 0 1 -0.00605,-0.02689 0.27585515,0.27585528 0 0 1 -0.00331,-0.02736 0.27585515,0.27585528 0 0 1 -6.898e-4,-0.0195 0.27585515,0.27585528 0 0 1 0.00136,-0.02756 0.27585515,0.27585528 0 0 1 0.00412,-0.02726 0.27585515,0.27585528 0 0 1 0.00682,-0.02673 0.27585515,0.27585528 0 0 1 0.00946,-0.02589 0.27585515,0.27585528 0 0 1 0.01199,-0.02483 0.27585515,0.27585528 0 0 1 0.014421,-0.02353 0.27585515,0.27585528 0 0 1 0.016684,-0.02194 0.27585515,0.27585528 0 0 1 0.0188,-0.02018 0.27585515,0.27585528 0 0 1 0.020709,-0.0182 0.27585515,0.27585528 0 0 1 0.022445,-0.01601 0.27585515,0.27585528 0 0 1 0.02391,-0.0138 0.27585515,0.27585528 0 0 1 0.025167,-0.01124 0.27585515,0.27585528 0 0 1 0.026175,-0.0087 0.27585515,0.27585528 0 0 1 0.026901,-0.0061 0.27585515,0.27585528 0 0 1 0.027378,-0.0034 0.27585515,0.27585528 0 0 1 0.019507,-6.9e-4 z"
       style="fill:url(#linearGradient1281);fill-opacity:1;stroke:none;stroke-width:0.0136889;stroke-linecap:butt;stroke-linejoin:bevel;stroke-miterlimit:4;stroke-dasharray:none;stroke-dashoffset:0;stroke-opacity:1;paint-order:normal" />
    <path
       inkscape:connector-curvature="0"
       id="path1492"
       d="m 2.9859143,11.573653 a 1.3792761,1.3792761 0 0 0 -0.097555,0.0035 1.3792761,1.3792761 0 0 0 -0.1368684,0.01655 1.3792761,1.3792761 0 0 0 -0.00465,0.001 1.3792761,1.3792761 0 0 1 0.042234,0.0065 1.3792761,1.3792761 0 0 1 0.1335796,0.0341 1.3792761,1.3792761 0 0 1 0.1295127,0.04728 1.3792761,1.3792761 0 0 1 0.1241368,0.05996 1.3792761,1.3792761 0 0 1 0.1175398,0.07207 1.3792761,1.3792761 0 0 1 0.1097581,0.08344 1.3792761,1.3792761 0 0 1 0.049555,0.04616 1.3792761,1.3792761 0 0 1 0.051325,0.0478 1.3792761,1.3792761 0 0 1 0.090993,0.103592 1.3792761,1.3792761 0 0 1 0.080205,0.112146 1.3792761,1.3792761 0 0 1 0.068585,0.119601 1.3792761,1.3792761 0 0 1 0.056329,0.125853 1.3792761,1.3792761 0 0 1 0.043471,0.130835 1.3792761,1.3792761 0 0 1 0.03019,0.134514 1.3792761,1.3792761 0 0 1 0.01661,0.13674 2.2068421,2.2068416 0 0 0 -0.00208,-0.05842 2.2068421,2.2068416 0 0 0 -0.02658,-0.218985 2.2068421,2.2068416 0 0 0 -0.048299,-0.215253 2.2068421,2.2068416 0 0 0 -0.069558,-0.209328 2.2068421,2.2068416 0 0 0 -0.090109,-0.201352 2.2068421,2.2068416 0 0 0 -0.1013019,-0.176618 2.2068421,2.2068416 0 0 0 -0.00846,-0.01472 2.2068421,2.2068416 0 0 0 -0.067949,-0.09503 1.3792761,1.3792761 0 0 0 -0.083016,-0.0303 1.3792761,1.3792761 0 0 0 -0.1335815,-0.0341 1.3792761,1.3792761 0 0 0 -0.1363221,-0.02061 1.3792761,1.3792761 0 0 0 -0.1376998,-0.007 z"
       style="fill:url(#linearGradient949);fill-opacity:1;stroke:none;stroke-width:0.0136895;stroke-linecap:butt;stroke-linejoin:bevel;stroke-miterlimit:4;stroke-dasharray:none;stroke-dashoffset:0;stroke-opacity:1;paint-order:normal" />
    <path
       inkscape:connector-curvature="0"
       id="path1494"
       d="m 3.4765323,11.665549 a 2.2068421,2.2068416 0 0 1 0.067949,0.09503 2.2068421,2.2068416 0 0 1 0.00846,0.01471 2.2068421,2.2068416 0 0 1 0.1013045,0.176617 2.2068421,2.2068416 0 0 1 0.090109,0.201352 2.2068421,2.2068416 0 0 1 0.069558,0.209329 2.2068421,2.2068416 0 0 1 0.0483,0.215252 2.2068421,2.2068416 0 0 1 0.026583,0.218985 2.2068421,2.2068416 0 0 1 0.00208,0.05843 1.3792761,1.3792761 0 0 1 1.73e-5,1.73e-4 1.3792761,1.3792761 0 0 1 0.00346,0.09756 0.82756568,0.82756554 0 0 1 0.00413,-0.08261 0.82756568,0.82756554 0 0 1 0.012364,-0.0818 0.82756568,0.82756554 0 0 1 0.020463,-0.08016 0.82756568,0.82756554 0 0 1 0.028367,-0.07771 0.82756568,0.82756554 0 0 1 0.035973,-0.07447 0.82756568,0.82756554 0 0 1 0.043242,-0.07052 0.82756568,0.82756554 0 0 1 0.050068,-0.06587 0.82756568,0.82756554 0 0 1 0.056383,-0.06052 0.82756568,0.82756554 0 0 1 0.058628,-0.0515 1.3792761,1.3792761 0 0 0 -0.057408,-0.100066 1.3792761,1.3792761 0 0 0 -0.080205,-0.112145 1.3792761,1.3792761 0 0 0 -0.090976,-0.10358 1.3792761,1.3792761 0 0 0 -0.1008795,-0.09398 1.3792761,1.3792761 0 0 0 -0.109758,-0.08344 1.3792761,1.3792761 0 0 0 -0.1175385,-0.07207 1.3792761,1.3792761 0 0 0 -0.063564,-0.0307 1.3792761,1.3792761 0 0 0 -0.060591,-0.02926 1.3792761,1.3792761 0 0 0 -0.046496,-0.01692 z"
       style="fill:url(#linearGradient952);fill-opacity:1;stroke:none;stroke-width:0.0136895;stroke-linecap:butt;stroke-linejoin:bevel;stroke-miterlimit:4;stroke-dasharray:none;stroke-dashoffset:0;stroke-opacity:1;paint-order:normal" />
    <path
       style="fill:#ffffff;fill-opacity:1;stroke:none;stroke-width:0.0136895;stroke-linecap:butt;stroke-linejoin:bevel;stroke-miterlimit:4;stroke-dasharray:none;stroke-dashoffset:0;stroke-opacity:1;paint-order:normal"
       d="m 2.7504813,11.903811 a 0.27585515,0.27585528 0 0 0 -0.019508,6.9e-4 0.27585515,0.27585528 0 0 0 -0.027378,0.0034 0.27585515,0.27585528 0 0 0 -0.026901,0.0061 0.27585515,0.27585528 0 0 0 -0.026175,0.0087 0.27585515,0.27585528 0 0 0 -0.025167,0.01124 0.27585515,0.27585528 0 0 0 -0.02391,0.0138 0.27585515,0.27585528 0 0 0 -0.022445,0.01601 0.27585515,0.27585528 0 0 0 -0.02071,0.01821 0.27585515,0.27585528 0 0 0 -0.0188,0.02018 0.27585515,0.27585528 0 0 0 -0.016684,0.02194 0.27585515,0.27585528 0 0 0 -0.014421,0.02353 0.27585515,0.27585528 0 0 0 -0.01199,0.02483 0.27585515,0.27585528 0 0 0 -0.00946,0.0259 0.27585515,0.27585528 0 0 0 -0.00682,0.02673 0.27585515,0.27585528 0 0 0 -0.00412,0.02726 0.27585515,0.27585528 0 0 0 -0.00136,0.02756 0.27585515,0.27585528 0 0 0 6.898e-4,0.01952 0.27585515,0.27585528 0 0 0 0.00331,0.02736 0.27585515,0.27585528 0 0 0 0.00605,0.02689 0.27585515,0.27585528 0 0 0 0.0087,0.02615 0.27585515,0.27585528 0 0 0 0.011253,0.02518 0.27585515,0.27585528 0 0 0 0.013721,0.02392 0.27585515,0.27585528 0 0 0 0.016039,0.02242 0.27585515,0.27585528 0 0 0 0.018191,0.02071 0.27585515,0.27585528 0 0 0 0.02018,0.0188 0.27585515,0.27585528 0 0 0 0.02195,0.01673 0.27585515,0.27585528 0 0 0 0.023504,0.01435 0.27585515,0.27585528 0 0 0 0.02483,0.01201 0.27585515,0.27585528 0 0 0 0.02591,0.0094 0.27585515,0.27585528 0 0 0 0.026706,0.0068 0.27585515,0.27585528 0 0 0 0.02727,0.004 0.27585515,0.27585528 0 0 0 0.027538,0.0014 0.27585515,0.27585528 0 0 0 0.019507,-6.9e-4 0.27585515,0.27585528 0 0 0 0.027378,-0.0034 0.27585515,0.27585528 0 0 0 0.026901,-0.0061 0.27585515,0.27585528 0 0 0 0.026175,-0.0087 0.27585515,0.27585528 0 0 0 0.025167,-0.01124 0.27585515,0.27585528 0 0 0 0.023928,-0.0138 0.27585515,0.27585528 0 0 0 0.022425,-0.01601 0.27585515,0.27585528 0 0 0 0.02071,-0.0182 0.27585515,0.27585528 0 0 0 0.0188,-0.02018 0.27585515,0.27585528 0 0 0 0.016684,-0.02194 0.27585515,0.27585528 0 0 0 0.014421,-0.02353 0.27585515,0.27585528 0 0 0 0.01199,-0.02481 0.27585515,0.27585528 0 0 0 0.00946,-0.02592 0.27585515,0.27585528 0 0 0 0.00682,-0.02673 0.27585515,0.27585528 0 0 0 0.00412,-0.02726 0.27585515,0.27585528 0 0 0 0.00138,-0.02753 0.27585515,0.27585528 0 0 0 -6.898e-4,-0.01952 0.27585515,0.27585528 0 0 0 -0.00333,-0.02736 0.27585515,0.27585528 0 0 0 -0.00605,-0.02689 0.27585515,0.27585528 0 0 0 -0.00868,-0.02616 0.27585515,0.27585528 0 0 0 -0.011279,-0.02517 0.27585515,0.27585528 0 0 0 -0.013722,-0.02393 0.27585515,0.27585528 0 0 0 -0.016039,-0.02242 0.27585515,0.27585528 0 0 0 -0.018191,-0.02071 0.27585515,0.27585528 0 0 0 -0.02018,-0.0188 0.27585515,0.27585528 0 0 0 -0.021947,-0.01673 0.27585515,0.27585528 0 0 0 -0.023505,-0.01434 0.27585515,0.27585528 0 0 0 -0.02483,-0.01202 0.27585515,0.27585528 0 0 0 -0.025893,-0.0094 0.27585515,0.27585528 0 0 0 -0.026722,-0.0068 0.27585515,0.27585528 0 0 0 -0.027273,-0.004 0.27585515,0.27585528 0 0 0 -0.027535,-0.0014 z"
       id="path1496"
       inkscape:connector-curvature="0" />
    <path
       style="fill:#ff00ff;fill-opacity:0.695;stroke:none;stroke-width:0.0136895;stroke-linecap:butt;stroke-linejoin:bevel;stroke-miterlimit:4;stroke-dasharray:none;stroke-dashoffset:0;stroke-opacity:1;paint-order:normal"
       d="m 3.8943239,12.952928 a 1.3792761,1.3792761 0 0 0 -0.00346,-0.09756 1.3792761,1.3792761 0 0 0 -1.74e-5,-1.71e-4 2.2068421,2.2068416 0 0 1 0.00346,0.09768 z"
       id="path1498"
       inkscape:connector-curvature="0" />
    <path
       inkscape:connector-curvature="0"
       id="path1500"
       d="m 3.8943239,12.952928 a 1.3792761,1.3792761 0 0 0 -0.00346,-0.09756 1.3792761,1.3792761 0 0 0 -1.74e-5,-1.71e-4 2.2068421,2.2068416 0 0 1 0.00346,0.09768 z"
       style="fill:#ff00ff;fill-opacity:0.695;stroke:none;stroke-width:0.0136895;stroke-linecap:butt;stroke-linejoin:bevel;stroke-miterlimit:4;stroke-dasharray:none;stroke-dashoffset:0;stroke-opacity:1;paint-order:normal" />
    <path
       inkscape:connector-curvature="0"
       id="path1502"
       d="m 2.7541243,14.311104 a 1.3792761,1.3792761 0 0 0 0.094089,0.01416 1.3792761,1.3792761 0 0 0 0.1377016,0.0068 1.3792761,1.3792761 0 0 0 0.097572,-0.0035 1.3792761,1.3792761 0 0 0 0.1368684,-0.01655 1.3792761,1.3792761 0 0 0 0.1345177,-0.03021 1.3792761,1.3792761 0 0 0 0.1216794,-0.04043 2.2068421,2.2068416 0 0 0 0.032313,-0.04251 2.2068421,2.2068416 0 0 0 0.115311,-0.18807 2.2068421,2.2068416 0 0 0 0.095945,-0.198627 2.2068421,2.2068416 0 0 0 0.07564,-0.207226 2.2068421,2.2068416 0 0 0 0.054578,-0.21373 2.2068421,2.2068416 0 0 0 0.032965,-0.21812 2.2068421,2.2068416 0 0 0 0.011021,-0.220309 1.3792761,1.3792761 0 0 1 -0.0069,0.137696 1.3792761,1.3792761 0 0 1 -0.020603,0.136317 1.3792761,1.3792761 0 0 1 -0.034098,0.133576 1.3792761,1.3792761 0 0 1 -0.047274,0.12951 1.3792761,1.3792761 0 0 1 -0.059971,0.124161 1.3792761,1.3792761 0 0 1 -0.072069,0.117534 1.3792761,1.3792761 0 0 1 -0.083441,0.109742 1.3792761,1.3792761 0 0 1 -0.093965,0.100867 1.3792761,1.3792761 0 0 1 -0.1035849,0.09099 1.3792761,1.3792761 0 0 1 -0.1121457,0.08019 1.3792761,1.3792761 0 0 1 -0.1195915,0.0686 1.3792761,1.3792761 0 0 1 -0.1258525,0.05631 1.3792761,1.3792761 0 0 1 -0.1308223,0.04346 1.3792761,1.3792761 0 0 1 -0.1298844,0.02917 z"
       style="fill:url(#linearGradient1716);fill-opacity:1;stroke:none;stroke-width:0.0136889;stroke-linecap:butt;stroke-linejoin:bevel;stroke-miterlimit:4;stroke-dasharray:none;stroke-dashoffset:0;stroke-opacity:1;paint-order:normal" />
    <path
       inkscape:connector-curvature="0"
       id="path1512"
       d="m 2.9859143,11.573653 a 1.3792761,1.3792761 0 0 0 -0.097555,0.0035 1.3792761,1.3792761 0 0 0 -0.1368684,0.01655 1.3792761,1.3792761 0 0 0 -0.00465,0.001 1.3792761,1.3792761 0 0 1 0.042234,0.0065 1.3792761,1.3792761 0 0 1 0.1335796,0.0341 1.3792761,1.3792761 0 0 1 0.1295127,0.04728 1.3792761,1.3792761 0 0 1 0.1241368,0.05996 1.3792761,1.3792761 0 0 1 0.1175398,0.07207 1.3792761,1.3792761 0 0 1 0.1097581,0.08344 1.3792761,1.3792761 0 0 1 0.049555,0.04616 1.3792761,1.3792761 0 0 1 0.051325,0.0478 1.3792761,1.3792761 0 0 1 0.090993,0.103592 1.3792761,1.3792761 0 0 1 0.080205,0.112146 1.3792761,1.3792761 0 0 1 0.068585,0.119601 1.3792761,1.3792761 0 0 1 0.056329,0.125853 1.3792761,1.3792761 0 0 1 0.043471,0.130835 1.3792761,1.3792761 0 0 1 0.03019,0.134514 1.3792761,1.3792761 0 0 1 0.01661,0.13674 2.2068421,2.2068416 0 0 0 -0.00208,-0.05842 2.2068421,2.2068416 0 0 0 -0.02658,-0.218985 2.2068421,2.2068416 0 0 0 -0.048299,-0.215253 2.2068421,2.2068416 0 0 0 -0.069558,-0.209328 2.2068421,2.2068416 0 0 0 -0.090109,-0.201352 2.2068421,2.2068416 0 0 0 -0.1013019,-0.176618 2.2068421,2.2068416 0 0 0 -0.00846,-0.01472 2.2068421,2.2068416 0 0 0 -0.067949,-0.09503 1.3792761,1.3792761 0 0 0 -0.083016,-0.0303 1.3792761,1.3792761 0 0 0 -0.1335815,-0.0341 1.3792761,1.3792761 0 0 0 -0.1363221,-0.02061 1.3792761,1.3792761 0 0 0 -0.1376998,-0.007 z"
       style="fill:url(#linearGradient1293);fill-opacity:1;stroke:none;stroke-width:0.0136895;stroke-linecap:butt;stroke-linejoin:bevel;stroke-miterlimit:4;stroke-dasharray:none;stroke-dashoffset:0;stroke-opacity:1;paint-order:normal" />
    <path
       inkscape:connector-curvature="0"
       id="path1514"
       d="m 3.4765323,11.665549 a 2.2068421,2.2068416 0 0 1 0.067949,0.09503 2.2068421,2.2068416 0 0 1 0.00846,0.01471 2.2068421,2.2068416 0 0 1 0.1013045,0.176617 2.2068421,2.2068416 0 0 1 0.090109,0.201352 2.2068421,2.2068416 0 0 1 0.069558,0.209329 2.2068421,2.2068416 0 0 1 0.0483,0.215252 2.2068421,2.2068416 0 0 1 0.026583,0.218985 2.2068421,2.2068416 0 0 1 0.00208,0.05843 1.3792761,1.3792761 0 0 1 1.73e-5,1.73e-4 1.3792761,1.3792761 0 0 1 0.00346,0.09756 0.82756568,0.82756554 0 0 1 0.00413,-0.08261 0.82756568,0.82756554 0 0 1 0.012364,-0.0818 0.82756568,0.82756554 0 0 1 0.020463,-0.08016 0.82756568,0.82756554 0 0 1 0.028367,-0.07771 0.82756568,0.82756554 0 0 1 0.035973,-0.07447 0.82756568,0.82756554 0 0 1 0.043242,-0.07052 0.82756568,0.82756554 0 0 1 0.050068,-0.06587 0.82756568,0.82756554 0 0 1 0.056383,-0.06052 0.82756568,0.82756554 0 0 1 0.058628,-0.0515 1.3792761,1.3792761 0 0 0 -0.057408,-0.100066 1.3792761,1.3792761 0 0 0 -0.080205,-0.112145 1.3792761,1.3792761 0 0 0 -0.090976,-0.10358 1.3792761,1.3792761 0 0 0 -0.1008795,-0.09398 1.3792761,1.3792761 0 0 0 -0.109758,-0.08344 1.3792761,1.3792761 0 0 0 -0.1175385,-0.07207 1.3792761,1.3792761 0 0 0 -0.063564,-0.0307 1.3792761,1.3792761 0 0 0 -0.060591,-0.02926 1.3792761,1.3792761 0 0 0 -0.046496,-0.01692 z"
       style="fill:url(#linearGradient1291);fill-opacity:1;stroke:none;stroke-width:0.0136895;stroke-linecap:butt;stroke-linejoin:bevel;stroke-miterlimit:4;stroke-dasharray:none;stroke-dashoffset:0;stroke-opacity:1;paint-order:normal" />
  </g>
</svg>
