<?xml version="1.0" encoding="UTF-8"?>
<svg height="128px" viewBox="0 0 128 128" width="128px" xmlns="http://www.w3.org/2000/svg" xmlns:xlink="http://www.w3.org/1999/xlink">
    <linearGradient id="a" gradientTransform="matrix(0.145643 0 0 0.253657 18.999628 229.796997)" gradientUnits="userSpaceOnUse" x1="88.595886" x2="536.595886" y1="-449.394012" y2="-449.394012">
        <stop offset="0" stop-color="#155998"/>
        <stop offset="0.0500001" stop-color="#3584e4"/>
        <stop offset="0.099807" stop-color="#155998"/>
        <stop offset="0.900001" stop-color="#155998"/>
        <stop offset="0.950001" stop-color="#3584e4"/>
        <stop offset="1" stop-color="#155998"/>
    </linearGradient>
    <linearGradient id="b" gradientTransform="matrix(0.145643 0 0 0.253657 7.834626 217.132019)" gradientUnits="userSpaceOnUse" x1="88.595886" x2="536.595886" y1="-449.394012" y2="-449.394012">
        <stop offset="0" stop-color="#3584e4"/>
        <stop offset="0.0500001" stop-color="#62a0ea"/>
        <stop offset="0.099807" stop-color="#3584e4"/>
        <stop offset="0.900001" stop-color="#3584e4"/>
        <stop offset="0.950001" stop-color="#62a0ea"/>
        <stop offset="1" stop-color="#3584e4"/>
    </linearGradient>
    <radialGradient id="c" cx="53.203938" cy="219.838715" gradientTransform="matrix(1 0 0 1.227273 0 -224.758121)" gradientUnits="userSpaceOnUse" r="32.624138">
        <stop offset="0" stop-color="#9ac3f1"/>
        <stop offset="1" stop-color="#6fa9eb"/>
    </radialGradient>
    <linearGradient id="d" gradientTransform="matrix(0.145643 0 0 0.253657 29.353327 205.529968)" gradientUnits="userSpaceOnUse" x1="88.595886" x2="536.595886" y1="-449.394012" y2="-449.394012">
        <stop offset="0" stop-color="#d6d4d2"/>
        <stop offset="0.0500001" stop-color="#fbfcff"/>
        <stop offset="0.099807" stop-color="#d6d4d2"/>
        <stop offset="0.900001" stop-color="#d6d4d2"/>
        <stop offset="0.950001" stop-color="#f3f3f3"/>
        <stop offset="1" stop-color="#d6d4d2"/>
    </linearGradient>
    <radialGradient id="e" cx="75.315201" cy="207.005157" gradientTransform="matrix(1 0 0 1.600156 0 -289.687682)" gradientUnits="userSpaceOnUse" r="14.49435">
        <stop offset="0" stop-color="#5699ea"/>
        <stop offset="1" stop-color="#1c71d8"/>
    </radialGradient>
    <path d="m 37.835938 38.695312 h 53.382812 c 3.277344 0 5.933594 2.652344 5.933594 5.929688 v 65.25 c 0 3.273438 -2.65625 5.929688 -5.933594 5.929688 h -53.382812 c -3.277344 0 -5.933594 -2.65625 -5.933594 -5.929688 v -65.25 c 0 -3.277344 2.65625 -5.929688 5.933594 -5.929688 z m 0 0" fill="url(#a)"/>
    <path d="m 37.835938 32.761719 h 53.382812 c 3.277344 0 5.933594 2.65625 5.933594 5.933593 v 68.210938 c 0 3.277344 -2.65625 5.933594 -5.933594 5.933594 h -53.382812 c -3.277344 0 -5.933594 -2.65625 -5.933594 -5.933594 v -68.210938 c 0 -3.277343 2.65625 -5.933593 5.933594 -5.933593 z m 0 0" fill="#2c76d1"/>
    <path d="m 26.667969 26.027344 h 53.386719 c 3.277343 0 5.929687 2.65625 5.929687 5.933594 v 65.246093 c 0 3.277344 -2.652344 5.933594 -5.929687 5.933594 h -53.386719 c -3.273438 0 -5.929688 -2.65625 -5.929688 -5.933594 v -65.246093 c 0 -3.277344 2.65625 -5.933594 5.929688 -5.933594 z m 0 0" fill="url(#b)"/>
    <path d="m 26.667969 20.097656 h 53.386719 c 3.277343 0 5.929687 2.65625 5.929687 5.929688 v 68.214844 c 0 3.277343 -2.652344 5.933593 -5.929687 5.933593 h -53.386719 c -3.273438 0 -5.929688 -2.65625 -5.929688 -5.933593 v -68.214844 c 0 -3.273438 2.65625 -5.929688 5.929688 -5.929688 z m 0 0" fill="url(#c)"/>
    <path d="m 48.1875 14.425781 h 53.386719 c 3.273437 0 5.929687 2.65625 5.929687 5.933594 v 65.246094 c 0 3.277343 -2.65625 5.933593 -5.929687 5.933593 h -53.386719 c -3.273438 0 -5.929688 -2.65625 -5.929688 -5.933593 v -65.246094 c 0 -3.277344 2.65625 -5.933594 5.929688 -5.933594 z m 0 0" fill="url(#d)"/>
    <path d="m 48.1875 8.496094 h 53.386719 c 3.273437 0 5.929687 2.65625 5.929687 5.929687 v 68.214844 c 0 3.277344 -2.65625 5.933594 -5.929687 5.933594 h -53.386719 c -3.273438 0 -5.929688 -2.65625 -5.929688 -5.933594 v -68.214844 c 0 -3.273437 2.65625 -5.929687 5.929688 -5.929687 z m 0 0" fill="#f6f5f4"/>
    <g fill-rule="evenodd">
        <path d="m 77.691406 26.339844 c -0.96875 0.03125 -1.859375 0.542968 -2.371094 1.367187 l -14.492187 23.191407 c -0.289063 0.460937 -0.441406 0.992187 -0.4375 1.535156 h -0.003906 v 2.898437 h 8.695312 v 14.496094 c 0.007813 2.90625 3.8125 4 5.359375 1.53125 l 14.492188 -23.1875 c 0.289062 -0.460937 0.441406 -0.996094 0.4375 -1.539063 h 0.003906 v -2.898437 h -8.695312 v -14.492187 c 0 -0.785157 -0.316407 -1.535157 -0.878907 -2.082032 s -1.324219 -0.84375 -2.109375 -0.820312 z m 0 0" fill="#1a5fb4"/>
        <path d="m 77.691406 24.339844 c -0.96875 0.03125 -1.859375 0.542968 -2.371094 1.367187 l -14.492187 23.191407 c -0.289063 0.460937 -0.441406 0.992187 -0.4375 1.535156 h -0.003906 v 2.898437 h 8.695312 v 14.496094 c 0.007813 2.90625 3.8125 4 5.359375 1.53125 l 14.492188 -23.1875 c 0.289062 -0.460937 0.441406 -0.996094 0.4375 -1.539063 h 0.003906 v -2.898437 h -8.695312 v -14.492187 c 0 -0.785157 -0.316407 -1.535157 -0.878907 -2.082032 s -1.324219 -0.84375 -2.109375 -0.820312 z m 0 0" fill="url(#e)"/>
    </g>
</svg>
