<svg xmlns="http://www.w3.org/2000/svg" height="128" width="128" xmlns:v="https://vecta.io/nano"><linearGradient id="A" gradientUnits="userSpaceOnUse" x1="31.903" x2="97.151" y1="115.805" y2="115.805"><stop offset="0" stop-color="#155998"/><stop offset=".05" stop-color="#3584e4"/><stop offset=".1" stop-color="#155998"/><stop offset=".9" stop-color="#155998"/><stop offset=".95" stop-color="#3584e4"/><stop offset="1" stop-color="#155998"/></linearGradient><linearGradient id="B" gradientUnits="userSpaceOnUse" x1="20.738" x2="85.986" y1="103.14" y2="103.14"><stop offset="0" stop-color="#3584e4"/><stop offset=".05" stop-color="#62a0ea"/><stop offset=".1" stop-color="#3584e4"/><stop offset=".9" stop-color="#3584e4"/><stop offset=".95" stop-color="#62a0ea"/><stop offset="1" stop-color="#3584e4"/></linearGradient><radialGradient id="C" cx="53.204" cy="219.839" gradientTransform="matrix(1 0 0 1.227273 0 -224.758121)" gradientUnits="userSpaceOnUse" r="32.624"><stop offset="0" stop-color="#9ac3f1"/><stop offset="1" stop-color="#6fa9eb"/></radialGradient><linearGradient id="D" gradientUnits="userSpaceOnUse" x1="42.257" x2="107.505" y1="91.538" y2="91.538"><stop offset="0" stop-color="#d6d4d2"/><stop offset=".05" stop-color="#fbfcff"/><stop offset=".1" stop-color="#d6d4d2"/><stop offset=".9" stop-color="#d6d4d2"/><stop offset=".95" stop-color="#f3f3f3"/><stop offset="1" stop-color="#d6d4d2"/></linearGradient><radialGradient id="E" cx="75.315" cy="207.005" gradientTransform="matrix(1 0 0 1.600156 0 -289.687682)" gradientUnits="userSpaceOnUse" r="14.494"><stop offset="0" stop-color="#5699ea"/><stop offset="1" stop-color="#1c71d8"/></radialGradient><path d="M37.836 38.695h53.383a5.93 5.93 0 0 1 5.934 5.93v65.25c0 3.273-2.656 5.93-5.934 5.93H37.836c-3.277 0-5.934-2.656-5.934-5.93v-65.25a5.93 5.93 0 0 1 5.934-5.93zm0 0" fill="url(#A)"/><path d="M37.836 32.762h53.383c3.277 0 5.934 2.656 5.934 5.934v68.211c0 3.277-2.656 5.934-5.934 5.934H37.836c-3.277 0-5.934-2.656-5.934-5.934V38.695c0-3.277 2.656-5.934 5.934-5.934zm0 0" fill="#2c76d1"/><path d="M26.668 26.027h53.387a5.93 5.93 0 0 1 5.93 5.934v65.246a5.93 5.93 0 0 1-5.93 5.934H26.668c-3.273 0-5.93-2.656-5.93-5.934V31.961c0-3.277 2.656-5.934 5.93-5.934zm0 0" fill="url(#B)"/><path d="M26.668 20.098h53.387a5.93 5.93 0 0 1 5.93 5.93v68.215a5.93 5.93 0 0 1-5.93 5.934H26.668c-3.273 0-5.93-2.656-5.93-5.934V26.027c0-3.273 2.656-5.93 5.93-5.93zm0 0" fill="url(#C)"/><path d="M48.188 14.426h53.387c3.273 0 5.93 2.656 5.93 5.934v65.246c0 3.277-2.656 5.934-5.93 5.934H48.188c-3.273 0-5.93-2.656-5.93-5.934V20.359c0-3.277 2.656-5.934 5.93-5.934zm0 0" fill="url(#D)"/><path d="M48.188 8.496h53.387c3.273 0 5.93 2.656 5.93 5.93v68.215c0 3.277-2.656 5.934-5.93 5.934H48.188c-3.273 0-5.93-2.656-5.93-5.934V14.426c0-3.273 2.656-5.93 5.93-5.93zm0 0" fill="#f6f5f4"/><g fill-rule="evenodd"><path d="M77.691 26.34a2.9 2.9 0 0 0-2.371 1.367L60.828 50.898a2.85 2.85 0 0 0-.437 1.535h-.004v2.898h8.695v14.496c.008 2.906 3.813 4 5.359 1.531l14.492-23.187a2.86 2.86 0 0 0 .438-1.539h.004v-2.898H80.68V29.242a2.9 2.9 0 0 0-.879-2.082c-.562-.547-1.324-.844-2.109-.82zm0 0" fill="#1a5fb4"/><path d="M77.691 24.34a2.9 2.9 0 0 0-2.371 1.367L60.828 48.898a2.85 2.85 0 0 0-.437 1.535h-.004v2.898h8.695v14.496c.008 2.906 3.813 4 5.359 1.531l14.492-23.187a2.86 2.86 0 0 0 .438-1.539h.004v-2.898H80.68V27.242a2.9 2.9 0 0 0-.879-2.082c-.562-.547-1.324-.844-2.109-.82zm0 0" fill="url(#E)"/></g></svg>