<?xml version="1.0" encoding="UTF-8"?>
<svg height="128px" viewBox="0 0 128 128" width="128px" xmlns="http://www.w3.org/2000/svg" xmlns:xlink="http://www.w3.org/1999/xlink">
    <linearGradient id="a" gradientTransform="matrix(0.246473 0 0 0.199527 275.094421 82.957718)" gradientUnits="userSpaceOnUse" x1="-1029.630737" x2="-617.100891" y1="44" y2="44">
        <stop offset="0" stop-color="#babdb6"/>
        <stop offset="0.0416667" stop-color="#f6f5f4"/>
        <stop offset="0.0833333" stop-color="#d5d3cf"/>
        <stop offset="0.916667" stop-color="#deddda"/>
        <stop offset="0.958333" stop-color="#f6f5f4"/>
        <stop offset="1" stop-color="#babdb6"/>
    </linearGradient>
    <linearGradient id="b" gradientUnits="userSpaceOnUse" x1="92.037376" x2="123.505249" y1="128.470947" y2="128.208496">
        <stop offset="0" stop-color="#e5a50a"/>
        <stop offset="0.65187" stop-color="#f2be10"/>
        <stop offset="0.827597" stop-color="#f8e45c"/>
        <stop offset="1" stop-color="#e5a50a"/>
    </linearGradient>
    <linearGradient id="c" gradientUnits="userSpaceOnUse" x1="51.965794" x2="20.730225" y1="128.410156" y2="128.220703">
        <stop offset="0" stop-color="#c64600"/>
        <stop offset="0.713011" stop-color="#c64600"/>
        <stop offset="0.854648" stop-color="#ff7800"/>
        <stop offset="1" stop-color="#c64600"/>
    </linearGradient>
    <clipPath id="d">
        <rect height="152" width="192"/>
    </clipPath>
    <g clip-path="url(#d)" transform="matrix(1 0 0 1 -8 -16)">
        <path d="m 28.621094 85.914062 h 86.757812 c 4.355469 0 7.886719 3.53125 7.886719 7.886719 v 31.550781 c 0 4.355469 -3.53125 7.886719 -7.886719 7.886719 h -86.757812 c -4.355469 0 -7.886719 -3.53125 -7.886719 -7.886719 v -31.550781 c 0 -4.355469 3.53125 -7.886719 7.886719 -7.886719 z m 0 0" fill="url(#a)"/>
        <path d="m 28.621094 30.707031 h 86.757812 c 4.355469 0 7.886719 3.53125 7.886719 7.886719 v 82.8125 c 0 4.355469 -3.53125 7.886719 -7.886719 7.886719 h -86.757812 c -4.355469 0 -7.886719 -3.53125 -7.886719 -7.886719 v -82.8125 c 0 -4.355469 3.53125 -7.886719 7.886719 -7.886719 z m 0 0" fill="#deddda"/>
        <path d="m 56.402344 28.535156 h 31.4375 v 30.761719 h -31.4375 z m 0 0" fill="#26a269"/>
        <path d="m 56.402344 26.535156 h 31.4375 v 30.761719 h -31.4375 z m 0 0" fill="#33d17a"/>
        <path d="m 116.554688 28.554688 c 3.785156 0.003906 6.667968 3.609374 6.699218 7.089843 l 0.21875 23.652344 h -31.433594 v -30.761719 z m 0 0" fill="#1a5fb4"/>
        <path d="m 20.527344 63.605469 h 31.4375 v 30.757812 h -31.4375 z m 0 0" fill="#26a269"/>
        <path d="m 20.527344 61.605469 h 31.4375 v 30.757812 h -31.4375 z m 0 0" fill="#33d17a"/>
        <path d="m 56.402344 63.632812 h 31.4375 v 30.761719 h -31.4375 z m 0 0" fill="#e5a50a"/>
        <path d="m 56.402344 61.632812 h 31.4375 v 30.761719 h -31.4375 z m 0 0" fill="#f6d32d"/>
        <path d="m 92.039062 63.605469 h 31.433594 v 30.757812 h -31.433594 z m 0 0" fill="#26a269"/>
        <path d="m 92.039062 61.605469 h 31.433594 v 30.757812 h -31.433594 z m 0 0" fill="#33d17a"/>
        <path d="m 116.554688 129.414062 c 3.785156 -0.003906 6.667968 -3.605468 6.699218 -7.089843 l 0.21875 -23.652344 h -31.433594 v 30.761719 z m 0 0" fill="url(#b)"/>
        <path d="m 116.554688 127.414062 c 3.785156 -0.003906 6.667968 -3.605468 6.699218 -7.089843 l 0.21875 -23.652344 h -31.433594 v 30.761719 z m 0 0" fill="#f6d32d"/>
        <path d="m 56.28125 98.671875 h 31.4375 v 30.761719 h -31.4375 z m 0 0" fill="#1a5fb4"/>
        <path d="m 56.28125 96.671875 h 31.4375 v 30.761719 h -31.4375 z m 0 0" fill="#3584e4"/>
        <path d="m 27.449219 129.414062 c -3.789063 -0.003906 -6.667969 -3.605468 -6.699219 -7.089843 l -0.222656 -23.652344 h 31.4375 v 30.761719 z m 0 0" fill="url(#c)"/>
        <path d="m 27.449219 127.414062 c -3.789063 -0.003906 -6.667969 -3.605468 -6.699219 -7.089843 l -0.222656 -23.652344 h 31.4375 v 30.761719 z m 0 0" fill="#ff7800"/>
        <path d="m 116.554688 26.554688 c 3.785156 0.003906 6.667968 3.609374 6.699218 7.089843 l 0.21875 23.652344 h -31.433594 v -30.761719 z m 0 0" fill="#3584e4"/>
        <path d="m 27.449219 28.554688 c -3.789063 0.003906 -6.667969 3.609374 -6.699219 7.089843 l -0.222656 23.652344 h 31.4375 v -30.761719 z m 0 0" fill="#c64600"/>
        <path d="m 27.449219 26.554688 c -3.789063 0.003906 -6.667969 3.609374 -6.699219 7.089843 l -0.222656 23.652344 h 31.4375 v -30.761719 z m 0 0" fill="#ff7800"/>
        <g fill="#ffffff">
            <path d="m 72.121094 68.113281 c -5.414063 0.007813 -10.136719 3.675781 -11.480469 8.914063 c 1.355469 5.230468 6.078125 8.882812 11.480469 8.886718 c 5.414062 -0.003906 10.136718 -3.671874 11.480468 -8.917968 c -1.355468 -5.226563 -6.078124 -8.875 -11.480468 -8.882813 z m 0 2.96875 c 3.28125 0 5.933594 2.652344 5.933594 5.933594 c 0 3.277344 -2.652344 5.933594 -5.933594 5.933594 s -5.933594 -2.65625 -5.933594 -5.933594 c 0 -3.28125 2.652344 -5.933594 5.933594 -5.933594 z m 0 0"/>
            <path d="m 75.089844 77.015625 c 0 1.640625 -1.328125 2.964844 -2.96875 2.964844 s -2.96875 -1.324219 -2.96875 -2.964844 s 1.328125 -2.96875 2.96875 -2.96875 s 2.96875 1.328125 2.96875 2.96875 z m 0 0"/>
            <path d="m 107.753906 103.152344 c -5.410156 0.007812 -10.132812 3.675781 -11.476562 8.914062 c 1.355468 5.230469 6.078125 8.882813 11.476562 8.886719 c 5.414063 -0.003906 10.136719 -3.671875 11.480469 -8.917969 c -1.355469 -5.226562 -6.078125 -8.875 -11.480469 -8.882812 z m 0 2.96875 c 3.28125 0 5.9375 2.652344 5.9375 5.933594 c 0 3.277343 -2.65625 5.933593 -5.9375 5.933593 c -3.277344 0 -5.933594 -2.65625 -5.933594 -5.933593 c 0 -3.28125 2.65625 -5.933594 5.933594 -5.933594 z m 0 0"/>
            <path d="m 110.722656 112.054688 c 0 1.640624 -1.328125 2.964843 -2.96875 2.964843 c -1.636718 0 -2.964844 -1.324219 -2.964844 -2.964843 c 0 -1.640626 1.328126 -2.96875 2.964844 -2.96875 c 1.640625 0 2.96875 1.328124 2.96875 2.96875 z m 0 0"/>
            <path d="m 101.296875 67.945312 c -0.589844 0 -1.109375 0.402344 -1.25 0.976563 l -1.289063 5.167969 c -0.027343 0.101562 -0.042968 0.207031 -0.042968 0.3125 v 0.050781 c -0.726563 0.121094 -1.289063 0.726563 -1.289063 1.492187 v 5.957032 c 0 0.761718 0.5625 1.367187 1.289063 1.488281 v 1.988281 c 0 0.359375 0.289062 0.644532 0.648437 0.644532 h 2.582031 c 0.355469 0 0.644532 -0.285157 0.644532 -0.644532 v -1.9375 h 10.332031 v 1.9375 c 0 0.359375 0.285156 0.644532 0.644531 0.644532 h 2.582032 c 0.359374 0 0.648437 -0.285157 0.648437 -0.644532 v -1.988281 c 0.730469 -0.121094 1.289063 -0.726563 1.289063 -1.492187 v -5.957032 c 0 -0.761718 -0.558594 -1.367187 -1.289063 -1.488281 v -0.050781 c 0 -0.105469 -0.011719 -0.210938 -0.035156 -0.3125 l -1.292969 -5.167969 c -0.144531 -0.574219 -0.660156 -0.976563 -1.257812 -0.976563 z m 1.011719 2.582032 h 10.894531 l 0.96875 3.875 h -12.832031 z m -0.363282 6.457031 c 1.070313 0 1.9375 0.867187 1.9375 1.9375 s -0.867187 1.9375 -1.9375 1.9375 c -1.070312 0 -1.9375 -0.867187 -1.9375 -1.9375 s 0.867188 -1.9375 1.9375 -1.9375 z m 11.621094 0 c 1.070313 0 1.9375 0.867187 1.9375 1.9375 s -0.867187 1.9375 -1.9375 1.9375 c -1.070312 0 -1.9375 -0.867187 -1.9375 -1.9375 s 0.867188 -1.9375 1.9375 -1.9375 z m 0 0" fill-rule="evenodd"/>
            <path d="m 29.789062 67.945312 c -0.589843 0 -1.109374 0.402344 -1.25 0.976563 l -1.292968 5.167969 c -0.023438 0.101562 -0.039063 0.207031 -0.039063 0.3125 v 0.050781 c -0.726562 0.121094 -1.289062 0.726563 -1.289062 1.492187 v 5.957032 c 0 0.761718 0.5625 1.367187 1.289062 1.488281 v 1.988281 c 0 0.359375 0.289063 0.644532 0.644531 0.644532 h 2.585938 c 0.355469 0 0.644531 -0.285157 0.644531 -0.644532 v -1.9375 h 10.332031 v 1.9375 c 0 0.359375 0.285157 0.644532 0.644532 0.644532 h 2.582031 c 0.359375 0 0.648437 -0.285157 0.648437 -0.644532 v -1.988281 c 0.730469 -0.121094 1.289063 -0.726563 1.289063 -1.492187 v -5.957032 c 0 -0.761718 -0.558594 -1.367187 -1.289063 -1.488281 v -0.050781 c 0 -0.105469 -0.011718 -0.210938 -0.039062 -0.3125 l -1.289062 -5.167969 c -0.148438 -0.574219 -0.660157 -0.976563 -1.257813 -0.976563 z m 1.011719 2.582032 h 10.894531 l 0.96875 3.875 h -12.832031 z m -0.363281 6.457031 c 1.066406 0 1.9375 0.867187 1.9375 1.9375 s -0.871094 1.9375 -1.9375 1.9375 c -1.070312 0 -1.9375 -0.867187 -1.9375 -1.9375 s 0.867188 -1.9375 1.9375 -1.9375 z m 11.621094 0 c 1.070312 0 1.9375 0.867187 1.9375 1.9375 s -0.867188 1.9375 -1.9375 1.9375 c -1.070313 0 -1.9375 -0.867187 -1.9375 -1.9375 s 0.867187 -1.9375 1.9375 -1.9375 z m 0 0" fill-rule="evenodd"/>
        </g>
        <path d="m 69.019531 275.746094 l -5.015625 -2.585938 l -4.996094 2.601563 l 0.914063 -5.574219 l -4.019531 -3.945312 l 5.578125 -0.855469 l 2.511719 -5.039063 l 2.542968 5.042969 l 5.566406 0.835937 l -4.011718 3.96875 z m 0 0" fill="none" stroke="#ffffff" stroke-width="2.79173" transform="matrix(1 0 0 1 8 -156)"/>
        <path d="m 104.773438 205.605469 l -5.015626 -2.585938 l -4.992187 2.601563 l 0.910156 -5.570313 l -4.019531 -3.949219 l 5.578125 -0.855468 l 2.511719 -5.039063 l 2.542968 5.042969 l 5.566407 0.835938 l -4.011719 3.96875 z m 0 0" fill="none" stroke="#ffffff" stroke-width="2.79173" transform="matrix(1 0 0 1 8 -156)"/>
        <path d="m 71.808594 32.464844 c -2.625 0.039062 -6.15625 1 -6.097656 4.085937 c 0.0625 3.21875 3.632812 2.066407 3.921874 3.382813 c 0.042969 -0.054688 0.109376 -0.101563 0.15625 -0.15625 c 0.246094 -0.265625 0.492188 -0.480469 0.738282 -0.738282 c 0.390625 -0.4375 0.792968 -0.84375 1.203125 -1.28125 c 1.378906 -1.46875 1.4375 -1.558593 4.726562 -4.046874 c -1.289062 -0.773438 -2.8125 -1.203126 -4.105469 -1.246094 c -0.164062 -0.003906 -0.367187 0 -0.542968 0 z m -2.367188 1.90625 c 1.027344 0 1.863282 0.835937 1.863282 1.867187 c -0.003907 1.03125 -0.839844 1.867188 -1.871094 1.863281 c -1.027344 0 -1.863282 -0.835937 -1.863282 -1.867187 c 0.003907 -1.03125 0.839844 -1.863281 1.871094 -1.863281 z m 9.046875 0.824218 c -1.765625 2.78125 -2.949219 4.425782 -4.195312 5.710938 c -0.796875 0.816406 -1.449219 1.632812 -2.019531 2.214844 c -1.042969 1.109375 -2.410157 2.417968 -3.921876 3.851562 c 0.078126 1.832032 1.007813 3.421875 4.039063 4.007813 c 4.851563 0.941406 9.992187 -2.269531 9.476563 -8.789063 c -0.222657 -2.800781 -1.75 -5.332031 -3.378907 -6.996094 z m 0.425781 4.738282 c 0.6875 0 1.246094 0.558594 1.246094 1.246094 s -0.558594 1.246093 -1.246094 1.246093 s -1.246093 -0.558593 -1.246093 -1.246093 s 0.558593 -1.246094 1.246093 -1.246094 z m -0.777343 3.734375 c 0.671875 0.023437 1.207031 0.574219 1.207031 1.246093 c 0 0.671876 -0.535156 1.222657 -1.207031 1.242188 c -0.6875 0 -1.242188 -0.554688 -1.242188 -1.242188 s 0.554688 -1.246093 1.242188 -1.246093 z m -6.210938 2.488281 c 0.6875 0 1.246094 0.558594 1.246094 1.246094 s -0.558594 1.242187 -1.246094 1.242187 s -1.246093 -0.554687 -1.246093 -1.242187 s 0.558593 -1.246094 1.246093 -1.246094 z m 3.726563 0 c 0.6875 0 1.246094 0.558594 1.246094 1.246094 s -0.558594 1.242187 -1.246094 1.242187 s -1.246094 -0.554687 -1.246094 -1.242187 s 0.558594 -1.246094 1.246094 -1.246094 z m -13.667969 3.113281 c 1.933594 0 1.734375 -2.226562 2.671875 -2.847656 c 1.089844 -0.71875 2.039062 0.171875 2.230469 0.90625 c 0.238281 0.921875 -0.144531 2.027344 -1.40625 2.34375 c -1.335938 0.335937 -3.3125 0.34375 -3.496094 -0.40625 z m 0 0" fill="#ffffff"/>
        <path d="m 79.457031 32.464844 c -2.238281 1.617187 -5.234375 4.113281 -7.609375 6.640625 c -0.21875 0.230469 -0.425781 0.453125 -0.628906 0.679687 c -0.128906 0.136719 -0.265625 0.246094 -0.390625 0.382813 c -0.082031 0.097656 -0.160156 0.203125 -0.238281 0.300781 c -2.332032 2.578125 -4.628906 5.824219 -6.121094 8.253906 c 3.707031 -2.859375 6.121094 -5.183594 7.652344 -6.808594 c 0.296875 -0.304687 0.660156 -0.703124 1.058594 -1.148437 c 1.5 -1.660156 3.640624 -4.28125 6.277343 -8.300781 z m 0 0" fill="#ffffff"/>
        <path d="m 27.652344 33.320312 v 7.367188 c 0 2.023438 1.664062 3.683594 3.683594 3.683594 h 0.667968 c 0.65625 1.136718 1.746094 1.964844 3.015625 2.292968 v 1.390626 h -2.457031 c 0 0.613281 -0.546875 1.226562 -1.226562 1.226562 v 1.226562 h 9.820312 v -1.226562 c -0.621094 0 -1.226562 -0.519531 -1.226562 -1.226562 h -2.453126 v -1.390626 c 1.269532 -0.332031 2.359376 -1.15625 3.015626 -2.292968 h 0.664062 c 2.019531 0 3.683594 -1.660156 3.683594 -3.683594 v -7.367188 z m 2.457031 2.457032 h 1.226563 v 6.136718 c -0.636719 0 -1.226563 -0.589843 -1.226563 -1.226562 z m 11.046875 0 h 1.230469 v 4.910156 c 0 0.636719 -0.589844 1.226562 -1.230469 1.226562 z m 0 0" fill="#ffffff"/>
        <path d="m 27.652344 103.460938 v 7.367187 c 0 2.023437 1.664062 3.679687 3.683594 3.679687 h 0.667968 c 0.65625 1.136719 1.746094 1.96875 3.015625 2.292969 v 1.390625 h -2.457031 c 0 0.613282 -0.546875 1.230469 -1.226562 1.230469 v 1.226563 h 9.820312 v -1.226563 c -0.621094 0 -1.226562 -0.519531 -1.226562 -1.230469 h -2.453126 v -1.390625 c 1.269532 -0.328125 2.359376 -1.15625 3.015626 -2.292969 h 0.664062 c 2.019531 0 3.683594 -1.65625 3.683594 -3.679687 v -7.367187 z m 2.457031 2.453124 h 1.226563 v 6.140626 c -0.636719 0 -1.226563 -0.589844 -1.226563 -1.226563 z m 11.046875 0 h 1.230469 v 4.914063 c 0 0.636719 -0.589844 1.226563 -1.230469 1.226563 z m 0 0" fill="#ffffff"/>
        <path d="m 170.65625 16 c -1.46875 0 -2.65625 1.1875 -2.65625 2.65625 v 4.253906 h 6.726562 v -6.910156 z m 6.617188 0 v 6.910156 h 6.726562 v -4.253906 c 0 -1.46875 -1.1875 -2.65625 -2.65625 -2.65625 z m 3.445312 1.125 l 0.730469 1.453125 l 1.601562 0.238281 l -1.152343 1.140625 l 0.171874 1.023438 l 0.097657 0.578125 l -1.445313 -0.746094 l -1.4375 0.75 l 0.261719 -1.605469 l -1.15625 -1.132812 l 1.605469 -0.246094 z m -10.617188 0.457031 h 2.710938 c 0.128906 0 0.238281 0.085938 0.269531 0.207031 l 0.269531 1.085938 c 0.003907 0.019531 0.003907 0.042969 0.003907 0.066406 v 0.011719 c 0.15625 0.023437 0.273437 0.152344 0.273437 0.3125 v 1.25 c 0 0.164063 -0.117187 0.289063 -0.273437 0.316406 v 0.417969 c 0 0.074219 -0.058594 0.136719 -0.132813 0.136719 h -0.542968 c -0.074219 0 -0.136719 -0.0625 -0.136719 -0.136719 v -0.40625 h -2.171875 v 0.40625 c 0 0.074219 -0.0625 0.136719 -0.136719 0.136719 h -0.542969 c -0.074218 0 -0.136718 -0.0625 -0.136718 -0.136719 v -0.417969 c -0.152344 -0.027343 -0.269532 -0.152343 -0.269532 -0.3125 v -1.253906 c 0 -0.160156 0.117188 -0.289063 0.269532 -0.3125 v -0.011719 c 0 -0.023437 0.003906 -0.046875 0.007812 -0.066406 l 0.273438 -1.085938 c 0.03125 -0.121093 0.140624 -0.207031 0.265624 -0.207031 z m 0.210938 0.542969 l -0.207031 0.816406 h 2.699219 l -0.199219 -0.816406 z m 10.40625 0.3125 l -0.332031 0.671875 l -0.746094 0.117187 l 0.535156 0.527344 l -0.121093 0.746094 l 0.667968 -0.347656 l 0.671875 0.347656 l -0.125 -0.746094 l 0.535157 -0.53125 l -0.742188 -0.109375 z m -10.480469 1.046875 c -0.226562 0 -0.410156 0.183594 -0.410156 0.40625 c 0 0.226563 0.183594 0.40625 0.410156 0.40625 c 0.222657 0 0.40625 -0.179687 0.40625 -0.40625 c 0 -0.222656 -0.183593 -0.40625 -0.40625 -0.40625 z m 2.441407 0 c -0.226563 0 -0.410157 0.183594 -0.410157 0.40625 c 0 0.226563 0.183594 0.40625 0.410157 0.40625 c 0.226562 0 0.40625 -0.179687 0.40625 -0.40625 c 0 -0.222656 -0.179688 -0.40625 -0.40625 -0.40625 z m -4.679688 5.976563 v 3.882812 c 0 1.46875 1.1875 2.65625 2.65625 2.65625 h 4.070312 v -6.539062 z m 9.273438 0 v 6.539062 h 4.070312 c 1.46875 0 2.65625 -1.1875 2.65625 -2.65625 v -3.882812 z m -5.796876 1.066406 c 1.207032 0 2.265626 0.816406 2.570313 1.988281 c -0.300781 1.175781 -1.359375 1.996094 -2.570313 2 c -1.210937 -0.003906 -2.269531 -0.820313 -2.574218 -1.996094 c 0.300781 -1.171875 1.359375 -1.992187 2.574218 -1.992187 z m 7.09375 0.136718 h 4.191407 v 1.796876 c 0 0.492187 -0.40625 0.898437 -0.898438 0.898437 h -0.164062 c -0.160157 0.277344 -0.425781 0.476563 -0.738281 0.558594 v 0.335937 h 0.601562 c 0 0.175782 0.148438 0.304688 0.300781 0.304688 v 0.296875 h -2.394531 v -0.296875 c 0.164062 0 0.296875 -0.152344 0.296875 -0.304688 h 0.597656 v -0.335937 c -0.308593 -0.078125 -0.574219 -0.28125 -0.734375 -0.558594 h -0.160156 c -0.496094 0 -0.898438 -0.40625 -0.898438 -0.898437 z m -7.09375 0.523438 c -0.738281 0 -1.332031 0.597656 -1.332031 1.332031 s 0.59375 1.328125 1.332031 1.328125 c 0.734376 0 1.328126 -0.59375 1.328126 -1.328125 s -0.59375 -1.332031 -1.328126 -1.332031 z m 7.691407 0.078125 v 1.195313 c 0 0.15625 0.144531 0.300781 0.300781 0.300781 v -1.496094 z m 2.695312 0 v 1.496094 c 0.152344 0 0.300781 -0.144531 0.300781 -0.300781 v -1.195313 z m -10.386719 0.589844 c 0.367188 0 0.664063 0.296875 0.664063 0.664062 c 0 0.367188 -0.296875 0.664063 -0.664063 0.664063 c -0.371093 0 -0.664062 -0.296875 -0.664062 -0.664063 c 0 -0.367187 0.292969 -0.664062 0.664062 -0.664062 z m 0 0" fill="#241f31"/>
    </g>
</svg>
