<svg xmlns="http://www.w3.org/2000/svg" height="128" width="128" xmlns:v="https://vecta.io/nano"><linearGradient id="A" gradientUnits="userSpaceOnUse" x1="21.318" x2="122.996" y1="91.737" y2="91.737"><stop offset="0" stop-color="#babdb6"/><stop offset=".042" stop-color="#f6f5f4"/><stop offset=".083" stop-color="#d5d3cf"/><stop offset=".917" stop-color="#deddda"/><stop offset=".958" stop-color="#f6f5f4"/><stop offset="1" stop-color="#babdb6"/></linearGradient><linearGradient id="B" gradientUnits="userSpaceOnUse" x1="92.037" x2="123.505" y1="128.471" y2="128.208"><stop offset="0" stop-color="#e5a50a"/><stop offset=".652" stop-color="#f2be10"/><stop offset=".828" stop-color="#f8e45c"/><stop offset="1" stop-color="#e5a50a"/></linearGradient><linearGradient id="C" gradientUnits="userSpaceOnUse" x1="51.966" x2="20.73" y1="128.41" y2="128.221"><stop offset="0" stop-color="#c64600"/><stop offset=".713" stop-color="#c64600"/><stop offset=".855" stop-color="#ff7800"/><stop offset="1" stop-color="#c64600"/></linearGradient><clipPath id="D"><path d="M0 0h192v152H0z"/></clipPath><g clip-path="url(#D)" transform="translate(-8 -16)"><path d="M28.621 85.914h86.758a7.89 7.89 0 0 1 7.887 7.887v31.551a7.89 7.89 0 0 1-7.887 7.887H28.621a7.89 7.89 0 0 1-7.887-7.887V93.801a7.89 7.89 0 0 1 7.887-7.887zm0 0" fill="url(#A)"/><path d="M28.621 30.707h86.758a7.89 7.89 0 0 1 7.887 7.887v82.813a7.89 7.89 0 0 1-7.887 7.887H28.621a7.89 7.89 0 0 1-7.887-7.887V38.594a7.89 7.89 0 0 1 7.887-7.887zm0 0" fill="#deddda"/><path d="M56.402 28.535H87.84v30.762H56.402zm0 0" fill="#26a269"/><path d="M56.402 26.535H87.84v30.762H56.402zm0 0" fill="#33d17a"/><path d="M116.555 28.555c3.785.004 6.668 3.609 6.699 7.09l.219 23.652H92.039V28.535zm0 0" fill="#1a5fb4"/><path d="M20.527 63.605h31.438v30.758H20.527zm0 0" fill="#26a269"/><path d="M20.527 61.605h31.438v30.758H20.527zm0 0" fill="#33d17a"/><path d="M56.402 63.633H87.84v30.762H56.402zm0 0" fill="#e5a50a"/><path d="M56.402 61.633H87.84v30.762H56.402zm0 0" fill="#f6d32d"/><path d="M92.039 63.605h31.434v30.758H92.039zm0 0" fill="#26a269"/><path d="M92.039 61.605h31.434v30.758H92.039zm0 0" fill="#33d17a"/><path d="M116.555 129.414c3.785-.004 6.668-3.605 6.699-7.09l.219-23.652H92.039v30.762zm0 0" fill="url(#B)"/><path d="M116.555 127.414c3.785-.004 6.668-3.605 6.699-7.09l.219-23.652H92.039v30.762zm0 0" fill="#f6d32d"/><path d="M56.281 98.672h31.438v30.762H56.281zm0 0" fill="#1a5fb4"/><path d="M56.281 96.672h31.438v30.762H56.281zm0 0" fill="#3584e4"/><path d="M27.449 129.414c-3.789-.004-6.668-3.605-6.699-7.09l-.223-23.652h31.438v30.762zm0 0" fill="url(#C)"/><path d="M27.449 127.414c-3.789-.004-6.668-3.605-6.699-7.09l-.223-23.652h31.438v30.762zm0 0" fill="#ff7800"/><path d="M116.555 26.555c3.785.004 6.668 3.609 6.699 7.09l.219 23.652H92.039V26.535zm0 0" fill="#3584e4"/><path d="M27.449 28.555c-3.789.004-6.668 3.609-6.699 7.09l-.223 23.652h31.438V28.535zm0 0" fill="#c64600"/><path d="M27.449 26.555c-3.789.004-6.668 3.609-6.699 7.09l-.223 23.652h31.438V26.535zm0 0" fill="#ff7800"/><g fill="#fff"><path d="M72.121 68.113a11.87 11.87 0 0 0-11.48 8.914 11.87 11.87 0 0 0 11.48 8.887 11.86 11.86 0 0 0 11.48-8.918c-1.355-5.227-6.078-8.875-11.48-8.883zm0 2.969a5.934 5.934 0 1 1 0 11.867 5.934 5.934 0 1 1 0-11.867zm2.969 5.934c0 1.641-1.328 2.965-2.969 2.965s-2.969-1.324-2.969-2.965a2.97 2.97 0 0 1 2.969-2.969 2.97 2.97 0 0 1 2.969 2.969zm32.664 26.136a11.87 11.87 0 0 0-11.477 8.914 11.87 11.87 0 0 0 11.477 8.887 11.86 11.86 0 0 0 11.48-8.918c-1.355-5.227-6.078-8.875-11.48-8.883zm0 2.969c3.281 0 5.938 2.652 5.938 5.934s-2.656 5.934-5.937 5.934a5.93 5.93 0 1 1 0-11.868zm2.969 5.934c0 1.641-1.328 2.965-2.969 2.965a2.96 2.96 0 0 1-2.965-2.965c0-1.641 1.328-2.969 2.965-2.969a2.97 2.97 0 0 1 2.969 2.969zm0 0"/><g fill-rule="evenodd"><path d="M101.297 67.945c-.59 0-1.109.402-1.25.977l-1.289 5.168c-.027.102-.043.207-.043.313v.051c-.727.121-1.289.727-1.289 1.492v5.957c0 .762.563 1.367 1.289 1.488v1.988c0 .359.289.645.648.645h2.582c.355 0 .645-.285.645-.645v-1.937h10.332v1.938a.64.64 0 0 0 .645.645h2.582c.359 0 .648-.285.648-.645v-1.988c.73-.121 1.289-.727 1.289-1.492v-5.957c0-.762-.559-1.367-1.289-1.488v-.051c0-.105-.012-.211-.035-.312l-1.293-5.168c-.145-.574-.66-.977-1.258-.977zm1.012 2.582h10.895l.969 3.875H101.34zm-.363 6.457a1.94 1.94 0 0 1 1.938 1.938 1.94 1.94 0 0 1-1.937 1.938 1.94 1.94 0 0 1-1.937-1.937 1.94 1.94 0 0 1 1.938-1.937zm11.621 0a1.94 1.94 0 0 1 1.938 1.938 1.94 1.94 0 0 1-1.937 1.938 1.94 1.94 0 0 1-1.937-1.937 1.94 1.94 0 0 1 1.938-1.937zm-83.778-9.039c-.59 0-1.109.402-1.25.977l-1.293 5.168c-.023.102-.039.207-.039.313v.051c-.727.121-1.289.727-1.289 1.492v5.957c0 .762.563 1.367 1.289 1.488v1.988c0 .359.289.645.645.645h2.586c.355 0 .645-.285.645-.645v-1.937h10.332v1.938a.64.64 0 0 0 .645.645h2.582c.359 0 .648-.285.648-.645v-1.988c.73-.121 1.289-.727 1.289-1.492v-5.957c0-.762-.559-1.367-1.289-1.488v-.051a1.2 1.2 0 0 0-.039-.312l-1.289-5.168c-.148-.574-.66-.977-1.258-.977zm1.012 2.582h10.895l.969 3.875H29.832zm-.363 6.457a1.94 1.94 0 0 1 1.938 1.938 1.94 1.94 0 0 1-1.937 1.938 1.94 1.94 0 0 1-1.937-1.937 1.94 1.94 0 0 1 1.938-1.937zm11.621 0a1.94 1.94 0 0 1 1.938 1.938 1.94 1.94 0 0 1-1.937 1.938 1.94 1.94 0 0 1-1.937-1.937 1.94 1.94 0 0 1 1.938-1.937zm0 0"/></g></g><g fill="none" stroke="#fff" stroke-width="2.792"><path d="M77.02 119.746l-5.016-2.586-4.996 2.602.914-5.574-4.02-3.945 5.578-.855 2.512-5.039 2.543 5.043 5.566.836-4.012 3.969zm35.753-70.141l-5.016-2.586-4.992 2.602.91-5.57-4.02-3.949 5.578-.855 2.512-5.039 2.543 5.043 5.566.836-4.012 3.969zm0 0"/></g><g fill="#fff"><path d="M71.809 32.465c-2.625.039-6.156 1-6.098 4.086.063 3.219 3.633 2.066 3.922 3.383.043-.055.109-.102.156-.156l.738-.738 1.203-1.281c1.379-1.469 1.438-1.559 4.727-4.047-1.289-.773-2.812-1.203-4.105-1.246-.164-.004-.367 0-.543 0zm-2.367 1.906c1.027 0 1.863.836 1.863 1.867s-.84 1.867-1.871 1.863-1.863-.836-1.863-1.867a1.87 1.87 0 0 1 1.871-1.863zm9.047.824c-1.766 2.781-2.949 4.426-4.195 5.711l-2.02 2.215-3.922 3.852c.078 1.832 1.008 3.422 4.039 4.008 4.852.941 9.992-2.27 9.477-8.789-.223-2.801-1.75-5.332-3.379-6.996zm.426 4.738c.688 0 1.246.559 1.246 1.246s-.559 1.246-1.246 1.246-1.246-.559-1.246-1.246.559-1.246 1.246-1.246zm-.777 3.734a1.25 1.25 0 0 1 1.207 1.246c0 .672-.535 1.223-1.207 1.242a1.24 1.24 0 0 1-1.242-1.242c0-.687.555-1.246 1.242-1.246zm-6.211 2.488c.688 0 1.246.559 1.246 1.246s-.559 1.242-1.246 1.242-1.246-.555-1.246-1.242.559-1.246 1.246-1.246zm3.727 0c.688 0 1.246.559 1.246 1.246s-.559 1.242-1.246 1.242-1.246-.555-1.246-1.242.559-1.246 1.246-1.246zM61.984 49.27c1.934 0 1.734-2.227 2.672-2.848 1.09-.719 2.039.172 2.23.906.238.922-.145 2.027-1.406 2.344-1.336.336-3.312.344-3.496-.406zm0 0"/><path d="M79.457 32.465c-2.238 1.617-5.234 4.113-7.609 6.641l-.629.68c-.129.137-.266.246-.391.383-.082.098-.16.203-.238.301-2.332 2.578-4.629 5.824-6.121 8.254 3.707-2.859 6.121-5.184 7.652-6.809.297-.305.66-.703 1.059-1.148 1.5-1.66 3.641-4.281 6.277-8.301zm-51.805.855v7.367c0 2.023 1.664 3.684 3.684 3.684h.668a4.9 4.9 0 0 0 3.016 2.293v1.391h-2.457c0 .613-.547 1.227-1.227 1.227v1.227h9.82v-1.227c-.621 0-1.227-.52-1.227-1.227h-2.453v-1.391a4.92 4.92 0 0 0 3.016-2.293h.664c2.02 0 3.684-1.66 3.684-3.684V33.32zm2.457 2.457h1.227v6.137c-.637 0-1.227-.59-1.227-1.227zm11.047 0h1.23v4.91c0 .637-.59 1.227-1.23 1.227zm-13.504 67.684v7.367a3.7 3.7 0 0 0 3.684 3.68h.668a4.89 4.89 0 0 0 3.016 2.293v1.391h-2.457c0 .613-.547 1.23-1.227 1.23v1.227h9.82v-1.227c-.621 0-1.227-.52-1.227-1.23h-2.453v-1.391c1.27-.328 2.359-1.156 3.016-2.293h.664a3.7 3.7 0 0 0 3.684-3.68v-7.367zm2.457 2.453h1.227v6.141c-.637 0-1.227-.59-1.227-1.227zm11.047 0h1.23v4.914c0 .637-.59 1.227-1.23 1.227zm0 0"/></g><path d="M170.656 16c-1.469 0-2.656 1.188-2.656 2.656v4.254h6.727V16zm6.617 0v6.91H184v-4.254c0-1.469-1.187-2.656-2.656-2.656zm3.445 1.125l.73 1.453 1.602.238-1.152 1.141.172 1.023.098.578-1.445-.746-1.437.75.262-1.605-1.156-1.133 1.605-.246zm-10.617.457h2.711c.129 0 .238.086.27.207l.27 1.086c.004.02.004.043.004.066v.012c.156.023.273.152.273.313v1.25a.32.32 0 0 1-.273.316v.418c0 .074-.059.137-.133.137h-.543c-.074 0-.137-.062-.137-.137v-.406h-2.172v.406c0 .074-.062.137-.137.137h-.543c-.074 0-.137-.062-.137-.137v-.418c-.152-.027-.27-.152-.27-.312v-1.254c0-.16.117-.289.27-.312v-.012c0-.023.004-.047.008-.066l.273-1.086c.031-.121.141-.207.266-.207zm.211.543l-.207.816h2.699l-.199-.816zm10.406.313l-.332.672-.746.117.535.527-.121.746.668-.348.672.348-.125-.746.535-.531-.742-.109zm-10.48 1.047a.41.41 0 0 0-.41.406c0 .227.184.406.41.406s.406-.18.406-.406a.41.41 0 0 0-.406-.406zm2.441 0a.41.41 0 0 0-.41.406c0 .227.184.406.41.406s.406-.18.406-.406-.18-.406-.406-.406zM168 25.461v3.883c0 1.469 1.188 2.656 2.656 2.656h4.07v-6.539zm9.273 0V32h4.07c1.469 0 2.656-1.187 2.656-2.656v-3.883zm-5.797 1.066c1.207 0 2.266.816 2.57 1.988a2.66 2.66 0 0 1-2.57 2c-1.211-.004-2.27-.82-2.574-1.996.301-1.172 1.359-1.992 2.574-1.992zm7.094.137h4.191v1.797c0 .492-.406.898-.898.898h-.164a1.2 1.2 0 0 1-.738.559v.336h.602c0 .176.148.305.301.305v.297h-2.395v-.297c.164 0 .297-.152.297-.305h.598v-.336a1.19 1.19 0 0 1-.734-.559h-.16a.9.9 0 0 1-.898-.898zm-7.094.523a1.33 1.33 0 1 0 0 2.66c.734 0 1.328-.594 1.328-1.328a1.33 1.33 0 0 0-1.328-1.332zm7.691.078v1.195c0 .156.145.301.301.301v-1.496zm2.695 0v1.496a.32.32 0 0 0 .301-.301v-1.195zm-10.387.59c.367 0 .664.297.664.664s-.297.664-.664.664a.66.66 0 1 1 0-1.328zm0 0" fill="#241f31"/></g></svg>