<svg xmlns="http://www.w3.org/2000/svg" height="128" width="128" xmlns:v="https://vecta.io/nano"><path d="M35.586 114.332c-5.883-2.98-9.25-9.543-8.602-16.758.5-5.539 2.988-9.91 9.574-16.797 3.176-3.324 7.422-8.598 9.434-11.719C52.59 58.836 57.051 55.512 64.203 55.5c6.82-.012 11.285 3.379 17.852 13.559 2.016 3.121 6.262 8.395 9.434 11.719 6.586 6.887 9.078 11.258 9.574 16.797.648 7.215-2.719 13.777-8.602 16.758-4.473 2.266-7.82 2.23-17.062-.172-9.352-2.43-13.547-2.43-22.945.012-9.223 2.395-12.391 2.426-16.867.16zM22.605 73.82c-11.039-2.633-16.902-18.844-9.77-27.016 1.406-1.617 5.027-3.301 7.086-3.301 5.469 0 12.715 5.82 14.707 11.82 2.863 8.625-.102 16.555-6.887 18.402-1.387.379-2.664.66-2.84.625s-1.207-.273-2.297-.531zm77.383-.141c-6.469-1.828-9.367-9.93-6.566-18.355.777-2.352 2.098-4.293 4.617-6.805 5.664-5.645 11.512-6.477 16.254-2.312 2.977 2.609 3.996 5.18 3.996 10.055-.004 10.578-9.73 19.84-18.301 17.418zM43.449 51.434c-2.914-1.27-6.008-4.672-8.09-8.902-1.484-3.02-1.902-4.82-2.121-9.125-.324-6.512.527-9.996 3.199-13.035 8.566-9.762 22.918-.648 23.691 15.047.387 7.852-2.402 14.031-7.254 16.059-2.602 1.086-6.879 1.066-9.426-.043zm31.586.051c-4.77-2.164-7.496-8.328-7.117-16.07.773-15.684 15.125-24.805 23.688-15.051 2.492 2.836 3.328 5.754 3.332 11.602.008 7.445-3.32 14.785-8.25 18.199-3.051 2.113-8.531 2.734-11.652 1.32zm0 0" fill="#1a5fb4"/><path d="M35.586 110.977c-5.883-2.977-9.25-9.539-8.602-16.754.5-5.539 2.988-9.91 9.574-16.801 3.176-3.32 7.422-8.594 9.434-11.715C52.59 55.48 57.051 52.16 64.203 52.145c6.82-.008 11.285 3.383 17.852 13.563 2.016 3.121 6.262 8.395 9.434 11.715 6.586 6.891 9.078 11.262 9.574 16.801.648 7.215-2.719 13.777-8.602 16.754-4.477 2.27-7.82 2.234-17.062-.168-9.352-2.43-13.547-2.43-22.945.012-9.223 2.395-12.391 2.426-16.867.156zm-12.98-40.508c-11.039-2.633-16.902-18.844-9.77-27.016 1.406-1.617 5.027-3.301 7.086-3.301 5.469 0 12.715 5.82 14.707 11.82 2.863 8.621-.102 16.555-6.887 18.402-1.387.379-2.664.66-2.84.625a167.35 167.35 0 0 1-2.297-.531zm77.383-.141c-6.469-1.828-9.367-9.93-6.566-18.355.777-2.352 2.098-4.293 4.617-6.805 5.664-5.645 11.512-6.477 16.254-2.312 2.977 2.609 3.996 5.18 3.992 10.055 0 10.578-9.727 19.84-18.297 17.418zM43.449 48.082c-2.914-1.27-6.008-4.672-8.09-8.906-1.484-3.016-1.902-4.816-2.121-9.121-.324-6.512.527-9.996 3.199-13.035 8.566-9.762 22.918-.648 23.691 15.043.387 7.855-2.402 14.035-7.254 16.063-2.602 1.086-6.879 1.066-9.426-.043zm31.586.051c-4.77-2.164-7.496-8.328-7.117-16.07.773-15.684 15.125-24.805 23.688-15.055 2.488 2.84 3.328 5.758 3.332 11.605.008 7.445-3.32 14.785-8.25 18.199-3.051 2.113-8.531 2.734-11.652 1.32zm0 0" fill="#3e88e1"/><g fill="#aaa89f"><path d="M80.941 74.176L44.25 85.645l8.027 6.09 25.371-15.332-21.359 17.625 9.816 7.238zm0 0"/><path d="M51.129 89.082v13.996l6.492-5.676-1.516-1.73-2.684 2.348v-8.937zm0 0" fill-rule="evenodd"/></g><g fill="#fff"><path d="M80.941 73.059L44.25 84.523l8.027 6.094 25.371-15.336L56.289 92.91l9.816 7.238zm0 0"/><path d="M51.129 87.965v13.996l6.492-5.676-1.516-1.73-2.684 2.344v-8.934zm0 0" fill-rule="evenodd"/></g></svg>