<svg xmlns="http://www.w3.org/2000/svg" height="128" width="128" xmlns:v="https://vecta.io/nano"><path d="M123.504 65.945c0 32.863-26.641 59.504-59.504 59.504S4.496 98.809 4.496 65.945 31.137 6.441 64 6.441s59.504 26.641 59.504 59.504zm0 0" fill="#d5d3cf"/><path d="M123.504 63.961c0 32.863-26.641 59.508-59.504 59.508S4.496 96.824 4.496 63.961 31.137 4.457 64 4.457s59.504 26.641 59.504 59.504zm0 0" fill="#f6f5f4"/><path d="M118 64.953c0 29.824-24.176 54-54 54s-54-24.176-54-54 24.176-54 54-54 54 24.18 54 54zm0 0" fill="#424048"/><g fill="#f4eb69"><path d="M110.18 64.953c0 25.504-20.676 46.18-46.18 46.18s-46.18-20.676-46.18-46.18S38.496 18.777 64 18.777s46.18 20.672 46.18 46.176zm0 0" fill-opacity=".305"/><path d="M104.789 62.457c0 22.531-18.262 40.793-40.789 40.793S23.211 84.988 23.211 62.457 41.473 21.668 64 21.668s40.789 18.262 40.789 40.789zm0 0" fill-opacity=".343"/><path d="M99.023 59.961c0 19.344-15.68 35.023-35.023 35.023s-35.023-15.68-35.023-35.023S44.656 24.941 64 24.941s35.023 15.68 35.023 35.02zm0 0" fill-opacity=".536"/><path d="M92.77 57.465c0 15.891-12.883 28.77-28.77 28.77s-28.77-12.879-28.77-28.77S48.113 28.699 64 28.699s28.77 12.879 28.77 28.766zm0 0"/></g><path d="M54.297 32.992v23.754c-1.465-.684-3.137-1.113-4.852-1.113-6.215 0-11.324 5.105-11.324 11.32s5.109 11.324 11.324 11.324c6.18 0 11.262-5.055 11.32-11.223v-.102-24.258h19.406v14.051c-1.461-.684-3.137-1.113-4.852-1.113-6.215 0-11.32 5.109-11.32 11.32s5.105 11.324 11.32 11.324c6.145 0 11.207-5 11.32-11.121.004-.07 0-.133 0-.203V32.992zm0 0" fill="#1a7049"/><path d="M54.297 30.496V54.25c-1.465-.684-3.137-1.113-4.852-1.113-6.215 0-11.324 5.109-11.324 11.32s5.109 11.324 11.324 11.324c6.18 0 11.262-5.055 11.32-11.223v-.102-24.258h19.406V54.25c-1.461-.684-3.137-1.113-4.852-1.113-6.215 0-11.32 5.109-11.32 11.32s5.105 11.324 11.32 11.324c6.145 0 11.207-5 11.32-11.121.004-.07 0-.133 0-.203V30.496zm0 0" fill="#26a269"/></svg>