<svg xmlns="http://www.w3.org/2000/svg" xmlns:xlink="http://www.w3.org/1999/xlink" width="3840" height="2160" viewBox="0 0 1016 571.5" xmlns:v="https://vecta.io/nano"><style><![CDATA[.B{filter:url(#T)}.C{color-interpolation-filters:sRGB}.D{fill:#03396c}.E{fill:#033e76}.F{filter:url(#Y)}.G{fill:#034078}.H{filter:url(#V)}.I{fill:#033c72}.J{fill:#03407a}.K{fill:#033a6d}.L{fill:#033e75}.M{fill-rule:evenodd}]]></style><defs><linearGradient id="A" xlink:href="#j"><stop offset="0" stop-color="#fff"/><stop offset="1" stop-color="#fff" stop-opacity="0"/></linearGradient><linearGradient id="B" x1="468.61" y1="388.857" x2="443.954" y2="1780.318" xlink:href="#j"><stop offset="0" stop-color="#013668"/><stop offset="1" stop-color="#cfdef0" stop-opacity=".992"/></linearGradient><linearGradient id="C" x1="526.567" y1="393.917" x2="525.865" y2="552.944" xlink:href="#j"><stop offset="0" stop-color="#03396c"/><stop offset="1" stop-color="#0559a9"/></linearGradient><linearGradient id="D" x1="492.731" y1="277.071" x2="488.444" y2="421.602" xlink:href="#j"><stop offset="0" stop-color="#005b96"/><stop offset="1" stop-color="#3191cf"/></linearGradient><linearGradient id="E" x1="494.97" y1="225.864" x2="498.139" y2="413.658" xlink:href="#j"><stop offset="0" stop-color="#3685c2"/><stop offset="1" stop-color="#7ca6d0"/></linearGradient><linearGradient id="F" x1="573.413" y1="183.528" x2="569.751" y2="365.827" xlink:href="#j"><stop offset="0" stop-color="#64aadd"/><stop offset="1" stop-color="#73abe5"/></linearGradient><linearGradient id="G" x1="700.288" y1="94.138" x2="701.163" y2="277.551" xlink:href="#j"><stop offset="0" stop-color="#90cce9"/><stop offset="1" stop-color="#a9caec"/></linearGradient><linearGradient id="H" x1="537.172" y1="-36.579" x2="538.522" y2="229.251" xlink:href="#j"><stop offset="0" stop-color="#9fe1f4"/><stop offset="1" stop-color="#fff"/></linearGradient><filter id="I" x="-.066" width="1.132" y="-.483" height="1.967" class="C"><feGaussianBlur stdDeviation="30.326"/></filter><linearGradient id="J" x1="507.275" y1="23.169" x2="507.343" y2="76.76" xlink:href="#j"><stop offset="0" stop-color="#fff"/><stop offset="1" stop-color="#fff" stop-opacity="0"/></linearGradient><linearGradient xlink:href="#A" id="K" x1="172.944" y1="21.047" x2="173.505" y2="86.693"/><filter id="L" x="-.001" width="1.003" y="-.021" height="1.041" class="C"><feGaussianBlur stdDeviation=".627"/></filter><filter id="M" x="-.017" width="1.033" y="-.086" height="1.172" class="C"><feGaussianBlur stdDeviation="7.269"/></filter><filter id="N" x="-.016" width="1.033" y="-.061" height="1.122" class="C"><feGaussianBlur stdDeviation="7.269"/></filter><filter id="O" x="-.016" width="1.032" y="-.059" height="1.118" class="C"><feGaussianBlur stdDeviation="7.269"/></filter><filter id="P" x="-.018" width="1.036" y="-.057" height="1.113" class="C"><feGaussianBlur stdDeviation="7.269"/></filter><filter id="Q" x="-.016" width="1.033" y="-.053" height="1.106" class="C"><feGaussianBlur stdDeviation="7.269"/></filter><filter id="R" x="-.394" width="1.788" y="-.394" height="1.788" class="C"><feGaussianBlur stdDeviation="7.269"/></filter><filter id="S" x="-.016" width="1.033" y="-.076" height="1.152" class="C"><feGaussianBlur stdDeviation="7.269"/></filter><filter id="T" x="-1.808" width="4.615" y="-.774" height="2.548" class="C"><feGaussianBlur stdDeviation="7.269"/></filter><filter id="U" x="-.016" width="1.031" y="-.041" height="1.082" class="C"><feGaussianBlur stdDeviation="7.269"/></filter><filter id="V" x="-2.3" width="5.601" y="-.985" height="2.97" class="C"><feGaussianBlur stdDeviation="7.269"/></filter><filter id="W" x="-2.848" width="6.697" y="-1.22" height="3.44" class="C"><feGaussianBlur stdDeviation="7.269"/></filter><filter id="X" x="-2.009" width="5.018" y="-.86" height="2.721" class="C"><feGaussianBlur stdDeviation="7.269"/></filter><filter id="Y" x="-.039" width="1.077" y="-.284" height="1.567" class="C"><feGaussianBlur stdDeviation="7.269"/></filter><linearGradient xlink:href="#A" id="Z" x1="172.944" y1="21.047" x2="173.505" y2="86.693"/><path id="a" d="M900.543 385.738l-.24 1.91-.645-.185.546.973-.165 1.31-1.393-.564 1.318 1.156-.057.456-1.568-.441 1.463 1.278-.09.713-1.463-.367 1.37 1.109-.081.643-.998.041.865 1.018-.085.676-1.671-.555 1.563 1.409-.037.292-1.463-.175 1.353 1.047-.074.585-1.327-.512 1.204 1.488-.066.529-1.658-.461 1.578 1.098-.068.541-1.906-.139 1.698 1.792-.029.234-1.921.026 1.824.75-.063.499-2.549-.199 2.398 1.393-.054.432-1.712-.178 1.604 1.032-.008.069-2.098.319 1.954.827-.085.672 5.605-.52-.042-.331 2.089-1.332-2.181.599-.087-.689 2.161-1.611-2.296.539-.015-.117 2.033-1.991-2.149 1.067-.095-.752 1.851-1.373-2.036-.1-.025-.197 1.997-1.15-2.071.56-.11-.878 1.295-1.102-1.492-.463-.028-.219 1.238-1.496-1.36.529-.096-.767 1.273-1.254-1.237-.216 1.237-1.293-1.639-.146-.092-.732 1.858-1.302-2.024-.023-.063-.499 1.743-1.116-1.821.503-.065-.516 1.695-1.215-1.82.222-.039-.311.722-.855-.772.46z"/><path id="b" d="M46.521 369.582l-.24 1.91-.645-.185.546.973-.165 1.31-1.393-.564 1.318 1.156-.057.456-1.568-.441 1.463 1.278-.09.713-1.463-.367 1.37 1.109-.081.643-.998.041.865 1.018-.085.676-1.671-.555 1.563 1.409-.037.292-1.463-.175 1.353 1.047-.074.585-1.327-.512 1.204 1.488-.066.529-1.658-.461 1.578 1.098-.068.541-1.906-.139 1.698 1.792-.029.234-1.921.026 1.824.75-.063.499-2.549-.199 2.398 1.393-.054.432-1.712-.178 1.604 1.032-.008.069-2.098.319 1.954.827-.085.672 5.605-.52-.042-.331 2.089-1.332-2.181.599-.087-.689 2.161-1.611-2.296.539-.015-.117 2.032-1.991-2.149 1.067-.095-.752 1.851-1.373-2.036-.1-.025-.197 1.997-1.15-2.071.56-.11-.878 1.295-1.102-1.492-.463-.028-.219 1.238-1.496-1.36.529-.097-.767 1.273-1.254-1.237-.216 1.237-1.293-1.639-.146-.092-.732 1.858-1.302-2.024-.023-.063-.499 1.743-1.116-1.821.503-.065-.516 1.695-1.215-1.82.222-.039-.311.722-.855-.772.46z"/><path id="c" d="M120.441 354.263l-.24 1.91-.645-.185.546.973-.165 1.31-1.393-.564 1.318 1.156-.057.456-1.568-.441 1.463 1.278-.09.713-1.463-.367 1.37 1.109-.081.643-.998.041.865 1.018-.085.676-1.671-.555 1.563 1.409-.037.292-1.463-.175 1.353 1.047-.074.585-1.327-.512 1.204 1.488-.066.529-1.658-.461 1.578 1.098-.068.541-1.906-.139 1.698 1.792-.029.234-1.921.026 1.824.75-.063.499-2.549-.199 2.398 1.393-.055.432-1.712-.178 1.604 1.032-.008.069-2.098.319 1.954.827-.085.672 5.605-.52-.042-.331 2.089-1.332-2.181.599-.087-.689 2.161-1.611-2.296.539-.015-.117 2.032-1.991-2.149 1.067-.094-.752 1.851-1.373-2.036-.1-.025-.197 1.997-1.15-2.071.56-.11-.878 1.295-1.102-1.492-.463-.028-.219 1.238-1.496-1.36.529-.097-.767 1.273-1.254-1.237-.216 1.237-1.293-1.639-.146-.092-.732 1.858-1.302-2.024-.023-.063-.499 1.743-1.116-1.821.503-.065-.516 1.695-1.215-1.82.222-.039-.311.722-.855-.772.46z"/><path id="d" d="M145.747 358.053l-.24 1.91-.645-.185.546.973-.165 1.31-1.393-.564 1.318 1.156-.057.456-1.568-.441 1.463 1.278-.09.713-1.463-.367 1.37 1.109-.081.643-.998.041.865 1.018-.085.676-1.671-.555 1.563 1.409-.037.292-1.463-.175 1.353 1.047-.074.585-1.327-.512 1.204 1.488-.066.529-1.658-.461 1.578 1.098-.068.541-1.906-.139 1.698 1.792-.03.234-1.921.026 1.824.75-.063.499-2.549-.199 2.398 1.393-.054.432-1.712-.178 1.604 1.032-.008.069-2.098.319 1.954.827-.085.672 5.605-.52-.042-.331 2.089-1.332-2.181.599-.087-.689 2.161-1.611-2.296.539-.015-.117 2.032-1.991-2.149 1.067-.095-.752 1.851-1.373-2.036-.1-.025-.197 1.997-1.15-2.071.56-.11-.878 1.295-1.102-1.492-.463-.028-.219 1.238-1.496-1.36.529-.096-.767 1.273-1.254-1.237-.216 1.237-1.293-1.639-.146-.092-.732 1.858-1.302-2.024-.023-.063-.499 1.743-1.116-1.821.503-.065-.516 1.695-1.215-1.82.222-.039-.311.722-.855-.772.46z"/><path id="e" d="M264.684 386.559l-.24 1.91-.645-.185.546.973-.165 1.31-1.393-.564 1.318 1.156-.057.456-1.568-.441 1.463 1.278-.09.713-1.463-.367 1.37 1.109-.081.643-.998.041.865 1.018-.085.676-1.671-.555 1.563 1.409-.037.292-1.463-.175 1.353 1.047-.074.585-1.327-.512 1.204 1.488-.066.529-1.658-.461 1.578 1.098-.068.541-1.906-.139 1.698 1.792-.029.234-1.921.026 1.824.75-.063.499-2.549-.199 2.398 1.393-.055.432-1.712-.178 1.604 1.032-.008.069-2.098.319 1.954.827-.085.672 5.605-.52-.042-.331 2.089-1.332-2.181.599-.087-.689 2.161-1.611-2.296.539-.015-.117 2.033-1.991-2.149 1.067-.094-.752 1.851-1.373-2.036-.1-.025-.197 1.997-1.15-2.071.56-.11-.878 1.295-1.102-1.492-.463-.027-.219 1.238-1.496-1.36.529-.096-.767 1.273-1.254-1.237-.216 1.237-1.293-1.639-.146-.092-.732 1.858-1.302-2.024-.023-.063-.499 1.743-1.116-1.821.503-.065-.516 1.695-1.215-1.82.222-.039-.311.722-.855-.772.46z"/><path id="f" d="M512.985 373.147l-.24 1.91-.645-.185.546.973-.165 1.31-1.393-.564 1.318 1.156-.057.456-1.568-.441 1.463 1.278-.09.713-1.463-.367 1.37 1.109-.081.643-.998.041.865 1.018-.085.676-1.671-.555 1.563 1.409-.037.292-1.463-.175 1.353 1.047-.074.585-1.327-.512 1.204 1.488-.066.529-1.658-.461 1.578 1.098-.068.541-1.906-.139 1.698 1.792-.029.234-1.921.026 1.824.75-.063.499-2.549-.199 2.398 1.393-.055.432-1.712-.178 1.604 1.032-.008.069-2.098.319 1.954.827-.085.672 5.605-.52-.042-.331 2.089-1.332-2.181.599-.087-.689 2.161-1.611-2.296.539-.015-.117 2.033-1.991-2.149 1.067-.095-.752 1.851-1.373-2.036-.1-.025-.197 1.997-1.15-2.071.56-.11-.878 1.295-1.102-1.492-.463-.028-.219 1.238-1.496-1.36.529-.096-.767 1.273-1.254-1.237-.216 1.237-1.293-1.639-.146-.092-.732 1.858-1.302-2.024-.023-.063-.499 1.743-1.116-1.821.503-.065-.516 1.695-1.215-1.82.222-.039-.311.722-.855-.772.46z"/><path id="g" d="M573 388.945l-.189 1.501-.507-.146.429.765-.13 1.029-1.094-.443 1.036.909-.045.358-1.232-.347 1.149 1.004-.07.56-1.15-.288 1.076.872-.064.505-.785.032.68.8-.067.531-1.313-.436 1.228 1.107-.029.229-1.15-.138 1.063.822-.058.46-1.042-.402.946 1.169-.052.415-1.303-.362 1.24.863-.053.425-1.497-.109 1.334 1.408-.023.184-1.51.02 1.433.589-.049.392-2.003-.156 1.885 1.095-.043.34-1.345-.14 1.261.811-.006.054-1.648.25 1.535.65-.067.528 4.404-.409-.033-.26 1.641-1.046-1.714.471-.068-.542 1.698-1.266-1.804.424-.011-.092 1.597-1.564-1.688.838-.074-.591 1.454-1.079-1.6-.079-.019-.155 1.569-.903-1.627.44-.087-.69 1.018-.866-1.172-.364-.022-.172.973-1.175-1.068.415-.076-.603 1.001-.985-.972-.17.972-1.016-1.288-.115-.072-.575 1.46-1.023-1.591-.018-.049-.392 1.37-.877-1.431.395-.051-.405 1.332-.955-1.43.175-.031-.245.567-.672-.606.362z"/><path id="h" d="M636.927 411.937l-.153 1.212-.409-.118.346.617-.105.831-.884-.358.837.734-.036.289-.995-.28.928.811-.057.452-.929-.233.869.704-.051.408-.634.026.549.646-.054.429-1.06-.352.992.894-.023.185-.928-.111.859.664-.047.371-.842-.325.764.944-.042.335-1.052-.293 1.001.697-.043.343-1.209-.088 1.077 1.137-.019.148-1.219.017 1.157.476-.04.317-1.617-.126 1.522.884-.035.274-1.086-.113 1.018.655-.005.044-1.331.202 1.24.525-.054.427 3.557-.33-.026-.21 1.325-.845-1.384.38-.055-.437 1.372-1.023-1.457.342-.009-.074 1.29-1.263-1.364.677-.06-.477 1.174-.871-1.292-.063-.016-.125 1.267-.73-1.314.355-.07-.557.822-.699-.947-.294-.017-.139.786-.949-.863.336-.061-.487.808-.796-.785-.137.785-.82-1.04-.092-.058-.464 1.179-.826-1.285-.014-.04-.317 1.106-.708-1.155.319-.041-.327 1.076-.771-1.155.141-.025-.198.458-.543-.49.292z"/><path id="i" d="M-84.852 65.804l249.351-.93c30.966 1.354 200.471 3.348 201.435-3.165 2.097-14.168-54.624-42.767-100.585-36.064S138.685 47.82 95.202 25.91-27.721 1.813-50.043 7.271-84.852 65.804-84.852 65.804z"/><linearGradient id="j" gradientUnits="userSpaceOnUse"/></defs><rect width="1049.924" height="203.404" x="-17.563" y="-38.752" ry="12.122" opacity=".99" fill="url(#H)" paint-order="normal" filter="url(#M)" class="M"/><path d="M-26.067 167.263s16.969-35.207 34.144-26.61c6.41 3.208 14.127-1.486 21.144 3.099 7.672 5.013 17.422 9.201 26.327 6.349 6.411-2.053 16.438-1.452 20.836-4.439 6.535-4.438 14.653 4.475 19.189 7.893 9.987 7.525 16.952-8.701 31.407-9.824 10.835-.842 17.791-14.616 28.893-18.013 20.052-6.134 30.973-25.055 42.429-15.921 10.958 8.736 28.86 26.212 51.321 28.448 6.574.655 15.139 9.084 21.087 4.382 9.054-7.157 43.975 13.572 52.966 9.3 10.282-4.885 18.924-23.031 33.321-24.255 19.049-1.619 29.227-16.985 41.848-8.753 11.063 7.216 12.943-21.588 24.44-23.941 13.087-2.678 16.271-34.59 47.49-1.557 15.381 14.841 24.693 31.184 36.234 31.835 22.581 1.275 31.418 13.781 49.924 10.642 12.995-2.204 21.713 10.215 32.877 9.276 13.031-1.097 19.173 12.06 29.919 9.473 9.489-2.285 24.793-27.954 40.475-32.875 25.316-7.945 37.773-36.846 45.337-30.272 7.642 6.641 8.597 33.402 25.039 34.613 24.124 1.778 20.454 17.47 38.005 16.646 14.934-.7 22.93-10.042 35.932-10.881 17.804-1.149 25.405-18.563 35.227-12.642 8.248 4.972 19.704 23.282 35.592 23.972 17.145.744 25.109 12.321 33.705 8.127 18.004-8.785 21.091 1.024 38.897 2.705 7.704.727 13.699-8.394 26.683-11.133 14.508-3.061 26-15.11 37.171-6.794 19.692 14.659 25.244 215.252 25.244 215.252L-35.229 365.471z" fill="url(#G)" filter="url(#N)"/><path d="M-28.676 197.125l31.476-7.43c9.298-2.146 19.21-2.889 28.438-6.815 17.541-7.462 27.299 4.864 36.926 10.843 18.178 11.29 42.117.309 67.087 3.149 17.067 1.942 29.879-17.208 36.378-15.493 18.197 4.8 109.339 81.828 175.315 27.152 13.877-11.5 35.524-21.128 47.805-21.505 42.562-1.306 41.846-27.461 57.773-15.762 18.529 17.983 51.062 5.755 62.986 17.52 22.685 22.382 62.071-18.969 86.284-.614 21.11 17.753 48.196 13.886 64.97 26.536 14.687 11.076 33.636-5.151 46.486-15.577 9.165-7.435 20.467-1.973 28.444-10.806 5.765-6.383 17.408-22.498 31.929-4.689 5.184 6.357 10.283 17.453 18.89 19.912 8.161 2.332 15.838 15.231 19.684 23.518 7.381 15.904 15.411 39.293 28.937 35.928 12.285-3.056 23.754 8.568 33.848 4.167 13.989-6.101 19.478 4.941 29.35-.733 20.06-11.528 37.66-28.625 48.042-18.703 7.959 7.606 19.057 3.386 31.051 10.77 13.606 8.376 28.777 4.598 36.437-8.484 9.089-15.521 30.053-20.85 30.053-20.85l3.172 224.356-1094.484 9.73z" fill="url(#F)" filter="url(#O)"/><path d="M-11.923 304.029s21.302-22.846 50.175-34.527c10.718-4.336 24.662-17.9 35.808-12.7 13.786 6.431 32.512-17.81 57.55-28.901 13.309-5.895 21.362-20.509 35.982-20.782 16.338-.305 29.334-12.1 41.979-11.281 15.294.992 22.632-17.284 37.82-1.252 5.288 5.582 6.341 13.678 12.503 14.043 20.131 1.193 13.115 17.451 33.363 13.876 15.231-2.689 25.428-18.997 39.41-9.705 12.449 8.272 30.555 53.49 60.091 52.783 14.951-.358 41.793 19.782 58.487-.381 16.049-19.384 32.203-35.541 48.121-41.931 25.678-10.308 31.376 3.556 37.076 5.767 9.311 3.612 19.322 19.589 36.038 20.371 18.98.888 28.735 21.83 43.665 24.305 14.308 2.372 23.633 17.577 41.811 15.892 6.272-.581 10.338-8.309 20.89-10.2 10.104-1.811 14.097-15.678 25.49-14.626 14.287 1.318 31.898.543 38.754-.491 30.329-4.573 48.146 30.637 68.205 29.359 9.715-.619 39.67 9.077 46.732 16.991 4.723 5.293 19.787 15.208 34.191 16.513 11.722 1.061 53.899 38.395 53.899 38.395l18.084 130.897-958.707-1.892z" fill="url(#E)" filter="url(#P)"/><path d="M-33.599 402.976s62.718-13.576 104.933-50.167c9.404-8.151 18.266-8.992 28.958-14.666 11.449-6.076 23.263-4.42 27.933-9.764 13.863-15.865 37.072 13.911 48.71 24.664 25.98 24.004 51.571-17.667 66.169-24.761 9.181-4.462 23.572-8.516 31.141-13.817 16.914-11.847 25.724-21.311 50.272 5.579 17.913 19.622 38.091 13.637 52.359 18.09 16.563 5.17 24.442-19.421 34.953-21.549 12.169-2.463 22.065-24.263 29.52-27.387 21.24-8.901 29.274-23.81 55.836-11.64 19.106 8.754 29.282 29.84 51.091 32.981 30.412 4.38 55.239 29.349 84.885 24.252 11.13-1.914 29.784 10.699 51.03 10.158 12.774-.326 43.547 8.072 60.42-2.757 33.117-21.255 57.775-18.774 71.337-24.375 20.553-8.488 33.824 18.681 49.104 25.663 21.419 9.787 31.158-25.642 54.256-8.582 5.049 3.729 14.721 5.178 24.613 11.489 51.051 32.568 71.993 64.379 71.993 64.379l12.178 191.268L-42.9 592.466z" fill="url(#D)" filter="url(#Q)"/><path d="M-7.841 432.552l-5.287 111.201s212.468-91.896 323.974-70.12 400.471 38.378 502.691-13.196 263.265 75.572 270.433 73.548-10.856-140.811-10.856-140.811-93.286 19.843-160.394 22.112-227.398-13.933-295.598 19.99-171.596-18.963-230.656-26.749-199.191 12.748-250.225 33.514-144.082-9.488-144.082-9.488z" opacity=".277" fill="#fff" filter="url(#I)"/><path d="M529.952 47.297a22.15 22.15 0 0 1-43.929-5.71 22.15 22.15 0 0 1 43.979 5.314" fill="url(#J)" paint-order="normal" filter="url(#R)" class="M"/><path d="M-11.6 404.64s179.234-61.237 235.12-21.019 121.037 55.339 229.109 15.926 166.567 40.598 228.097 25.786 154.453-86.818 212.843-35.498 150.308-9.61 150.308-9.61l12.178 219.568-1070.992-10.985z" fill="url(#C)" filter="url(#S)"/><use xlink:href="#a" fill="#033a6f" class="B"/><g class="D B"><use xlink:href="#a" x="7.868" y="-0.578"/><use xlink:href="#a" x="3.514" y="-1.691"/><use xlink:href="#b"/></g><path d="M-33.809 304.418s8.424 15.395 29.492 20.383c23.346 5.528 37.509 41.288 41.269 41.356 4.385.079 11.198 16.614 24.975 28.954 10.58 9.476 14.77 24.667 19.408 35.097 7.512 16.894 20.478 10.075 34.725 11.817 14.942 1.827 24.814-10.477 33.232-9.538 14.89 1.661 29.416-9.38 41.569-9.963 16.165-.775 28.881-8.417 41.149 9.19 20.15 28.917 63.188 18.132 79.66 30.965 12.308 9.589 29.333 12.941 49.708 3.558 19.031-8.764 43.309 10.864 58.94 5.339 17.052-6.027 39.339 20.481 60.16 13.812 17.306-5.543 49.824 2.635 58.178-.794 13.563-5.567 42.958-8.378 54.458-16.863 11.799-8.706 27.688 7.197 42.385-1.685 23.282-14.071 48.825 1.614 66.202-10.752 23.361-16.623 50.306 15.254 74.242 14.205 20.6-.903 46.026 22.045 65.772 12.098 17.682-10.584 10.794-20.826 19.803-28.486 13.501-10.444 29.371-33.715 39.489-40.033 13.677-8.54 13.797-41.551 26.635-47.314 17.413-7.817 36.856-46.243 57.023-32.89 19.074 12.63 15.717-9.303 30.274-13.519 37.518-10.867 45.32-85.551 45.32-85.551l8.877 423.076-1111.372-14.655z" fill="url(#B)" filter="url(#U)"/><g class="D B"><use xlink:href="#b" x="5.774" y="-3.261"/><use xlink:href="#b" x="26.258" y="-5.318"/><use xlink:href="#b" x="50.238" y="-7.439"/><use xlink:href="#c"/><use xlink:href="#d"/><use xlink:href="#d" x="39.227" y="-6.641"/><use xlink:href="#d" x="65.608" y="1.873"/><use xlink:href="#d" x="93.47" y="16.323"/></g><use xlink:href="#e" fill="#033b71" class="B"/><g class="E B"><use xlink:href="#e" x="44.735" y="15.213"/><use xlink:href="#e" x="17.941" y="8.857"/></g><use xlink:href="#e" x="72.092" y="17.598" class="B J"/><g class="E B"><use xlink:href="#e" x="120.8" y="15.249"/><use xlink:href="#e" x="152.69" y="6.543"/></g><g class="D B"><use xlink:href="#e" x="191.563" y="-8.113"/><use xlink:href="#e" x="232.027" y="-14.284"/><use xlink:href="#e" x="232.027" y="-14.284"/></g><use xlink:href="#a" x="-362.833" y="-12.374" class="B K"/><use xlink:href="#a" x="-305.087" y="4.577" class="B L"/><use xlink:href="#a" x="-259.769" y="18.068" class="B G"/><use xlink:href="#a" x="-192.554" y="12.35" fill="#033d74" class="B"/><g class="D B"><use xlink:href="#a" x="-87.503" y="-28.713"/><use xlink:href="#a" x="-139.105" y="-7.797"/><use xlink:href="#a" x="-38.509" y="-30.588"/></g><use xlink:href="#a" x="-4.837" y="-13.573" fill="#03396d" class="B"/><use xlink:href="#a" x="-222.318" y="24.32" class="B G"/><use xlink:href="#e" x="98.296" y="15.969" class="B E"/><use xlink:href="#e" x="212.515" y="-13.196" class="B D"/><use xlink:href="#a" x="-331.742" y="-5.342" fill="#033c73" class="B"/><g class="G B"><use xlink:href="#a" x="-282.021" y="12.603"/><use xlink:href="#a" x="-282.021" y="12.603"/><use xlink:href="#a" x="-282.021" y="12.603"/><use xlink:href="#a" x="-282.021" y="12.603"/><use xlink:href="#a" x="-282.021" y="12.603"/><use xlink:href="#a" x="-282.021" y="12.603"/><use xlink:href="#a" x="-282.021" y="12.603"/><use xlink:href="#a" x="-282.021" y="12.603"/><use xlink:href="#a" x="-282.021" y="12.603"/><use xlink:href="#a" x="-282.021" y="12.603"/><use xlink:href="#a" x="-282.021" y="12.603"/></g><use xlink:href="#a" x="-163.806" y="0.476" class="B I"/><g class="D B"><use xlink:href="#a" x="-112.852" y="-21.931"/><use xlink:href="#a" x="-60.86" y="-33.613"/><use xlink:href="#b" x="16.286" y="-0.376"/><use xlink:href="#b" x="32.589" y="-0.661"/><path d="M88.579 360.351l-.24 1.91-.645-.185.546.973-.165 1.31-1.393-.564L88 364.951l-.057.456-1.568-.441 1.463 1.278-.09.713-1.463-.367 1.37 1.109-.081.643-.998.041.865 1.018-.085.676-1.671-.555 1.563 1.409-.037.292-1.463-.175 1.353 1.047-.074.585-1.327-.512 1.204 1.488-.066.529-1.658-.461 1.578 1.098-.068.541-1.906-.139 1.698 1.792-.029.234-1.921.026 1.824.75-.063.499-2.549-.199 2.398 1.393-.054.432-1.712-.178 1.604 1.032-.008.069-2.098.319 1.954.827-.085.672 5.605-.52-.042-.331 2.089-1.332-2.181.599-.087-.689 2.161-1.611-2.296.539-.015-.117 2.032-1.991-2.149 1.067-.095-.752 1.851-1.373-2.036-.1-.025-.197 1.997-1.15-2.071.56-.11-.878 1.295-1.102-1.492-.463-.028-.219 1.238-1.496-1.36.529-.097-.767 1.273-1.254-1.237-.216 1.237-1.293-1.639-.146-.092-.732 1.858-1.302-2.024-.023-.063-.499 1.743-1.116-1.821.503-.065-.516 1.695-1.215-1.82.222-.039-.311.722-.855-.772.46z"/><use xlink:href="#c" x="-15.08" y="5.452"/><use xlink:href="#c" x="-9.481" y="1.735"/><path d="M127.996 358.296l-.24 1.91-.645-.185.546.973-.165 1.31-1.393-.564 1.318 1.156-.057.456-1.568-.441 1.463 1.278-.09.713-1.463-.367 1.37 1.109-.081.643-.998.041.865 1.018-.085.676-1.671-.555 1.563 1.409-.037.292-1.463-.175 1.353 1.047-.074.585-1.327-.512 1.204 1.488-.066.529-1.658-.461 1.578 1.098-.068.541-1.906-.139 1.698 1.792-.029.234-1.921.026 1.824.75-.063.499-2.549-.199 2.398 1.393-.055.432-1.712-.178 1.604 1.032-.008.069-2.098.319 1.954.827-.085.672 5.605-.52-.042-.331 2.089-1.332-2.181.599-.087-.689 2.161-1.611-2.296.539-.015-.117 2.032-1.991-2.149 1.067-.095-.752 1.851-1.373-2.036-.1-.025-.197 1.997-1.15-2.071.56-.11-.878 1.295-1.102-1.492-.463-.028-.219 1.238-1.496-1.36.529-.096-.767 1.273-1.254-1.237-.216 1.237-1.293-1.639-.146-.092-.732 1.858-1.302-2.024-.023-.063-.499 1.743-1.116-1.821.503-.065-.516 1.695-1.215-1.82.222-.039-.311.722-.855-.772.46z"/><use xlink:href="#d" x="-9.584" y="-8.136"/><use xlink:href="#d" x="-4.705" y="-3.889"/><use xlink:href="#d" x="13.408" y="-8.889"/><use xlink:href="#d" x="22.401" y="-6.114"/><use xlink:href="#d" x="29.789" y="-3.993"/><use xlink:href="#d" x="46.1" y="1.874"/><use xlink:href="#d" x="53.361" y="-5.577"/><use xlink:href="#d" x="59.575" y="5.892"/><use xlink:href="#d" x="71.723" y="10.466"/><use xlink:href="#d" x="77.368" y="8.25"/><use xlink:href="#d" x="87.686" y="18.18"/><use xlink:href="#d" x="82.776" y="14.428"/></g><use xlink:href="#d" x="98.946" y="25.207" fill="#033a6f" class="B"/><use xlink:href="#d" x="104.119" y="25.709" fill="#033b70" class="B"/><use xlink:href="#e" x="-5.644" y="-0.576" fill="#033b71" class="B"/><path d="M254.256 389.843l-.24 1.91-.645-.185.546.973-.165 1.31-1.393-.564 1.318 1.156-.057.456-1.568-.441 1.463 1.278-.09.713-1.463-.367 1.37 1.109-.081.643-.998.041.865 1.018-.085.676-1.671-.555 1.563 1.409-.037.292-1.463-.175 1.353 1.047-.074.585-1.327-.512 1.204 1.488-.066.529-1.658-.461 1.578 1.098-.068.541-1.906-.139 1.698 1.792-.03.234-1.921.026 1.824.75-.063.499-2.549-.199 2.398 1.393-.054.432-1.712-.178 1.604 1.032-.008.069-2.098.319 1.954.827-.085.672 5.605-.52-.042-.331 2.089-1.332-2.181.599-.087-.689 2.161-1.611-2.296.539-.015-.117 2.033-1.991-2.149 1.067-.094-.752 1.851-1.373-2.036-.1-.025-.197 1.997-1.15-2.071.56-.11-.878 1.295-1.102-1.492-.463-.028-.219 1.238-1.496-1.36.529-.096-.767 1.273-1.254-1.237-.216 1.237-1.293-1.639-.146-.092-.732 1.858-1.302-2.024-.023-.063-.499 1.743-1.116-1.821.503-.065-.516 1.695-1.215-1.82.222-.039-.311.722-.855-.772.46z" class="B I"/><g class="E B"><use xlink:href="#e" x="12.475" y="11.929"/><use xlink:href="#e" x="6.617" y="6.536"/><use xlink:href="#e" x="23.864" y="14.507"/><use xlink:href="#e" x="29.91" y="10.643"/><use xlink:href="#e" x="36.375" y="19.334"/><path d="M316.702 407.837l-.24 1.91-.645-.185.546.973-.165 1.31-1.393-.564 1.318 1.156-.057.456-1.568-.441 1.463 1.278-.09.713-1.463-.367 1.37 1.109-.081.643-.998.041.865 1.018-.085.676-1.671-.555 1.563 1.409-.037.292-1.463-.175 1.353 1.047-.074.585-1.327-.512 1.204 1.488-.066.529-1.658-.461 1.578 1.098-.068.541-1.906-.139 1.698 1.792-.029.234-1.921.026 1.824.75-.063.499-2.549-.199 2.398 1.393-.055.432-1.712-.178 1.604 1.032-.008.069-2.098.319 1.954.827-.085.672 5.605-.52-.042-.331 2.089-1.332-2.181.599-.087-.689 2.161-1.611-2.296.539-.015-.117 2.033-1.991-2.149 1.067-.094-.752 1.851-1.373-2.036-.1-.025-.197 1.997-1.15-2.071.56-.11-.878 1.295-1.102-1.492-.463-.027-.219 1.238-1.496-1.36.529-.096-.767 1.273-1.254-1.237-.216 1.237-1.293-1.639-.146-.092-.732 1.858-1.302-2.024-.023-.063-.499L319.11 412l-1.821.503-.065-.516 1.695-1.215-1.82.222-.039-.311.722-.855-.772.46z"/><use xlink:href="#e" x="58.784" y="16.513"/><use xlink:href="#e" x="65.125" y="21.546"/></g><g class="J B"><use xlink:href="#e" x="79.831" y="23.375"/><use xlink:href="#e" x="87.353" y="17.493"/><use xlink:href="#e" x="105.575" y="20.324"/><use xlink:href="#e" x="112.859" y="14.273"/></g><g class="E B"><use xlink:href="#e" x="127.037" y="18.295"/><use xlink:href="#e" x="134.522" y="10.833"/><use xlink:href="#e" x="143.219" y="14.501"/><use xlink:href="#e" x="161.077" y="10.597"/><use xlink:href="#e" x="168.606" y="-0.011"/><use xlink:href="#e" x="174.018" y="5.556"/><use xlink:href="#e" x="184.387" y="-3.622"/></g><g class="D B"><use xlink:href="#e" x="199.076" y="-5.336"/><use xlink:href="#e" x="205.525" y="-10.128"/><use xlink:href="#e" x="218.772" y="-9.231"/><use xlink:href="#e" x="225.211" y="-13.246"/><use xlink:href="#e" x="239.93" y="-8.165"/><use xlink:href="#f"/><use xlink:href="#a" x="-377.917" y="-10.06"/></g><g class="K B"><use xlink:href="#a" x="-370.632" y="-13.522"/><use xlink:href="#a" x="-362.833" y="-12.374"/><use xlink:href="#a" x="-355.213" y="-7.433"/><use xlink:href="#a" x="-347.676" y="-10.51"/><use xlink:href="#a" x="-339.255" y="-5.83"/></g><g fill="#033c73" class="B"><use xlink:href="#a" x="-323.768" y="0.212"/><use xlink:href="#a" x="-315.346" y="-0.679"/></g><g class="L B"><use xlink:href="#a" x="-297.561" y="9.351"/><use xlink:href="#a" x="-289.588" y="7.889"/></g><g class="G B"><use xlink:href="#a" x="-274.444" y="16.341"/><use xlink:href="#a" x="-267.333" y="16.084"/><use xlink:href="#a" x="-251.937" y="26.302"/><use xlink:href="#a" x="-242.975" y="22.117"/><use xlink:href="#a" x="-234.381" y="30.441"/><use xlink:href="#a" x="-228.686" y="24.377"/><use xlink:href="#a" x="-222.318" y="24.32"/><use xlink:href="#a" x="-215.089" y="27.453"/><use xlink:href="#a" x="-208.125" y="19.769"/><use xlink:href="#a" x="-200.413" y="22.135"/><use xlink:href="#a" x="-200.413" y="22.135"/><use xlink:href="#a" x="-186.362" y="18.523"/></g><g class="I B"><use xlink:href="#a" x="-181.443" y="13.484"/><use xlink:href="#a" x="-172.524" y="10.089"/><use xlink:href="#a" x="-154.911" y="-0.251"/><use xlink:href="#a" x="-146.652" y="0.986"/></g><g class="D B"><use xlink:href="#a" x="-131.477" y="-6.257"/><use xlink:href="#a" x="-124.343" y="-11.573"/><use xlink:href="#a" x="-106.21" y="-16.438"/><use xlink:href="#a" x="-97.172" y="-22.91"/><use xlink:href="#a" x="-80.331" y="-24.489"/><use xlink:href="#a" x="-71.322" y="-29.463"/><use xlink:href="#a" x="-51.797" y="-29.162"/><use xlink:href="#a" x="-45.995" y="-24.071"/><use xlink:href="#a" x="-27.543" y="-25.779"/><use xlink:href="#a" x="-18.725" y="-16.136"/><use xlink:href="#a" x="-11.868" y="-11.913"/><use xlink:href="#b" x="11.305" y="-5.605"/><use xlink:href="#b" x="20.955" y="-3.252"/><use xlink:href="#b" x="20.955" y="-3.252"/><use xlink:href="#b" x="37.087" y="-6.82"/><use xlink:href="#b" x="46.72" y="-12.825"/><path d="M100.272 359.524l-.24 1.91-.645-.185.546.973-.165 1.31-1.393-.564 1.318 1.156-.057.456-1.568-.441 1.463 1.278-.09.713-1.463-.367 1.37 1.109-.081.643-.998.041.865 1.018-.085.676-1.671-.555 1.563 1.409-.037.292-1.463-.175 1.353 1.047-.074.585-1.327-.512 1.204 1.488-.066.529-1.658-.461 1.578 1.098-.068.541-1.906-.139 1.698 1.792-.029.234-1.921.026 1.824.75-.063.499-2.549-.199 2.398 1.393-.054.432-1.712-.178 1.604 1.032-.008.069-2.098.319 1.954.827-.085.672 5.605-.52-.042-.331 2.089-1.332-2.181.599-.087-.689 2.161-1.611-2.296.539-.015-.117 2.032-1.991-2.149 1.067-.094-.752 1.851-1.373-2.036-.1-.025-.197 1.997-1.15-2.071.56-.11-.878 1.295-1.102-1.492-.463-.028-.219 1.238-1.496-1.36.529-.097-.767 1.273-1.254-1.237-.216 1.237-1.293-1.639-.146-.092-.732 1.858-1.302-2.024-.023-.063-.499 1.743-1.116-1.821.503-.065-.516 1.695-1.215-1.82.222-.039-.311.722-.855-.772.46z"/><use xlink:href="#c" x="-5.291" y="3.147"/><use xlink:href="#c" x="3.67" y="2.696"/><use xlink:href="#d" x="-14.393" y="-4.451"/><use xlink:href="#d" x="4.503" y="-2.474"/><use xlink:href="#d" x="9.095" y="-0.234"/><use xlink:href="#d" x="17.999" y="-4.685"/><use xlink:href="#d" x="26.327" y="-3.689"/><use xlink:href="#d" x="33.87" y="-2.601"/><use xlink:href="#d" x="42.792" y="2.266"/><use xlink:href="#d" x="48.761" y="-3.964"/><use xlink:href="#d" x="62.398" y="2.796"/><use xlink:href="#d" x="57.29" y="5.955"/><use xlink:href="#d" x="74.573" y="11.428"/><use xlink:href="#d" x="79.972" y="16.626"/><use xlink:href="#d" x="85.543" y="21.709"/><use xlink:href="#d" x="90.389" y="21.288"/></g><g class="E B"><use xlink:href="#e" x="9.92" y="13.273"/><use xlink:href="#e" x="3.086" y="10.072"/><use xlink:href="#e" x="39.902" y="22.374"/><use xlink:href="#e" x="48.906" y="25.028"/><use xlink:href="#e" x="55.451" y="19.003"/><use xlink:href="#e" x="61.777" y="20.763"/><use xlink:href="#e" x="68.412" y="23.412"/></g><g class="J B"><use xlink:href="#e" x="92.317" y="21.683"/><use xlink:href="#e" x="83.609" y="24.663"/><use xlink:href="#e" x="76.645" y="25.408"/><use xlink:href="#e" x="102.03" y="24.884"/><use xlink:href="#e" x="109.231" y="17.132"/></g><g class="E B"><use xlink:href="#e" x="138.784" y="17.38"/><use xlink:href="#e" x="147.792" y="11.441"/><use xlink:href="#e" x="130.352" y="19.146"/><use xlink:href="#e" x="124.073" y="18.79"/><use xlink:href="#e" x="116.357" y="19.859"/><use xlink:href="#e" x="156.706" y="10.613"/><use xlink:href="#e" x="164.288" y="5.379"/><use xlink:href="#e" x="178.54" y="0.847"/></g><g class="D B"><use xlink:href="#e" x="243.727" y="-6.239"/><use xlink:href="#e" x="236.265" y="-9.734"/><use xlink:href="#f"/><use xlink:href="#a" x="-383.353" y="-8.935"/></g><g class="K"><use xlink:href="#a" x="-351.594" y="-6.792" class="B"/><use xlink:href="#a" x="-358.465" y="-5.124" class="B"/><use xlink:href="#a" x="-366.463" y="-9.175" class="B"/><use xlink:href="#a" x="-343.001" y="-5.957" class="B"/><use xlink:href="#g" class="H"/><use xlink:href="#g" class="H"/><use xlink:href="#g" x="7.61" y="2.913" class="H"/><use xlink:href="#g" x="-7.929" y="-5.873" class="H"/><use xlink:href="#g" x="17.293" y="3.285" class="H"/></g><g class="L"><use xlink:href="#a" x="-294.362" y="12.179" class="B"/><use xlink:href="#h" filter="url(#W)"/><path d="M629.372 405.073l-.216 1.718-.58-.167.491.875-.148 1.178-1.253-.507 1.186 1.04-.052.41-1.411-.397 1.316 1.149-.081.641-1.316-.33 1.232.998-.073.579-.898.037.778.916-.077.608-1.503-.499 1.406 1.267-.033.262-1.316-.157 1.217.941-.066.526-1.193-.46 1.083 1.338-.06.475-1.492-.415 1.42.987-.061.486-1.714-.125 1.527 1.612-.027.21-1.728.023 1.64.675-.057.449-2.293-.179 2.158 1.253-.049.389-1.54-.16 1.443.928-.007.062-1.887.287 1.757.744-.076.605 5.042-.468-.037-.298 1.879-1.198-1.962.539-.078-.62 1.944-1.45-2.066.485-.013-.105 1.828-1.791-1.933.96-.085-.677 1.665-1.235-1.831-.09-.022-.177 1.796-1.034-1.863.504-.099-.79 1.165-.991-1.342-.417-.025-.197 1.114-1.346-1.223.476-.087-.69 1.146-1.128-1.113-.195 1.113-1.163-1.474-.131-.083-.658 1.671-1.171-1.821-.021-.056-.449 1.568-1.004-1.638.452-.058-.464 1.525-1.093-1.637.2-.035-.28.65-.769-.694.414z" filter="url(#X)"/><use xlink:href="#h" x="-14.479" y="-7.157" filter="url(#W)"/><use xlink:href="#a" x="-285.746" y="16.366" class="B"/><use xlink:href="#a" x="-300.969" y="10.854" class="B"/><use xlink:href="#a" x="-254.473" y="25.717" class="B"/><use xlink:href="#a" x="-248.042" y="27.775" class="B"/></g><g class="G B"><use xlink:href="#a" x="-237.799" y="28.052"/><use xlink:href="#a" x="-203.411" y="24.038"/><use xlink:href="#a" x="-218.391" y="28.977"/><use xlink:href="#a" x="-225.691" y="27.04"/><use xlink:href="#a" x="-211.77" y="25.381"/></g><g fill="#033f77" class="B"><use xlink:href="#a" x="-197.182" y="22.288"/><use xlink:href="#a" x="-188.671" y="21.843"/></g><g class="I B"><use xlink:href="#a" x="-176.117" y="14.923"/><use xlink:href="#a" x="-168.536" y="10.609"/><use xlink:href="#a" x="-159.618" y="5.808"/><use xlink:href="#a" x="-150.359" y="5.011"/><use xlink:href="#a" x="-135.852" y="-0.106"/></g><g class="D B"><use xlink:href="#a" x="-119.026" y="-10.722"/><use xlink:href="#a" x="-101.746" y="-16.431"/><use xlink:href="#a" x="-92.796" y="-20.658"/><use xlink:href="#a" x="-76.142" y="-22.929"/><use xlink:href="#a" x="-66.671" y="-26.402"/><use xlink:href="#a" x="-56.196" y="-23.349"/><use xlink:href="#a" x="-33.043" y="-21.876"/><use xlink:href="#a" x="-22.81" y="-16.283"/><use xlink:href="#a" x="-15.24" y="-8.922"/><use xlink:href="#a" x="-8.342" y="-6.51"/></g><g opacity=".282" filter="url(#L)" class="F"><use xlink:href="#i" fill="url(#K)"/><use xlink:href="#i" transform="matrix(-1 0 0 1 984.16263 15.367998)" fill="url(#Z)"/><use xlink:href="#i" transform="matrix(-1 0 0 1 553.50371 35.492559)" fill="url(#Z)"/><use xlink:href="#i" transform="matrix(-1 0 0 1 269.8848 12.787177)" fill="url(#Z)"/><use xlink:href="#i" transform="matrix(-1 0 0 1 835.02206 -1.908471)" fill="url(#Z)"/><use xlink:href="#i" transform="matrix(-1 0 0 1 527.49087 37.246516)" fill="url(#Z)"/></g></svg>