<svg xmlns="http://www.w3.org/2000/svg" xmlns:xlink="http://www.w3.org/1999/xlink" width="1080" height="1080" viewBox="0 0 285.75 285.75" xmlns:v="https://vecta.io/nano"><style><![CDATA[.B{fill-opacity:.695}.C{fill:url(#H)}.D{fill:url(#G)}]]></style><defs><filter id="A" x="-.967" width="2.934" y="-.967" height="2.934" color-interpolation-filters="sRGB"><feGaussianBlur stdDeviation="78.843"/></filter><linearGradient id="B" x1="227.872" y1="130.447" x2="134.16" y2="134.734" xlink:href="#R"><stop offset="0" stop-color="#0048e4"/><stop offset="1" stop-color="#09e0fd"/></linearGradient><linearGradient id="C" x1="207.209" y1="211.961" x2="95.067" y2="140.745" xlink:href="#R"><stop offset="0" stop-color="#1a5fb4"/><stop offset="1" stop-color="#09e6fe"/></linearGradient><linearGradient id="D" x1="246.086" y1="230.136" x2="43.579" y2="104.966" xlink:href="#R"><stop offset="0" stop-color="#1a5fb4"/><stop offset="1" stop-color="#0ae1fe"/></linearGradient><linearGradient id="E" x1="216.067" y1="210.211" x2="67.796" y2="224.304" xlink:href="#R"><stop offset="0" stop-color="#1a5fb4"/><stop offset="1" stop-color="#09dcfd"/></linearGradient><linearGradient id="F" x1="254.024" y1="170.775" x2="167.717" y2="200.96" xlink:href="#R"><stop offset="0" stop-color="#1a5fb4"/><stop offset="1" stop-color="#99c1f1"/></linearGradient><linearGradient id="G" x1="209.605" y1="74.422" x2="235.567" y2="109.547" xlink:href="#R"><stop offset="0" stop-color="#f6d32d"/><stop offset="1" stop-color="#ff7900"/></linearGradient><linearGradient id="H" x1="174.262" y1="68.75" x2="224.44" y2="113.038" xlink:href="#R"><stop offset="0" stop-color="#f6d32d"/><stop offset="1" stop-color="#ff7900"/></linearGradient><linearGradient id="I" x1="219.364" y1="175.381" x2="161.88" y2="200.181" xlink:href="#R"><stop offset="0" stop-color="#0156e7"/><stop offset="1" stop-color="#07c8f9"/></linearGradient><linearGradient id="J" x1="173.062" y1="199.225" x2="95.067" y2="140.745" xlink:href="#R"><stop offset="0" stop-color="#0159e7"/><stop offset="1" stop-color="#09e6fe"/></linearGradient><linearGradient id="K" x1="206.714" y1="220.628" x2="23.166" y2="100.043" xlink:href="#R"><stop offset="0" stop-color="#0047e6"/><stop offset="1" stop-color="#0ae1fe"/></linearGradient><linearGradient id="L" x1="186.723" y1="214.857" x2="67.796" y2="224.304" xlink:href="#R"><stop offset="0" stop-color="#015eea"/><stop offset="1" stop-color="#09dcfd"/></linearGradient><path id="M" d="M173.11 84.341a13.159 13.159 0 0 0-2.237.192 13.159 13.159 0 0 0-2.532.703 13.159 13.159 0 0 0-2.341 1.192 13.159 13.159 0 0 0-2.059 1.632 13.159 13.159 0 0 0-1.692 2.01 13.159 13.159 0 0 0-1.26 2.307 13.159 13.159 0 0 0-.777 2.51 13.159 13.159 0 0 0-.262 2.614 13.159 13.159 0 0 0 .191 2.237 13.159 13.159 0 0 0 .704 2.531 13.159 13.159 0 0 0 1.191 2.342 13.159 13.159 0 0 0 1.633 2.058 13.159 13.159 0 0 0 2.01 1.693 13.159 13.159 0 0 0 2.306 1.26 13.159 13.159 0 0 0 2.51.776 13.159 13.159 0 0 0 2.614.262 13.159 13.159 0 0 0 2.237-.192 13.159 13.159 0 0 0 2.532-.703 13.159 13.159 0 0 0 2.342-1.192 13.159 13.159 0 0 0 2.058-1.632 13.159 13.159 0 0 0 1.692-2.01 13.159 13.159 0 0 0 1.26-2.306 13.159 13.159 0 0 0 .777-2.511 13.159 13.159 0 0 0 .262-2.614 13.159 13.159 0 0 0-.192-2.237 13.159 13.159 0 0 0-.703-2.531 13.159 13.159 0 0 0-1.192-2.342 13.159 13.159 0 0 0-1.633-2.058 13.159 13.159 0 0 0-2.01-1.693 13.159 13.159 0 0 0-2.306-1.26 13.159 13.159 0 0 0-2.51-.776 13.159 13.159 0 0 0-2.614-.262z"/><path id="N" d="M227.674 134.386a65.795 65.795 0 0 0-.165-4.654 65.795 65.795 0 0 0-.001-.007 105.272 105.272 0 0 1 .165 4.659z"/><path id="O" d="M44.207 103.747a105.272 105.272 0 0 0-.375 2.483 105.272 105.272 0 0 0-.262 17.956 105.272 105.272 0 0 0 3.572 20.713 105.272 105.272 0 0 0 7.616 19.59 105.272 105.272 0 0 0 11.357 17.687 105.272 105.272 0 0 0 14.644 15.079 105.272 105.272 0 0 0 8.377 6.368 105.272 105.272 0 0 0 1.991 1.221 105.272 105.272 0 0 0 6.98 4.28 105.272 105.272 0 0 0 19.36 8.185 105.272 105.272 0 0 0 20.6 4.176 105.272 105.272 0 0 0 17.956.262 105.272 105.272 0 0 0 20.713-3.572 105.272 105.272 0 0 0 9.985-3.318 105.272 105.272 0 0 0 6.9-3.088 105.272 105.272 0 0 0 2.123-1.864 105.272 105.272 0 0 0 7.173-7.7 105.272 105.272 0 0 0 4.827-6.349 65.795 65.795 0 0 1-5.804 1.929 65.795 65.795 0 0 1-12.946 2.233 65.795 65.795 0 0 1-11.223-.164 65.795 65.795 0 0 1-4.488-.678 65.795 65.795 0 0 1-.222.05 65.795 65.795 0 0 1-11.183.957 65.795 65.795 0 0 1-13.072-1.311 65.795 65.795 0 0 1-12.55-3.882 65.795 65.795 0 0 1-11.528-6.298 65.795 65.795 0 0 1-10.048-8.464 65.795 65.795 0 0 1-4.341-4.941 65.795 65.795 0 0 1-.181-.254 65.795 65.795 0 0 1-3.645-5.096 65.795 65.795 0 0 1-5.959-11.707 65.795 65.795 0 0 1-3.514-12.658 65.795 65.795 0 0 1-.958-11.183 65.795 65.795 0 0 1 .121-2.41 105.272 105.272 0 0 1-8.974-2.291 105.272 105.272 0 0 1-19.36-8.185 105.272 105.272 0 0 1-17.348-11.869 105.272 105.272 0 0 1-6.316-5.884z"/><path id="P" d="M67.77 224.219a105.272 105.272 0 0 0 4.163 2.552 105.272 105.272 0 0 0 19.36 8.185 105.272 105.272 0 0 0 20.6 4.176 105.272 105.272 0 0 0 17.956.262 105.272 105.272 0 0 0 20.713-3.573 105.272 105.272 0 0 0 19.59-7.617 105.272 105.272 0 0 0 17.687-11.357 105.272 105.272 0 0 0 5.783-5.08 105.272 105.272 0 0 1-6.9 3.088 105.272 105.272 0 0 1-20.253 5.622 105.272 105.272 0 0 1-17.893 1.532 105.272 105.272 0 0 1-20.914-2.098 105.272 105.272 0 0 1-20.081-6.212 105.272 105.272 0 0 1-9.475-4.577 105.272 105.272 0 0 1-6.98-4.28 105.272 105.272 0 0 1-4.714 5.06 105.272 105.272 0 0 1-16.466 13.066 105.272 105.272 0 0 1-2.177 1.249z"/><path id="Q" d="M96.205 131.976a65.795 65.795 0 0 0-.121 2.41 65.795 65.795 0 0 0 .958 11.183 65.795 65.795 0 0 0 3.514 12.658 65.795 65.795 0 0 0 5.959 11.707 65.795 65.795 0 0 0 3.645 5.096 65.795 65.795 0 0 0 .181.254 65.795 65.795 0 0 0 9.153 9.424 65.795 65.795 0 0 0 10.842 7.417 65.795 65.795 0 0 0 12.101 5.116 65.795 65.795 0 0 0 12.875 2.61 65.795 65.795 0 0 0 11.223.164 65.795 65.795 0 0 0 6.528-.792 65.795 65.795 0 0 0 .222-.05 65.795 65.795 0 0 1-2.015-.305 65.795 65.795 0 0 1-12.55-3.882 65.795 65.795 0 0 1-11.529-6.298 65.795 65.795 0 0 1-10.048-8.464 65.795 65.795 0 0 1-8.166-10.291 65.795 65.795 0 0 1-5.96-11.707 65.795 65.795 0 0 1-3.514-12.658 65.795 65.795 0 0 1-.958-11.183 65.795 65.795 0 0 1 0-.008 105.272 105.272 0 0 1-.205.008 105.272 105.272 0 0 1-20.914-2.098 105.272 105.272 0 0 1-1.222-.312z"/><linearGradient id="R" gradientUnits="userSpaceOnUse"/></defs><path d="M-7.484-5.574h305.222v302.015H-7.484z" paint-order="normal"/><circle cx="142.875" cy="142.875" r="97.821" transform="matrix(.858763 0 0 .858763 20.179281 20.179281)" fill="#787878" paint-order="normal" filter="url(#A)"/><g transform="translate(0 -11.25)"><use xlink:href="#M" fill="#fff" paint-order="normal"/><g fill="#f0f" class="B"><use xlink:href="#N" paint-order="normal"/><use xlink:href="#N" paint-order="normal"/></g><path d="M173.284 199.175a65.795 65.795 0 0 0 4.488.678 65.795 65.795 0 0 0 11.223.164 65.795 65.795 0 0 0 12.946-2.233 65.795 65.795 0 0 0 5.804-1.929 105.272 105.272 0 0 0 1.541-2.027 105.272 105.272 0 0 0 10.077-18.446 105.272 105.272 0 0 0 6.212-20.081 105.272 105.272 0 0 0 2.098-20.914 65.795 65.795 0 0 1-1.312 13.072 65.795 65.795 0 0 1-3.882 12.55 65.795 65.795 0 0 1-6.299 11.529 65.795 65.795 0 0 1-8.463 10.047 65.795 65.795 0 0 1-10.291 8.167 65.795 65.795 0 0 1-11.708 5.959 65.795 65.795 0 0 1-12.436 3.465z" fill="url(#F)" paint-order="normal"/><use xlink:href="#O" fill="url(#D)" paint-order="normal"/><use xlink:href="#P" fill="url(#E)" paint-order="normal"/><use xlink:href="#Q" fill="url(#C)" paint-order="normal"/><path d="M184.341 68.592a65.795 65.795 0 0 0-11.183.958 65.795 65.795 0 0 0-.222.05 65.795 65.795 0 0 1 2.015.305 65.795 65.795 0 0 1 12.55 3.882 65.795 65.795 0 0 1 11.529 6.299 65.795 65.795 0 0 1 5.236 3.98 65.795 65.795 0 0 1 2.364 2.202 65.795 65.795 0 0 1 2.448 2.28 65.795 65.795 0 0 1 8.167 10.291 65.795 65.795 0 0 1 5.959 11.708 65.795 65.795 0 0 1 3.514 12.658 65.795 65.795 0 0 1 .792 6.523 105.272 105.272 0 0 0-.099-2.787 105.272 105.272 0 0 0-3.572-20.714 105.272 105.272 0 0 0-7.617-19.59 105.272 105.272 0 0 0-4.832-8.425 105.272 105.272 0 0 0-.403-.703 105.272 105.272 0 0 0-3.241-4.533 65.795 65.795 0 0 0-3.96-1.445 65.795 65.795 0 0 0-12.875-2.609 65.795 65.795 0 0 0-6.569-.329z" paint-order="normal" class="C"/><path d="M207.745 72.975a105.272 105.272 0 0 1 3.241 4.533 105.272 105.272 0 0 1 .403.703 105.272 105.272 0 0 1 4.832 8.425 105.272 105.272 0 0 1 7.617 19.59 105.272 105.272 0 0 1 3.572 20.714 105.272 105.272 0 0 1 .099 2.787 65.795 65.795 0 0 1 .001.007 65.795 65.795 0 0 1 .165 4.654 39.477 39.477 0 0 1 .787-7.843 39.477 39.477 0 0 1 2.329-7.53 39.477 39.477 0 0 1 3.779-6.917 39.477 39.477 0 0 1 5.078-6.029 39.477 39.477 0 0 1 2.797-2.457 65.795 65.795 0 0 0-2.738-4.773 65.795 65.795 0 0 0-8.166-10.291 65.795 65.795 0 0 0-10.048-8.463 65.795 65.795 0 0 0-5.607-3.438 65.795 65.795 0 0 0-3.032-1.465 65.795 65.795 0 0 0-2.89-1.396 65.795 65.795 0 0 0-2.218-.81z" paint-order="normal" class="D"/><use xlink:href="#M" fill="#fff" paint-order="normal"/><g fill="#f0f" class="B"><use xlink:href="#N" paint-order="normal"/><use xlink:href="#N" paint-order="normal"/></g><path d="M173.284 199.175a65.795 65.795 0 0 0 4.488.678 65.795 65.795 0 0 0 11.223.164 65.795 65.795 0 0 0 12.946-2.233 65.795 65.795 0 0 0 5.804-1.929 105.272 105.272 0 0 0 1.541-2.027 105.272 105.272 0 0 0 10.077-18.446 105.272 105.272 0 0 0 6.212-20.081 105.272 105.272 0 0 0 2.098-20.914 65.795 65.795 0 0 1-1.312 13.072 65.795 65.795 0 0 1-3.882 12.55 65.795 65.795 0 0 1-6.299 11.529 65.795 65.795 0 0 1-8.463 10.047 65.795 65.795 0 0 1-10.291 8.167 65.795 65.795 0 0 1-11.708 5.959 65.795 65.795 0 0 1-12.436 3.465z" fill="url(#F)" paint-order="normal"/><use xlink:href="#O" fill="url(#K)" paint-order="normal"/><use xlink:href="#P" fill="url(#L)" paint-order="normal"/><use xlink:href="#Q" fill="url(#J)" paint-order="normal"/><path d="M172.936 69.599a65.795 65.795 0 0 0-12.436 3.464 65.795 65.795 0 0 0-11.708 5.96 65.795 65.795 0 0 0-10.29 8.166 65.795 65.795 0 0 0-8.464 10.048 65.795 65.795 0 0 0-6.298 11.529 65.795 65.795 0 0 0-3.882 12.55 65.795 65.795 0 0 0-1.312 13.064 65.795 65.795 0 0 0 .165 4.662 65.795 65.795 0 0 0 2.232 12.946 65.795 65.795 0 0 0 4.761 12.244 65.795 65.795 0 0 0 7.098 11.054 65.795 65.795 0 0 0 9.153 9.424 65.795 65.795 0 0 0 10.843 7.417 65.795 65.795 0 0 0 12.1 5.116 65.795 65.795 0 0 0 6.372 1.627 65.795 65.795 0 0 0 2.015.305 65.795 65.795 0 0 0 12.436-3.465 65.795 65.795 0 0 0 11.708-5.959 65.795 65.795 0 0 0 10.291-8.167 65.795 65.795 0 0 0 8.463-10.047 65.795 65.795 0 0 0 6.299-11.529 65.795 65.795 0 0 0 3.882-12.55 65.795 65.795 0 0 0 1.312-13.072 105.272 105.272 0 0 0-.165-4.66 65.795 65.795 0 0 0-2.232-12.94 65.795 65.795 0 0 0-4.761-12.245 65.795 65.795 0 0 0-7.098-11.054 65.795 65.795 0 0 0-4.341-4.941 65.795 65.795 0 0 0-2.448-2.28 65.795 65.795 0 0 0-2.364-2.202 65.795 65.795 0 0 0-10.843-7.418 65.795 65.795 0 0 0-12.1-5.116 65.795 65.795 0 0 0-6.372-1.627 65.795 65.795 0 0 0-2.015-.305zm.174 14.742a13.159 13.159 0 0 1 2.614.262 13.159 13.159 0 0 1 2.51.776 13.159 13.159 0 0 1 2.306 1.26 13.159 13.159 0 0 1 2.01 1.693 13.159 13.159 0 0 1 1.633 2.058 13.159 13.159 0 0 1 1.192 2.342 13.159 13.159 0 0 1 .703 2.531 13.159 13.159 0 0 1 .192 2.237 13.159 13.159 0 0 1-.262 2.614 13.159 13.159 0 0 1-.777 2.511 13.159 13.159 0 0 1-1.26 2.306 13.159 13.159 0 0 1-1.692 2.01 13.159 13.159 0 0 1-2.058 1.632 13.159 13.159 0 0 1-2.342 1.192 13.159 13.159 0 0 1-2.532.703 13.159 13.159 0 0 1-2.237.192 13.159 13.159 0 0 1-2.614-.262 13.159 13.159 0 0 1-2.51-.776 13.159 13.159 0 0 1-2.306-1.26 13.159 13.159 0 0 1-2.01-1.693 13.159 13.159 0 0 1-1.633-2.058 13.159 13.159 0 0 1-1.191-2.342 13.159 13.159 0 0 1-.704-2.531 13.159 13.159 0 0 1-.191-2.237 13.159 13.159 0 0 1 .262-2.614 13.159 13.159 0 0 1 .777-2.51 13.159 13.159 0 0 1 1.26-2.307 13.159 13.159 0 0 1 1.692-2.01 13.159 13.159 0 0 1 2.059-1.632 13.159 13.159 0 0 1 2.341-1.192 13.159 13.159 0 0 1 2.532-.703 13.159 13.159 0 0 1 2.237-.192z" fill="url(#B)" paint-order="normal"/><path d="M184.341 68.592a65.795 65.795 0 0 0-11.183.958 65.795 65.795 0 0 0-.222.05 65.795 65.795 0 0 1 2.015.305 65.795 65.795 0 0 1 12.55 3.882 65.795 65.795 0 0 1 11.529 6.299 65.795 65.795 0 0 1 5.236 3.98 65.795 65.795 0 0 1 2.364 2.202 65.795 65.795 0 0 1 2.448 2.28 65.795 65.795 0 0 1 8.167 10.291 65.795 65.795 0 0 1 5.959 11.708 65.795 65.795 0 0 1 3.514 12.658 65.795 65.795 0 0 1 .792 6.523 105.272 105.272 0 0 0-.099-2.787 105.272 105.272 0 0 0-3.572-20.714 105.272 105.272 0 0 0-7.617-19.59 105.272 105.272 0 0 0-4.832-8.425 105.272 105.272 0 0 0-.403-.703 105.272 105.272 0 0 0-3.241-4.533 65.795 65.795 0 0 0-3.96-1.445 65.795 65.795 0 0 0-12.875-2.609 65.795 65.795 0 0 0-6.569-.329z" paint-order="normal" class="C"/><path d="M207.745 72.975a105.272 105.272 0 0 1 3.241 4.533 105.272 105.272 0 0 1 .403.703 105.272 105.272 0 0 1 4.832 8.425 105.272 105.272 0 0 1 7.617 19.59 105.272 105.272 0 0 1 3.572 20.714 105.272 105.272 0 0 1 .099 2.787 65.795 65.795 0 0 1 .001.007 65.795 65.795 0 0 1 .165 4.654 39.477 39.477 0 0 1 .787-7.843 39.477 39.477 0 0 1 2.329-7.53 39.477 39.477 0 0 1 3.779-6.917 39.477 39.477 0 0 1 5.078-6.029 39.477 39.477 0 0 1 2.797-2.457 65.795 65.795 0 0 0-2.738-4.773 65.795 65.795 0 0 0-8.166-10.291 65.795 65.795 0 0 0-10.048-8.463 65.795 65.795 0 0 0-5.607-3.438 65.795 65.795 0 0 0-3.032-1.465 65.795 65.795 0 0 0-2.89-1.396 65.795 65.795 0 0 0-2.218-.81z" paint-order="normal" class="D"/><use xlink:href="#M" fill="#fff" paint-order="normal"/><g fill="#f0f" class="B"><use xlink:href="#N" paint-order="normal"/><use xlink:href="#N" paint-order="normal"/></g><path d="M173.284 199.175a65.795 65.795 0 0 0 4.488.678 65.795 65.795 0 0 0 11.223.164 65.795 65.795 0 0 0 12.946-2.233 65.795 65.795 0 0 0 5.804-1.929 105.272 105.272 0 0 0 1.541-2.027 105.272 105.272 0 0 0 10.077-18.446 105.272 105.272 0 0 0 6.212-20.081 105.272 105.272 0 0 0 2.098-20.914 65.795 65.795 0 0 1-1.312 13.072 65.795 65.795 0 0 1-3.882 12.55 65.795 65.795 0 0 1-6.299 11.529 65.795 65.795 0 0 1-8.463 10.047 65.795 65.795 0 0 1-10.291 8.167 65.795 65.795 0 0 1-11.708 5.959 65.795 65.795 0 0 1-12.436 3.465z" fill="url(#I)" paint-order="normal"/><path d="M184.341 68.592a65.795 65.795 0 0 0-11.183.958 65.795 65.795 0 0 0-.222.05 65.795 65.795 0 0 1 2.015.305 65.795 65.795 0 0 1 12.55 3.882 65.795 65.795 0 0 1 11.529 6.299 65.795 65.795 0 0 1 5.236 3.98 65.795 65.795 0 0 1 2.364 2.202 65.795 65.795 0 0 1 2.448 2.28 65.795 65.795 0 0 1 8.167 10.291 65.795 65.795 0 0 1 5.959 11.708 65.795 65.795 0 0 1 3.514 12.658 65.795 65.795 0 0 1 .792 6.523 105.272 105.272 0 0 0-.099-2.787 105.272 105.272 0 0 0-3.572-20.714 105.272 105.272 0 0 0-7.617-19.59 105.272 105.272 0 0 0-4.832-8.425 105.272 105.272 0 0 0-.403-.703 105.272 105.272 0 0 0-3.241-4.533 65.795 65.795 0 0 0-3.96-1.445 65.795 65.795 0 0 0-12.875-2.609 65.795 65.795 0 0 0-6.569-.329z" paint-order="normal" class="C"/><path d="M207.745 72.975a105.272 105.272 0 0 1 3.241 4.533 105.272 105.272 0 0 1 .403.703 105.272 105.272 0 0 1 4.832 8.425 105.272 105.272 0 0 1 7.617 19.59 105.272 105.272 0 0 1 3.572 20.714 105.272 105.272 0 0 1 .099 2.787 65.795 65.795 0 0 1 .001.007 65.795 65.795 0 0 1 .165 4.654 39.477 39.477 0 0 1 .787-7.843 39.477 39.477 0 0 1 2.329-7.53 39.477 39.477 0 0 1 3.779-6.917 39.477 39.477 0 0 1 5.078-6.029 39.477 39.477 0 0 1 2.797-2.457 65.795 65.795 0 0 0-2.738-4.773 65.795 65.795 0 0 0-8.166-10.291 65.795 65.795 0 0 0-10.048-8.463 65.795 65.795 0 0 0-5.607-3.438 65.795 65.795 0 0 0-3.032-1.465 65.795 65.795 0 0 0-2.89-1.396 65.795 65.795 0 0 0-2.218-.81z" paint-order="normal" class="D"/></g></svg>