<?xml version="1.0" encoding="UTF-8"?>
<svg height="128px" viewBox="0 0 128 128" width="128px" xmlns="http://www.w3.org/2000/svg" xmlns:xlink="http://www.w3.org/1999/xlink">
    <linearGradient id="a" gradientUnits="userSpaceOnUse" x1="6.776832" x2="122.77684" y1="81.999992" y2="81.999992">
        <stop offset="0" stop-color="#ed333b"/>
        <stop offset="0.0344828" stop-color="#f66151"/>
        <stop offset="0.431034" stop-color="#ff7800"/>
        <stop offset="0.5" stop-color="#ffbe6f"/>
        <stop offset="0.568965" stop-color="#ff7800"/>
        <stop offset="0.965517" stop-color="#f66151"/>
        <stop offset="1" stop-color="#ed333b"/>
    </linearGradient>
    <linearGradient id="b" gradientTransform="matrix(0.707107 -0.707107 -0.707107 -0.707107 -98.66468 -269.336985)" gradientUnits="userSpaceOnUse" x1="-81.088318" x2="-150.438919" y1="-316.567841" y2="-385.918427">
        <stop offset="0" stop-color="#ee424a"/>
        <stop offset="1" stop-color="#ffa348"/>
    </linearGradient>
    <path d="m 70.644531 122.164062 l 50.207031 -50.203124 c 1.660157 -1.664063 2.574219 -3.84375 2.453126 -6.007813 l -0.140626 -6.054687 l -52.519531 -49.957032 c -3.351562 -3.191406 -8.394531 -3.121094 -11.8125 0 l -52.550781 49.996094 l -0.042969 6.148438 c -0.015625 2.125 0.761719 4.246093 2.390625 5.875 l 50.203125 50.203124 c 3.273438 3.273438 8.542969 3.273438 11.8125 0 z m 0 0" fill="url(#a)"/>
    <path d="m 70.671875 116.511719 l 50.097656 -50.097657 c 3.253907 -3.253906 3.253907 -8.53125 0 -11.789062 l -50.097656 -50.097656 c -3.257813 -3.253906 -8.535156 -3.253906 -11.789063 0 l -50.097656 50.097656 c -3.257812 3.257812 -3.257812 8.535156 0 11.789062 l 50.097656 50.097657 c 3.253907 3.257812 8.53125 3.257812 11.789063 0 z m 0 0" fill="url(#b)"/>
    <g fill="#ffffff">
        <path d="m 47.140625 42.882812 v 7.054688 h 35.273437 v -7.054688 z m 0 14.109376 v 7.054687 h 28.148437 v -7.054687 z m 0 14.109374 v 7.054688 h 17.675781 l -0.039062 -7.054688 z m 0 0"/>
        <path d="m 78.886719 56.992188 v 11.535156 c -1.074219 -0.621094 -2.289063 -0.953125 -3.527344 -0.953125 c -3.898437 0 -7.054687 3.15625 -7.054687 7.054687 c 0 3.898438 3.15625 7.054688 7.054687 7.054688 s 7.054687 -3.15625 7.054687 -7.054688 v -10.582031 h 7.054688 v -7.054687 z m 0 0"/>
    </g>
</svg>
