<?xml version="1.0" encoding="UTF-8"?>
<svg height="128px" viewBox="0 0 128 128" width="128px" xmlns="http://www.w3.org/2000/svg" xmlns:xlink="http://www.w3.org/1999/xlink">
    <linearGradient id="a" gradientUnits="userSpaceOnUse" x1="6.83847" x2="122.838478" y1="81.999992" y2="81.999992">
        <stop offset="0" stop-color="#895186"/>
        <stop offset="0.0344828" stop-color="#633b61"/>
        <stop offset="0.431034" stop-color="#3584e4"/>
        <stop offset="0.5" stop-color="#8dbaf2"/>
        <stop offset="0.568965" stop-color="#3584e4"/>
        <stop offset="0.965517" stop-color="#623a5f"/>
        <stop offset="1" stop-color="#895186"/>
    </linearGradient>
    <linearGradient id="b" gradientTransform="matrix(0.707107 0.707107 -0.707107 0.707107 -98.664701 390.37698)" gradientUnits="userSpaceOnUse" x1="-81.088318" x2="-153.328156" y1="-316.567841" y2="-387.838135">
        <stop offset="0" stop-color="#3584e4"/>
        <stop offset="1" stop-color="#e9474c"/>
    </linearGradient>
    <path d="m 70.707031 122.164062 l 50.207031 -50.203124 c 1.660157 -1.664063 2.574219 -3.84375 2.453126 -6.007813 l -0.140626 -6.054687 l -52.519531 -49.957032 c -3.351562 -3.191406 -8.394531 -3.121094 -11.8125 0 l -52.554687 49.996094 l -0.039063 6.148438 c -0.015625 2.125 0.761719 4.246093 2.386719 5.875 l 6.335938 6.332031 l 43.871093 43.871093 c 3.273438 3.273438 8.539063 3.273438 11.8125 0 z m 0 0" fill="url(#a)"/>
    <path d="m 70.671875 4.527344 l 50.097656 50.097656 c 3.253907 3.257812 3.253907 8.535156 0 11.789062 l -50.097656 50.097657 c -3.257813 3.257812 -8.535156 3.257812 -11.789063 0 l -50.097656 -50.097657 c -3.257812 -3.253906 -3.257812 -8.53125 0 -11.789062 l 50.097656 -50.097656 c 3.253907 -3.253906 8.53125 -3.253906 11.789063 0 z m 0 0" fill="url(#b)"/>
    <g fill="#ffffff">
        <path d="m 43.265625 50.765625 v 35.363281 h 35.359375 v -6.429687 h -28.929688 v -28.933594 z m 0 0"/>
        <path d="m 46.480469 41.046875 l -9.644531 12.859375 h 19.285156 z m 0 0"/>
        <path d="m 88.269531 82.839844 l -12.859375 9.640625 v -19.285157 z m 0 0"/>
        <path d="m 54.941406 60.304688 c -1.882812 0.007812 -3.773437 0.828124 -5.058594 2.542968 l -4.683593 6.253906 l 2.5625 1.917969 l 4.695312 -6.238281 c 1.457031 -1.960938 4.46875 -1.582031 5.421875 0.652344 l 3.417969 8.023437 c 1.707031 4.019531 7.332031 4.332031 9.480469 0.539063 l 1.835937 -3.25 l -2.226562 0.632812 l -0.609375 -2.148437 l -1.800782 3.183593 c -0.867187 1.519532 -3.039062 1.394532 -3.714843 -0.210937 l -3.429688 -8.023437 c -1.074219 -2.535157 -3.472656 -3.878907 -5.890625 -3.875 z m 0 0"/>
        <path d="m 82.691406 37.65625 l -2.765625 4.957031 l 2.898438 -0.824219 c 0.253906 -0.074218 0.523437 -0.042968 0.765625 0.085938 l 4.917968 2.746094 c 0.234376 0.132812 0.398438 0.34375 0.472657 0.601562 l 0.871093 3.066406 l 2.867188 -5.140624 l -1.066406 -3.746094 l -5.101563 -2.84375 z m -4.144531 7.433594 l -9.671875 17.351562 l 2.191406 7.722656 l 7.835938 -2.226562 l 9.570312 -17.167969 l -1.308594 -4.597656 l -4.191406 -2.339844 z m 0 0"/>
    </g>
</svg>
